<svg xmlns="http://www.w3.org/2000/svg" xmlns:xlink="http://www.w3.org/1999/xlink" width="1920" zoomAndPan="magnify" viewBox="0 0 1440 809.999993" height="1080" preserveAspectRatio="xMidYMid meet" version="1.2"><defs><clipPath id="476a4ab7d4"><path d="M 475.609375 122.894531 L 588.742188 122.894531 L 588.742188 236.027344 L 475.609375 236.027344 Z M 475.609375 122.894531 "/></clipPath><clipPath id="d553e6555b"><path d="M 532.175781 122.894531 C 500.9375 122.894531 475.609375 148.21875 475.609375 179.460938 C 475.609375 210.703125 500.9375 236.027344 532.175781 236.027344 C 563.417969 236.027344 588.742188 210.703125 588.742188 179.460938 C 588.742188 148.21875 563.417969 122.894531 532.175781 122.894531 Z M 532.175781 122.894531 "/></clipPath><clipPath id="29ab34b063"><path d="M 484.417969 131.703125 L 579.667969 131.703125 L 579.667969 226.953125 L 484.417969 226.953125 Z M 484.417969 131.703125 "/></clipPath><clipPath id="c9ff12b795"><path d="M 510.300781 157.585938 L 554.058594 157.585938 L 554.058594 201.34375 L 510.300781 201.34375 Z M 510.300781 157.585938 "/></clipPath><clipPath id="6e46771f2a"><path d="M 532.179688 157.585938 C 520.097656 157.585938 510.300781 167.382812 510.300781 179.464844 C 510.300781 191.546875 520.097656 201.34375 532.179688 201.34375 C 544.261719 201.34375 554.058594 191.546875 554.058594 179.464844 C 554.058594 167.382812 544.261719 157.585938 532.179688 157.585938 Z M 532.179688 157.585938 "/></clipPath><clipPath id="79bf538227"><path d="M 475.609375 259.019531 L 588.742188 259.019531 L 588.742188 372.152344 L 475.609375 372.152344 Z M 475.609375 259.019531 "/></clipPath><clipPath id="53a272b924"><path d="M 532.175781 259.019531 C 500.9375 259.019531 475.609375 284.34375 475.609375 315.585938 C 475.609375 346.828125 500.9375 372.152344 532.175781 372.152344 C 563.417969 372.152344 588.742188 346.828125 588.742188 315.585938 C 588.742188 284.34375 563.417969 259.019531 532.175781 259.019531 Z M 532.175781 259.019531 "/></clipPath><clipPath id="407fb37ace"><path d="M 484.417969 267.828125 L 579.667969 267.828125 L 579.667969 363.078125 L 484.417969 363.078125 Z M 484.417969 267.828125 "/></clipPath><clipPath id="cace707359"><path d="M 510.300781 293.710938 L 554.058594 293.710938 L 554.058594 337.46875 L 510.300781 337.46875 Z M 510.300781 293.710938 "/></clipPath><clipPath id="e50d8f9a42"><path d="M 532.179688 293.710938 C 520.097656 293.710938 510.300781 303.507812 510.300781 315.589844 C 510.300781 327.671875 520.097656 337.46875 532.179688 337.46875 C 544.261719 337.46875 554.058594 327.671875 554.058594 315.589844 C 554.058594 303.507812 544.261719 293.710938 532.179688 293.710938 Z M 532.179688 293.710938 "/></clipPath><clipPath id="5f617d9f9e"><path d="M 475.609375 414.621094 L 588.515625 414.621094 L 588.515625 527.527344 L 475.609375 527.527344 Z M 475.609375 414.621094 "/></clipPath><clipPath id="95c09eaf66"><path d="M 532.0625 414.621094 C 500.886719 414.621094 475.609375 439.894531 475.609375 471.074219 C 475.609375 502.25 500.886719 527.527344 532.0625 527.527344 C 563.242188 527.527344 588.515625 502.25 588.515625 471.074219 C 588.515625 439.894531 563.242188 414.621094 532.0625 414.621094 Z M 532.0625 414.621094 "/></clipPath><clipPath id="8f8d43fef3"><path d="M 484.417969 423.429688 L 580 423.429688 L 580 519 L 484.417969 519 Z M 484.417969 423.429688 "/></clipPath><clipPath id="39368c9a2d"><path d="M 510.300781 449.3125 L 554.058594 449.3125 L 554.058594 493.066406 L 510.300781 493.066406 Z M 510.300781 449.3125 "/></clipPath><clipPath id="22191ca713"><path d="M 532.179688 449.3125 C 520.097656 449.3125 510.300781 459.105469 510.300781 471.191406 C 510.300781 483.273438 520.097656 493.066406 532.179688 493.066406 C 544.261719 493.066406 554.058594 483.273438 554.058594 471.191406 C 554.058594 459.105469 544.261719 449.3125 532.179688 449.3125 Z M 532.179688 449.3125 "/></clipPath><clipPath id="94529a92e4"><path d="M 475.609375 573.507812 L 588.515625 573.507812 L 588.515625 686.414062 L 475.609375 686.414062 Z M 475.609375 573.507812 "/></clipPath><clipPath id="31466be7fd"><path d="M 532.0625 573.507812 C 500.886719 573.507812 475.609375 598.785156 475.609375 629.960938 C 475.609375 661.140625 500.886719 686.414062 532.0625 686.414062 C 563.242188 686.414062 588.515625 661.140625 588.515625 629.960938 C 588.515625 598.785156 563.242188 573.507812 532.0625 573.507812 Z M 532.0625 573.507812 "/></clipPath><clipPath id="ec52ca1383"><path d="M 484.417969 582.316406 L 580 582.316406 L 580 678 L 484.417969 678 Z M 484.417969 582.316406 "/></clipPath><clipPath id="0561bc8660"><path d="M 510.300781 608.199219 L 554.058594 608.199219 L 554.058594 651.957031 L 510.300781 651.957031 Z M 510.300781 608.199219 "/></clipPath><clipPath id="f170951fa1"><path d="M 532.179688 608.199219 C 520.097656 608.199219 510.300781 617.996094 510.300781 630.078125 C 510.300781 642.160156 520.097656 651.957031 532.179688 651.957031 C 544.261719 651.957031 554.058594 642.160156 554.058594 630.078125 C 554.058594 617.996094 544.261719 608.199219 532.179688 608.199219 Z M 532.179688 608.199219 "/></clipPath></defs><g id="053a73cb6c"><g clip-rule="nonzero" clip-path="url(#476a4ab7d4)"><g clip-rule="nonzero" clip-path="url(#d553e6555b)"><path style="fill:none;stroke-width:12;stroke-linecap:butt;stroke-linejoin:miter;stroke:#0f172a;stroke-opacity:1;stroke-miterlimit:4;" d="M 75.42028 -0.000467423 C 33.769236 -0.000467423 -0.00159906 33.765159 -0.00159906 75.421411 C -0.00159906 117.077663 33.769236 150.84329 75.42028 150.84329 C 117.076532 150.84329 150.842159 117.077663 150.842159 75.421411 C 150.842159 33.765159 117.076532 -0.000467423 75.42028 -0.000467423 Z M 75.42028 -0.000467423 " transform="matrix(0.75,0,0,0.75,475.610574,122.894882)"/></g></g><path style=" stroke:none;fill-rule:nonzero;fill:#ea580c;fill-opacity:1;" d="M 532.042969 166.566406 L 519.71875 178.894531 C 517.785156 180.828125 517.785156 183.972656 519.71875 185.90625 C 521.648438 187.835938 524.796875 187.835938 526.726562 185.90625 L 530.675781 181.953125 C 531.417969 181.15625 532.671875 181.160156 533.410156 181.953125 L 537.359375 185.90625 C 539.292969 187.835938 542.4375 187.835938 544.371094 185.90625 C 546.300781 183.972656 546.300781 180.828125 544.371094 178.894531 Z M 532.042969 166.566406 "/><path style=" stroke:none;fill-rule:nonzero;fill:#ea580c;fill-opacity:1;" d="M 532.042969 146.644531 C 514.023438 146.644531 499.359375 161.304688 499.359375 179.328125 C 499.359375 197.351562 514.023438 212.011719 532.042969 212.011719 C 550.066406 212.011719 564.726562 197.351562 564.726562 179.328125 C 564.726562 161.304688 550.066406 146.644531 532.042969 146.644531 Z M 547.011719 188.546875 C 543.621094 191.933594 538.109375 191.933594 534.71875 188.546875 L 533.910156 187.738281 L 533.910156 194.730469 C 533.910156 195.761719 533.074219 196.597656 532.042969 196.597656 C 531.011719 196.597656 530.175781 195.761719 530.175781 194.730469 L 530.175781 187.738281 L 529.367188 188.546875 C 525.980469 191.933594 520.464844 191.933594 517.078125 188.546875 C 513.6875 185.160156 513.6875 179.644531 517.074219 176.253906 L 530.722656 162.605469 C 531.453125 161.878906 532.636719 161.878906 533.363281 162.605469 L 547.011719 176.253906 C 550.398438 179.644531 550.398438 185.160156 547.011719 188.546875 Z M 547.011719 188.546875 "/><g clip-rule="nonzero" clip-path="url(#29ab34b063)"><path style=" stroke:none;fill-rule:nonzero;fill:#ea580c;fill-opacity:1;" d="M 532.042969 131.703125 C 505.722656 131.703125 484.417969 153.003906 484.417969 179.328125 C 484.417969 205.648438 505.71875 226.953125 532.042969 226.953125 C 558.363281 226.953125 579.667969 205.652344 579.667969 179.328125 C 579.667969 153.007812 558.367188 131.703125 532.042969 131.703125 Z M 555.980469 142.558594 C 561.09375 145.898438 565.472656 150.277344 568.816406 155.394531 C 567.226562 156.132812 565.328125 155.824219 564.054688 154.554688 L 556.820312 147.316406 C 555.535156 146.03125 555.257812 144.117188 555.980469 142.558594 Z M 541.132812 136.386719 C 540.542969 138.011719 538.984375 139.175781 537.160156 139.175781 L 526.925781 139.175781 C 525.101562 139.175781 523.546875 138.011719 522.957031 136.386719 C 528.796875 135.152344 535.003906 135.09375 541.132812 136.386719 Z M 508.109375 142.558594 C 508.832031 144.117188 508.554688 146.03125 507.269531 147.316406 L 500.03125 154.554688 C 498.761719 155.824219 496.867188 156.136719 495.273438 155.394531 C 498.613281 150.277344 502.992188 145.898438 508.109375 142.558594 Z M 489.101562 170.242188 C 490.726562 170.828125 491.890625 172.386719 491.890625 174.210938 L 491.890625 184.445312 C 491.890625 186.269531 490.726562 187.828125 489.101562 188.414062 C 487.867188 182.574219 487.808594 176.367188 489.101562 170.242188 Z M 508.109375 216.097656 C 502.992188 212.757812 498.613281 208.378906 495.273438 203.261719 C 496.835938 202.542969 498.746094 202.820312 500.03125 204.101562 L 507.269531 211.339844 C 508.554688 212.625 508.832031 214.539062 508.109375 216.097656 Z M 522.957031 222.269531 C 523.546875 220.644531 525.101562 219.484375 526.925781 219.484375 L 537.160156 219.484375 C 538.984375 219.484375 540.542969 220.644531 541.132812 222.269531 C 535.277344 223.507812 529.070312 223.5625 522.957031 222.269531 Z M 555.980469 216.097656 C 555.257812 214.539062 555.535156 212.625 556.820312 211.339844 L 564.054688 204.101562 C 565.339844 202.816406 567.253906 202.542969 568.816406 203.261719 C 565.472656 208.378906 561.09375 212.757812 555.980469 216.097656 Z M 570.730469 200.039062 C 567.730469 198.46875 563.933594 198.945312 561.414062 201.460938 L 554.175781 208.699219 C 551.660156 211.214844 551.1875 215.015625 552.753906 218.015625 C 550.226562 219.375 547.550781 220.492188 544.757812 221.335938 C 543.75 218.101562 540.726562 215.746094 537.160156 215.746094 L 526.925781 215.746094 C 523.363281 215.746094 520.339844 218.101562 519.328125 221.335938 C 516.539062 220.492188 513.863281 219.375 511.332031 218.015625 C 512.902344 215.015625 512.425781 211.214844 509.910156 208.699219 L 502.671875 201.460938 C 500.15625 198.945312 496.359375 198.46875 493.355469 200.039062 C 492 197.511719 490.882812 194.835938 490.035156 192.042969 C 493.269531 191.03125 495.625 188.007812 495.625 184.445312 L 495.625 174.210938 C 495.625 170.648438 493.269531 167.625 490.035156 166.613281 C 490.882812 163.820312 492 161.148438 493.355469 158.621094 C 496.316406 160.175781 500.121094 159.746094 502.671875 157.195312 L 509.910156 149.957031 C 512.425781 147.441406 512.902344 143.640625 511.332031 140.640625 C 513.863281 139.28125 516.539062 138.164062 519.328125 137.320312 C 520.339844 140.554688 523.363281 142.910156 526.925781 142.910156 L 537.160156 142.910156 C 540.726562 142.910156 543.75 140.554688 544.757812 137.320312 C 547.550781 138.164062 550.226562 139.28125 552.753906 140.640625 C 551.1875 143.640625 551.660156 147.441406 554.175781 149.957031 L 561.414062 157.195312 C 563.964844 159.746094 567.765625 160.175781 570.730469 158.621094 C 572.089844 161.148438 573.207031 163.824219 574.054688 166.613281 C 570.816406 167.625 568.464844 170.648438 568.464844 174.210938 L 568.464844 184.445312 C 568.464844 188.007812 570.816406 191.03125 574.054688 192.042969 C 573.207031 194.835938 572.089844 197.511719 570.730469 200.039062 Z M 572.199219 184.445312 L 572.199219 174.210938 C 572.199219 172.386719 573.363281 170.828125 574.984375 170.242188 C 576.21875 176.082031 576.28125 182.289062 574.984375 188.414062 C 573.363281 187.828125 572.199219 186.269531 572.199219 184.445312 Z M 572.199219 184.445312 "/></g><g clip-rule="nonzero" clip-path="url(#c9ff12b795)"><g clip-rule="nonzero" clip-path="url(#6e46771f2a)"><path style=" stroke:none;fill-rule:nonzero;fill:#ea580c;fill-opacity:1;" d="M 510.300781 157.585938 L 554.058594 157.585938 L 554.058594 201.34375 L 510.300781 201.34375 Z M 510.300781 157.585938 "/></g></g><g style="fill:#0f172a;fill-opacity:1;"><g transform="translate(516.382012, 196.435509)"><path style="stroke:none" d="M 36.75 -27.671875 C 36.75 -25.816406 36.171875 -24.164062 35.015625 -22.71875 C 33.867188 -21.28125 32.359375 -20.066406 30.484375 -19.078125 C 28.609375 -18.097656 26.609375 -17.328125 24.484375 -16.765625 C 26.003906 -16.117188 27.289062 -15.21875 28.34375 -14.0625 C 29.40625 -12.90625 29.9375 -11.492188 29.9375 -9.828125 C 29.9375 -8.503906 29.566406 -7.175781 28.828125 -5.84375 C 28.085938 -4.519531 27.054688 -3.316406 25.734375 -2.234375 C 24.410156 -1.160156 22.875 -0.296875 21.125 0.359375 C 19.382812 1.023438 17.492188 1.359375 15.453125 1.359375 C 13.628906 1.359375 12.1875 1.101562 11.125 0.59375 C 10.070312 0.0820312 9.296875 -0.566406 8.796875 -1.359375 C 8.304688 -2.160156 7.988281 -2.976562 7.84375 -3.8125 C 7.382812 -2.820312 6.992188 -1.910156 6.671875 -1.078125 C 6.347656 -0.242188 6.113281 0.492188 5.96875 1.140625 C 5.851562 1.515625 5.566406 1.703125 5.109375 1.703125 C 4.617188 1.703125 4.050781 1.507812 3.40625 1.125 C 2.757812 0.75 2.207031 0.195312 1.75 -0.53125 C 1.300781 -1.269531 1.097656 -2.132812 1.140625 -3.125 C 1.171875 -4 1.535156 -5.285156 2.234375 -6.984375 C 2.941406 -8.691406 3.863281 -10.59375 5 -12.6875 C 6.132812 -14.789062 7.382812 -16.929688 8.75 -19.109375 C 10.113281 -21.296875 11.484375 -23.332031 12.859375 -25.21875 C 14.242188 -27.113281 15.523438 -28.671875 16.703125 -29.890625 C 14.460938 -29.242188 12.300781 -28.503906 10.21875 -27.671875 C 8.144531 -26.835938 6.3125 -26.0625 4.71875 -25.34375 C 4.332031 -25.144531 4.046875 -25.046875 3.859375 -25.046875 C 3.296875 -25.046875 3.015625 -25.460938 3.015625 -26.296875 C 3.015625 -27.359375 3.503906 -28.375 4.484375 -29.34375 C 5.472656 -30.3125 6.769531 -31.203125 8.375 -32.015625 C 9.988281 -32.828125 11.78125 -33.535156 13.75 -34.140625 C 15.71875 -34.742188 17.695312 -35.21875 19.6875 -35.5625 C 21.675781 -35.90625 23.519531 -36.078125 25.21875 -36.078125 C 27.601562 -36.078125 29.65625 -35.707031 31.375 -34.96875 C 33.101562 -34.226562 34.429688 -33.222656 35.359375 -31.953125 C 36.285156 -30.679688 36.75 -29.253906 36.75 -27.671875 Z M 15.625 -18.34375 C 17.21875 -18.65625 18.929688 -19.113281 20.765625 -19.71875 C 22.597656 -20.320312 24.316406 -21.054688 25.921875 -21.921875 C 27.535156 -22.796875 28.863281 -23.765625 29.90625 -24.828125 C 30.945312 -25.890625 31.46875 -27.046875 31.46875 -28.296875 C 31.46875 -30.378906 29.632812 -31.421875 25.96875 -31.421875 C 24.675781 -31.421875 23.3125 -31.304688 21.875 -31.078125 C 22.175781 -30.804688 22.421875 -30.507812 22.609375 -30.1875 C 22.796875 -29.875 22.890625 -29.582031 22.890625 -29.3125 C 22.890625 -29.082031 22.816406 -28.894531 22.671875 -28.75 C 21.765625 -27.6875 20.691406 -26.234375 19.453125 -24.390625 C 18.222656 -22.554688 16.945312 -20.539062 15.625 -18.34375 Z M 13.6875 -3.984375 C 14.9375 -3.984375 16.195312 -4.21875 17.46875 -4.6875 C 18.738281 -5.15625 19.898438 -5.773438 20.953125 -6.546875 C 22.015625 -7.328125 22.867188 -8.171875 23.515625 -9.078125 C 24.160156 -9.992188 24.484375 -10.890625 24.484375 -11.765625 C 24.484375 -12.742188 24.054688 -13.507812 23.203125 -14.0625 C 22.347656 -14.613281 21.109375 -14.890625 19.484375 -14.890625 C 18.421875 -14.890625 17.359375 -14.785156 16.296875 -14.578125 C 15.242188 -14.367188 14.109375 -14.070312 12.890625 -13.6875 C 12.328125 -12.625 11.769531 -11.582031 11.21875 -10.5625 C 10.664062 -9.539062 10.144531 -8.539062 9.65625 -7.5625 C 9.613281 -7.445312 9.59375 -7.296875 9.59375 -7.109375 C 9.59375 -6.160156 9.929688 -5.398438 10.609375 -4.828125 C 11.296875 -4.265625 12.320312 -3.984375 13.6875 -3.984375 Z M 13.6875 -3.984375 "/></g></g><g style="fill:#0f172a;fill-opacity:1;"><g transform="translate(609.527319, 203.464594)"><path style="stroke:none" d="M 43.03125 -6.078125 C 38.34375 -2.171875 32.984375 -0.21875 26.953125 -0.21875 C 20.140625 -0.21875 14.316406 -2.640625 9.484375 -7.484375 C 4.640625 -12.316406 2.21875 -18.140625 2.21875 -24.953125 C 2.21875 -31.816406 4.640625 -37.671875 9.484375 -42.515625 C 14.316406 -47.347656 20.140625 -49.765625 26.953125 -49.765625 C 33.023438 -49.765625 38.382812 -47.789062 43.03125 -43.84375 L 35.625 -36.515625 C 33.101562 -38.441406 30.210938 -39.40625 26.953125 -39.40625 C 23.003906 -39.40625 19.625 -38 16.8125 -35.1875 C 14 -32.363281 12.59375 -28.953125 12.59375 -24.953125 C 12.59375 -21.003906 14 -17.625 16.8125 -14.8125 C 19.625 -12 23.003906 -10.59375 26.953125 -10.59375 C 30.210938 -10.59375 33.101562 -11.554688 35.625 -13.484375 Z M 43.03125 -6.078125 "/></g></g><g style="fill:#0f172a;fill-opacity:1;"><g transform="translate(653.964874, 203.464594)"><path style="stroke:none" d="M 12.59375 -32.4375 C 13.425781 -34.8125 14.832031 -36.46875 16.8125 -37.40625 C 18.738281 -38.34375 21.628906 -38.8125 25.484375 -38.8125 L 25.484375 -28.21875 C 21.722656 -28.21875 18.585938 -26.929688 16.078125 -24.359375 C 13.753906 -22.085938 12.59375 -19.597656 12.59375 -16.890625 L 12.59375 0 L 2.21875 0 L 2.21875 -38.140625 L 12.59375 -38.140625 Z M 12.59375 -32.4375 "/></g></g><g style="fill:#0f172a;fill-opacity:1;"><g transform="translate(680.553343, 203.464594)"><path style="stroke:none" d="M 38.140625 -38.21875 L 23.109375 1.703125 C 21.472656 5.648438 18.878906 8.785156 15.328125 11.109375 C 11.773438 13.429688 7.898438 14.539062 3.703125 14.4375 L 3.703125 4.078125 C 5.234375 4.117188 6.765625 3.796875 8.296875 3.109375 C 10.460938 2.117188 12.09375 0.5625 13.1875 -1.5625 L 15.25 -7.265625 L 2.21875 -38.21875 L 13.625 -38.21875 L 20.515625 -21.546875 L 26.65625 -38.21875 Z M 38.140625 -38.21875 "/></g></g><g style="fill:#0f172a;fill-opacity:1;"><g transform="translate(720.547135, 203.464594)"><path style="stroke:none" d="M 22.078125 -38.140625 C 27.304688 -38.191406 31.796875 -36.363281 35.546875 -32.65625 C 39.296875 -28.957031 41.195312 -24.46875 41.25 -19.1875 C 41.300781 -13.945312 39.472656 -9.453125 35.765625 -5.703125 C 32.066406 -1.953125 27.578125 -0.0507812 22.296875 0 C 17.992188 0 14.757812 -1.359375 12.59375 -4.078125 L 12.59375 14.21875 L 2.21875 14.21875 L 2.21875 -38.0625 L 12.59375 -38.0625 L 12.59375 -34.0625 C 14.613281 -36.6875 17.773438 -38.046875 22.078125 -38.140625 Z M 28.890625 -12.4375 C 30.765625 -14.3125 31.648438 -16.535156 31.546875 -19.109375 C 31.546875 -21.722656 30.632812 -23.945312 28.8125 -25.78125 C 26.9375 -27.550781 24.710938 -28.4375 22.140625 -28.4375 C 19.523438 -28.4375 17.304688 -27.523438 15.484375 -25.703125 C 13.648438 -23.773438 12.734375 -21.550781 12.734375 -19.03125 C 12.835938 -16.363281 13.773438 -14.144531 15.546875 -12.375 C 17.378906 -10.539062 19.601562 -9.625 22.21875 -9.625 C 24.882812 -9.726562 27.109375 -10.664062 28.890625 -12.4375 Z M 28.890625 -12.4375 "/></g></g><g style="fill:#0f172a;fill-opacity:1;"><g transform="translate(760.392805, 203.464594)"><path style="stroke:none" d="M 29.703125 -38.140625 L 29.703125 -27.78125 L 21.1875 -27.78125 L 21.1875 0 L 10.8125 0 L 10.8125 -27.78125 L 2.21875 -27.78125 L 2.21875 -38.140625 L 10.8125 -38.140625 L 10.8125 -51.46875 L 21.1875 -51.46875 L 21.1875 -38.140625 Z M 29.703125 -38.140625 "/></g></g><g style="fill:#0f172a;fill-opacity:1;"><g transform="translate(790.091904, 203.464594)"><path style="stroke:none" d="M 19.78125 -38.140625 C 25.0625 -38.191406 29.550781 -36.363281 33.25 -32.65625 C 37.007812 -28.90625 38.890625 -24.414062 38.890625 -19.1875 C 38.929688 -13.894531 37.101562 -9.398438 33.40625 -5.703125 C 29.695312 -1.953125 25.226562 -0.0507812 20 0 C 14.71875 0.0507812 10.195312 -1.773438 6.4375 -5.484375 C 2.6875 -9.179688 0.8125 -13.671875 0.8125 -18.953125 C 0.757812 -24.242188 2.585938 -28.738281 6.296875 -32.4375 C 9.992188 -36.1875 14.488281 -38.085938 19.78125 -38.140625 Z M 26.515625 -12.4375 C 28.335938 -14.269531 29.25 -16.492188 29.25 -19.109375 C 29.25 -21.671875 28.3125 -23.894531 26.4375 -25.78125 C 24.5625 -27.550781 22.34375 -28.4375 19.78125 -28.4375 C 17.207031 -28.4375 15.007812 -27.523438 13.1875 -25.703125 C 11.351562 -23.773438 10.4375 -21.550781 10.4375 -19.03125 C 10.4375 -16.46875 11.375 -14.25 13.25 -12.375 C 15.082031 -10.539062 17.304688 -9.625 19.921875 -9.625 C 22.585938 -9.726562 24.785156 -10.664062 26.515625 -12.4375 Z M 26.515625 -12.4375 "/></g></g><g style="fill:#ea580c;fill-opacity:1;"><g transform="translate(827.20309, 203.464594)"><path style="stroke:none" d="M 38.515625 -26.953125 C 39.503906 -26.515625 40.488281 -25.628906 41.46875 -24.296875 C 43.445312 -21.679688 44.4375 -18.195312 44.4375 -13.84375 C 44.4375 -8.5625 42.140625 -4.660156 37.546875 -2.140625 C 35.222656 -0.910156 32.90625 -0.195312 30.59375 0 L 4.4375 0 L 4.4375 -48.140625 L 26.734375 -48.140625 C 28.566406 -48.140625 30.519531 -47.742188 32.59375 -46.953125 C 36.6875 -45.367188 39.300781 -42.628906 40.4375 -38.734375 C 41.28125 -35.921875 41.207031 -33.109375 40.21875 -30.296875 C 39.71875 -28.910156 39.148438 -27.796875 38.515625 -26.953125 Z M 16 -39.171875 L 16 -28.4375 L 26.296875 -28.4375 C 27.773438 -28.4375 29.054688 -28.957031 30.140625 -30 C 31.179688 -31.03125 31.703125 -32.285156 31.703125 -33.765625 C 31.703125 -35.296875 31.179688 -36.582031 30.140625 -37.625 C 29.054688 -38.65625 27.773438 -39.171875 26.296875 -39.171875 Z M 35.40625 -14.21875 C 35.40625 -15.695312 34.882812 -16.984375 33.84375 -18.078125 C 32.8125 -19.109375 31.550781 -19.625 30.0625 -19.625 L 16 -19.625 L 16 -8.890625 L 30.0625 -8.890625 C 31.550781 -8.890625 32.8125 -9.40625 33.84375 -10.4375 C 34.882812 -11.476562 35.40625 -12.738281 35.40625 -14.21875 Z M 35.40625 -14.21875 "/></g></g><g style="fill:#ea580c;fill-opacity:1;"><g transform="translate(873.862515, 203.464594)"><path style="stroke:none" d="M 38.953125 -17.40625 C 39.003906 -16.363281 39.003906 -15.742188 38.953125 -15.546875 L 11.109375 -15.625 C 11.503906 -14.488281 12.21875 -13.40625 13.25 -12.375 C 15.175781 -10.539062 17.398438 -9.625 19.921875 -9.625 C 22.585938 -9.726562 24.8125 -10.664062 26.59375 -12.4375 L 26.890625 -12.734375 L 36.515625 -9.703125 C 34.390625 -6.390625 32.164062 -4.019531 29.84375 -2.59375 C 27.226562 -0.914062 23.945312 -0.0507812 20 0 C 14.757812 0.0507812 10.265625 -1.773438 6.515625 -5.484375 C 2.765625 -9.179688 0.863281 -13.671875 0.8125 -18.953125 C 0.757812 -24.191406 2.585938 -28.6875 6.296875 -32.4375 C 9.992188 -36.1875 14.488281 -38.085938 19.78125 -38.140625 C 25.007812 -38.191406 29.5 -36.363281 33.25 -32.65625 C 37.007812 -28.957031 38.910156 -24.46875 38.953125 -19.1875 Z M 19.84375 -28.4375 C 17.226562 -28.4375 15.007812 -27.523438 13.1875 -25.703125 C 12.25 -24.660156 11.582031 -23.625 11.1875 -22.59375 L 28.59375 -22.59375 C 28.195312 -23.625 27.503906 -24.6875 26.515625 -25.78125 C 24.640625 -27.550781 22.414062 -28.4375 19.84375 -28.4375 Z M 19.84375 -28.4375 "/></g></g><g style="fill:#ea580c;fill-opacity:1;"><g transform="translate(911.04193, 203.464594)"><path style="stroke:none" d="M 29.703125 -38.140625 L 29.703125 -27.78125 L 21.1875 -27.78125 L 21.1875 0 L 10.8125 0 L 10.8125 -27.78125 L 2.21875 -27.78125 L 2.21875 -38.140625 L 10.8125 -38.140625 L 10.8125 -51.46875 L 21.1875 -51.46875 L 21.1875 -38.140625 Z M 29.703125 -38.140625 "/></g></g><g clip-rule="nonzero" clip-path="url(#79bf538227)"><g clip-rule="nonzero" clip-path="url(#53a272b924)"><path style="fill:none;stroke-width:12;stroke-linecap:butt;stroke-linejoin:miter;stroke:#ffffff;stroke-opacity:1;stroke-miterlimit:4;" d="M 75.42028 0.000264908 C 33.769236 0.000264908 -0.00159906 33.765892 -0.00159906 75.422144 C -0.00159906 117.078396 33.769236 150.844022 75.42028 150.844022 C 117.076532 150.844022 150.842159 117.078396 150.842159 75.422144 C 150.842159 33.765892 117.076532 0.000264908 75.42028 0.000264908 Z M 75.42028 0.000264908 " transform="matrix(0.75,0,0,0.75,475.610574,259.019333)"/></g></g><path style=" stroke:none;fill-rule:nonzero;fill:#ea580c;fill-opacity:1;" d="M 532.042969 302.691406 L 519.71875 315.019531 C 517.785156 316.953125 517.785156 320.097656 519.71875 322.027344 C 521.648438 323.960938 524.796875 323.960938 526.726562 322.027344 L 530.675781 318.078125 C 531.417969 317.28125 532.671875 317.28125 533.410156 318.078125 L 537.359375 322.027344 C 539.292969 323.960938 542.4375 323.960938 544.371094 322.027344 C 546.300781 320.097656 546.300781 316.953125 544.371094 315.019531 Z M 532.042969 302.691406 "/><path style=" stroke:none;fill-rule:nonzero;fill:#ea580c;fill-opacity:1;" d="M 532.042969 282.769531 C 514.023438 282.769531 499.359375 297.429688 499.359375 315.453125 C 499.359375 333.476562 514.023438 348.136719 532.042969 348.136719 C 550.066406 348.136719 564.726562 333.476562 564.726562 315.453125 C 564.726562 297.429688 550.066406 282.769531 532.042969 282.769531 Z M 547.011719 324.671875 C 543.621094 328.058594 538.109375 328.058594 534.71875 324.671875 L 533.910156 323.863281 L 533.910156 330.855469 C 533.910156 331.886719 533.074219 332.722656 532.042969 332.722656 C 531.011719 332.722656 530.175781 331.886719 530.175781 330.855469 L 530.175781 323.863281 L 529.367188 324.671875 C 525.980469 328.058594 520.464844 328.058594 517.078125 324.671875 C 513.6875 321.28125 513.6875 315.769531 517.074219 312.378906 L 530.722656 298.730469 C 531.453125 298 532.636719 298 533.363281 298.730469 L 547.011719 312.378906 C 550.398438 315.769531 550.398438 321.285156 547.011719 324.671875 Z M 547.011719 324.671875 "/><g clip-rule="nonzero" clip-path="url(#407fb37ace)"><path style=" stroke:none;fill-rule:nonzero;fill:#ea580c;fill-opacity:1;" d="M 532.042969 267.828125 C 505.722656 267.828125 484.417969 289.128906 484.417969 315.453125 C 484.417969 341.773438 505.71875 363.078125 532.042969 363.078125 C 558.363281 363.078125 579.667969 341.777344 579.667969 315.453125 C 579.667969 289.132812 558.367188 267.828125 532.042969 267.828125 Z M 555.980469 278.683594 C 561.09375 282.023438 565.472656 286.402344 568.816406 291.519531 C 567.226562 292.257812 565.328125 291.949219 564.054688 290.679688 L 556.820312 283.441406 C 555.535156 282.15625 555.257812 280.242188 555.980469 278.683594 Z M 541.132812 272.511719 C 540.542969 274.136719 538.984375 275.296875 537.160156 275.296875 L 526.925781 275.296875 C 525.101562 275.296875 523.546875 274.136719 522.957031 272.511719 C 528.796875 271.277344 535.003906 271.214844 541.132812 272.511719 Z M 508.109375 278.683594 C 508.832031 280.242188 508.554688 282.15625 507.269531 283.441406 L 500.03125 290.679688 C 498.761719 291.949219 496.867188 292.261719 495.273438 291.519531 C 498.613281 286.402344 502.992188 282.023438 508.109375 278.683594 Z M 489.101562 306.367188 C 490.726562 306.953125 491.890625 308.511719 491.890625 310.335938 L 491.890625 320.570312 C 491.890625 322.394531 490.726562 323.953125 489.101562 324.539062 C 487.867188 318.699219 487.808594 312.492188 489.101562 306.367188 Z M 508.109375 352.222656 C 502.992188 348.882812 498.613281 344.503906 495.273438 339.386719 C 496.835938 338.664062 498.746094 338.941406 500.03125 340.226562 L 507.269531 347.464844 C 508.554688 348.75 508.832031 350.664062 508.109375 352.222656 Z M 522.957031 358.394531 C 523.546875 356.769531 525.101562 355.605469 526.925781 355.605469 L 537.160156 355.605469 C 538.984375 355.605469 540.542969 356.769531 541.132812 358.394531 C 535.277344 359.632812 529.070312 359.6875 522.957031 358.394531 Z M 555.980469 352.222656 C 555.257812 350.664062 555.535156 348.75 556.820312 347.464844 L 564.054688 340.226562 C 565.339844 338.941406 567.253906 338.664062 568.816406 339.386719 C 565.472656 344.503906 561.09375 348.882812 555.980469 352.222656 Z M 570.730469 336.164062 C 567.730469 334.59375 563.933594 335.070312 561.414062 337.585938 L 554.175781 344.824219 C 551.660156 347.339844 551.1875 351.140625 552.753906 354.140625 C 550.226562 355.5 547.550781 356.617188 544.757812 357.460938 C 543.75 354.226562 540.726562 351.871094 537.160156 351.871094 L 526.925781 351.871094 C 523.363281 351.871094 520.339844 354.226562 519.328125 357.460938 C 516.539062 356.617188 513.863281 355.5 511.332031 354.140625 C 512.902344 351.140625 512.425781 347.339844 509.910156 344.824219 L 502.671875 337.585938 C 500.15625 335.070312 496.359375 334.59375 493.355469 336.164062 C 492 333.636719 490.882812 330.960938 490.035156 328.167969 C 493.269531 327.15625 495.625 324.132812 495.625 320.570312 L 495.625 310.335938 C 495.625 306.773438 493.269531 303.75 490.035156 302.738281 C 490.882812 299.945312 492 297.273438 493.355469 294.746094 C 496.316406 296.300781 500.121094 295.871094 502.671875 293.320312 L 509.910156 286.082031 C 512.425781 283.566406 512.902344 279.765625 511.332031 276.765625 C 513.863281 275.40625 516.539062 274.289062 519.328125 273.445312 C 520.339844 276.679688 523.363281 279.035156 526.925781 279.035156 L 537.160156 279.035156 C 540.726562 279.035156 543.75 276.679688 544.757812 273.445312 C 547.550781 274.289062 550.226562 275.40625 552.753906 276.765625 C 551.1875 279.765625 551.660156 283.566406 554.175781 286.082031 L 561.414062 293.320312 C 563.964844 295.871094 567.765625 296.300781 570.730469 294.746094 C 572.089844 297.273438 573.207031 299.945312 574.054688 302.738281 C 570.816406 303.75 568.464844 306.773438 568.464844 310.335938 L 568.464844 320.570312 C 568.464844 324.132812 570.816406 327.15625 574.054688 328.167969 C 573.207031 330.960938 572.089844 333.636719 570.730469 336.164062 Z M 572.199219 320.570312 L 572.199219 310.335938 C 572.199219 308.511719 573.363281 306.953125 574.984375 306.367188 C 576.21875 312.207031 576.28125 318.414062 574.984375 324.539062 C 573.363281 323.953125 572.199219 322.394531 572.199219 320.570312 Z M 572.199219 320.570312 "/></g><g clip-rule="nonzero" clip-path="url(#cace707359)"><g clip-rule="nonzero" clip-path="url(#e50d8f9a42)"><path style=" stroke:none;fill-rule:nonzero;fill:#ea580c;fill-opacity:1;" d="M 510.300781 293.710938 L 554.058594 293.710938 L 554.058594 337.46875 L 510.300781 337.46875 Z M 510.300781 293.710938 "/></g></g><g style="fill:#ffffff;fill-opacity:1;"><g transform="translate(516.382012, 332.559945)"><path style="stroke:none" d="M 36.75 -27.671875 C 36.75 -25.816406 36.171875 -24.164062 35.015625 -22.71875 C 33.867188 -21.28125 32.359375 -20.066406 30.484375 -19.078125 C 28.609375 -18.097656 26.609375 -17.328125 24.484375 -16.765625 C 26.003906 -16.117188 27.289062 -15.21875 28.34375 -14.0625 C 29.40625 -12.90625 29.9375 -11.492188 29.9375 -9.828125 C 29.9375 -8.503906 29.566406 -7.175781 28.828125 -5.84375 C 28.085938 -4.519531 27.054688 -3.316406 25.734375 -2.234375 C 24.410156 -1.160156 22.875 -0.296875 21.125 0.359375 C 19.382812 1.023438 17.492188 1.359375 15.453125 1.359375 C 13.628906 1.359375 12.1875 1.101562 11.125 0.59375 C 10.070312 0.0820312 9.296875 -0.566406 8.796875 -1.359375 C 8.304688 -2.160156 7.988281 -2.976562 7.84375 -3.8125 C 7.382812 -2.820312 6.992188 -1.910156 6.671875 -1.078125 C 6.347656 -0.242188 6.113281 0.492188 5.96875 1.140625 C 5.851562 1.515625 5.566406 1.703125 5.109375 1.703125 C 4.617188 1.703125 4.050781 1.507812 3.40625 1.125 C 2.757812 0.75 2.207031 0.195312 1.75 -0.53125 C 1.300781 -1.269531 1.097656 -2.132812 1.140625 -3.125 C 1.171875 -4 1.535156 -5.285156 2.234375 -6.984375 C 2.941406 -8.691406 3.863281 -10.59375 5 -12.6875 C 6.132812 -14.789062 7.382812 -16.929688 8.75 -19.109375 C 10.113281 -21.296875 11.484375 -23.332031 12.859375 -25.21875 C 14.242188 -27.113281 15.523438 -28.671875 16.703125 -29.890625 C 14.460938 -29.242188 12.300781 -28.503906 10.21875 -27.671875 C 8.144531 -26.835938 6.3125 -26.0625 4.71875 -25.34375 C 4.332031 -25.144531 4.046875 -25.046875 3.859375 -25.046875 C 3.296875 -25.046875 3.015625 -25.460938 3.015625 -26.296875 C 3.015625 -27.359375 3.503906 -28.375 4.484375 -29.34375 C 5.472656 -30.3125 6.769531 -31.203125 8.375 -32.015625 C 9.988281 -32.828125 11.78125 -33.535156 13.75 -34.140625 C 15.71875 -34.742188 17.695312 -35.21875 19.6875 -35.5625 C 21.675781 -35.90625 23.519531 -36.078125 25.21875 -36.078125 C 27.601562 -36.078125 29.65625 -35.707031 31.375 -34.96875 C 33.101562 -34.226562 34.429688 -33.222656 35.359375 -31.953125 C 36.285156 -30.679688 36.75 -29.253906 36.75 -27.671875 Z M 15.625 -18.34375 C 17.21875 -18.65625 18.929688 -19.113281 20.765625 -19.71875 C 22.597656 -20.320312 24.316406 -21.054688 25.921875 -21.921875 C 27.535156 -22.796875 28.863281 -23.765625 29.90625 -24.828125 C 30.945312 -25.890625 31.46875 -27.046875 31.46875 -28.296875 C 31.46875 -30.378906 29.632812 -31.421875 25.96875 -31.421875 C 24.675781 -31.421875 23.3125 -31.304688 21.875 -31.078125 C 22.175781 -30.804688 22.421875 -30.507812 22.609375 -30.1875 C 22.796875 -29.875 22.890625 -29.582031 22.890625 -29.3125 C 22.890625 -29.082031 22.816406 -28.894531 22.671875 -28.75 C 21.765625 -27.6875 20.691406 -26.234375 19.453125 -24.390625 C 18.222656 -22.554688 16.945312 -20.539062 15.625 -18.34375 Z M 13.6875 -3.984375 C 14.9375 -3.984375 16.195312 -4.21875 17.46875 -4.6875 C 18.738281 -5.15625 19.898438 -5.773438 20.953125 -6.546875 C 22.015625 -7.328125 22.867188 -8.171875 23.515625 -9.078125 C 24.160156 -9.992188 24.484375 -10.890625 24.484375 -11.765625 C 24.484375 -12.742188 24.054688 -13.507812 23.203125 -14.0625 C 22.347656 -14.613281 21.109375 -14.890625 19.484375 -14.890625 C 18.421875 -14.890625 17.359375 -14.785156 16.296875 -14.578125 C 15.242188 -14.367188 14.109375 -14.070312 12.890625 -13.6875 C 12.328125 -12.625 11.769531 -11.582031 11.21875 -10.5625 C 10.664062 -9.539062 10.144531 -8.539062 9.65625 -7.5625 C 9.613281 -7.445312 9.59375 -7.296875 9.59375 -7.109375 C 9.59375 -6.160156 9.929688 -5.398438 10.609375 -4.828125 C 11.296875 -4.265625 12.320312 -3.984375 13.6875 -3.984375 Z M 13.6875 -3.984375 "/></g></g><g style="fill:#ffffff;fill-opacity:1;"><g transform="translate(609.691382, 338.839016)"><path style="stroke:none" d="M 43 -6.0625 C 38.3125 -2.164062 32.957031 -0.21875 26.9375 -0.21875 C 20.125 -0.21875 14.300781 -2.632812 9.46875 -7.46875 C 4.632812 -12.300781 2.21875 -18.125 2.21875 -24.9375 C 2.21875 -31.789062 4.632812 -37.632812 9.46875 -42.46875 C 14.300781 -47.3125 20.125 -49.734375 26.9375 -49.734375 C 33 -49.734375 38.351562 -47.757812 43 -43.8125 L 35.59375 -36.484375 C 33.070312 -38.410156 30.1875 -39.375 26.9375 -39.375 C 22.988281 -39.375 19.609375 -37.96875 16.796875 -35.15625 C 13.984375 -32.34375 12.578125 -28.9375 12.578125 -24.9375 C 12.578125 -20.988281 13.984375 -17.609375 16.796875 -14.796875 C 19.609375 -11.984375 22.988281 -10.578125 26.9375 -10.578125 C 30.1875 -10.578125 33.070312 -11.539062 35.59375 -13.46875 Z M 43 -6.0625 "/></g></g><g style="fill:#ffffff;fill-opacity:1;"><g transform="translate(654.086548, 338.839016)"><path style="stroke:none" d="M 12.578125 -32.40625 C 13.421875 -34.78125 14.828125 -36.4375 16.796875 -37.375 C 18.722656 -38.3125 21.609375 -38.78125 25.453125 -38.78125 L 25.453125 -28.1875 C 21.703125 -28.1875 18.570312 -26.90625 16.0625 -24.34375 C 13.738281 -22.070312 12.578125 -19.582031 12.578125 -16.875 L 12.578125 0 L 2.21875 0 L 2.21875 -38.109375 L 12.578125 -38.109375 Z M 12.578125 -32.40625 "/></g></g><g style="fill:#ffffff;fill-opacity:1;"><g transform="translate(680.649726, 338.839016)"><path style="stroke:none" d="M 38.109375 -38.1875 L 23.09375 1.703125 C 21.457031 5.648438 18.863281 8.78125 15.3125 11.09375 C 11.757812 13.414062 7.890625 14.53125 3.703125 14.4375 L 3.703125 4.0625 C 5.234375 4.113281 6.757812 3.796875 8.28125 3.109375 C 10.457031 2.117188 12.085938 0.566406 13.171875 -1.546875 L 15.25 -7.25 L 2.21875 -38.1875 L 13.609375 -38.1875 L 20.5 -21.53125 L 26.640625 -38.1875 Z M 38.109375 -38.1875 "/></g></g><g style="fill:#ffffff;fill-opacity:1;"><g transform="translate(720.605454, 338.839016)"><path style="stroke:none" d="M 22.046875 -38.109375 C 27.273438 -38.160156 31.765625 -36.335938 35.515625 -32.640625 C 39.265625 -28.929688 41.164062 -24.441406 41.21875 -19.171875 C 41.269531 -13.941406 39.441406 -9.453125 35.734375 -5.703125 C 32.035156 -1.953125 27.550781 -0.0507812 22.28125 0 C 17.988281 0 14.753906 -1.351562 12.578125 -4.0625 L 12.578125 14.203125 L 2.21875 14.203125 L 2.21875 -38.03125 L 12.578125 -38.03125 L 12.578125 -34.046875 C 14.597656 -36.660156 17.753906 -38.015625 22.046875 -38.109375 Z M 28.859375 -12.4375 C 30.734375 -14.3125 31.625 -16.53125 31.53125 -19.09375 C 31.53125 -21.707031 30.613281 -23.925781 28.78125 -25.75 C 26.90625 -27.53125 24.6875 -28.421875 22.125 -28.421875 C 19.507812 -28.421875 17.289062 -27.503906 15.46875 -25.671875 C 13.644531 -23.753906 12.734375 -21.535156 12.734375 -19.015625 C 12.828125 -16.347656 13.765625 -14.128906 15.546875 -12.359375 C 17.367188 -10.535156 19.585938 -9.625 22.203125 -9.625 C 24.867188 -9.71875 27.085938 -10.65625 28.859375 -12.4375 Z M 28.859375 -12.4375 "/></g></g><g style="fill:#ffffff;fill-opacity:1;"><g transform="translate(760.413119, 338.839016)"><path style="stroke:none" d="M 29.671875 -38.109375 L 29.671875 -27.75 L 21.15625 -27.75 L 21.15625 0 L 10.796875 0 L 10.796875 -27.75 L 2.21875 -27.75 L 2.21875 -38.109375 L 10.796875 -38.109375 L 10.796875 -51.4375 L 21.15625 -51.4375 L 21.15625 -38.109375 Z M 29.671875 -38.109375 "/></g></g><g style="fill:#ffffff;fill-opacity:1;"><g transform="translate(790.083882, 338.839016)"><path style="stroke:none" d="M 19.765625 -38.109375 C 25.035156 -38.160156 29.519531 -36.335938 33.21875 -32.640625 C 36.96875 -28.890625 38.84375 -24.398438 38.84375 -19.171875 C 38.894531 -13.890625 37.070312 -9.398438 33.375 -5.703125 C 29.675781 -1.953125 25.210938 -0.0507812 19.984375 0 C 14.703125 0.0507812 10.1875 -1.769531 6.4375 -5.46875 C 2.6875 -9.175781 0.8125 -13.664062 0.8125 -18.9375 C 0.757812 -24.21875 2.585938 -28.707031 6.296875 -32.40625 C 9.992188 -36.15625 14.484375 -38.054688 19.765625 -38.109375 Z M 26.484375 -12.4375 C 28.316406 -14.257812 29.234375 -16.476562 29.234375 -19.09375 C 29.234375 -21.65625 28.296875 -23.875 26.421875 -25.75 C 24.546875 -27.53125 22.328125 -28.421875 19.765625 -28.421875 C 17.191406 -28.421875 14.992188 -27.503906 13.171875 -25.671875 C 11.347656 -23.753906 10.4375 -21.535156 10.4375 -19.015625 C 10.4375 -16.453125 11.375 -14.234375 13.25 -12.359375 C 15.070312 -10.535156 17.289062 -9.625 19.90625 -9.625 C 22.570312 -9.71875 24.765625 -10.65625 26.484375 -12.4375 Z M 26.484375 -12.4375 "/></g></g><g style="fill:#ea580c;fill-opacity:1;"><g transform="translate(827.156215, 338.839016)"><path style="stroke:none" d="M 38.484375 -26.9375 C 39.460938 -26.488281 40.445312 -25.597656 41.4375 -24.265625 C 43.414062 -21.648438 44.40625 -18.175781 44.40625 -13.84375 C 44.40625 -8.5625 42.109375 -4.660156 37.515625 -2.140625 C 35.203125 -0.910156 32.882812 -0.195312 30.5625 0 L 4.4375 0 L 4.4375 -48.09375 L 26.71875 -48.09375 C 28.539062 -48.09375 30.488281 -47.703125 32.5625 -46.921875 C 36.65625 -45.335938 39.269531 -42.597656 40.40625 -38.703125 C 41.238281 -35.890625 41.164062 -33.078125 40.1875 -30.265625 C 39.6875 -28.878906 39.117188 -27.769531 38.484375 -26.9375 Z M 15.984375 -39.140625 L 15.984375 -28.421875 L 26.265625 -28.421875 C 27.742188 -28.421875 29.03125 -28.9375 30.125 -29.96875 C 31.15625 -31.007812 31.671875 -32.269531 31.671875 -33.75 C 31.671875 -35.269531 31.15625 -36.550781 30.125 -37.59375 C 29.03125 -38.625 27.742188 -39.140625 26.265625 -39.140625 Z M 35.375 -14.203125 C 35.375 -15.679688 34.851562 -16.96875 33.8125 -18.0625 C 32.78125 -19.09375 31.523438 -19.609375 30.046875 -19.609375 L 15.984375 -19.609375 L 15.984375 -8.875 L 30.046875 -8.875 C 31.523438 -8.875 32.78125 -9.394531 33.8125 -10.4375 C 34.851562 -11.46875 35.375 -12.722656 35.375 -14.203125 Z M 35.375 -14.203125 "/></g></g><g style="fill:#ea580c;fill-opacity:1;"><g transform="translate(873.77126, 338.839016)"><path style="stroke:none" d="M 38.921875 -17.390625 C 38.972656 -16.359375 38.972656 -15.742188 38.921875 -15.546875 L 11.09375 -15.609375 C 11.488281 -14.472656 12.207031 -13.390625 13.25 -12.359375 C 15.164062 -10.535156 17.382812 -9.625 19.90625 -9.625 C 22.570312 -9.71875 24.789062 -10.65625 26.5625 -12.4375 L 26.859375 -12.734375 L 36.484375 -9.6875 C 34.359375 -6.382812 32.140625 -4.019531 29.828125 -2.59375 C 27.210938 -0.914062 23.929688 -0.0507812 19.984375 0 C 14.753906 0.0507812 10.265625 -1.769531 6.515625 -5.46875 C 2.765625 -9.175781 0.863281 -13.664062 0.8125 -18.9375 C 0.757812 -24.164062 2.585938 -28.65625 6.296875 -32.40625 C 9.992188 -36.15625 14.484375 -38.054688 19.765625 -38.109375 C 24.992188 -38.160156 29.476562 -36.335938 33.21875 -32.640625 C 36.96875 -28.929688 38.867188 -24.441406 38.921875 -19.171875 Z M 19.828125 -28.421875 C 17.210938 -28.421875 14.992188 -27.503906 13.171875 -25.671875 C 12.234375 -24.640625 11.566406 -23.601562 11.171875 -22.5625 L 28.5625 -22.5625 C 28.164062 -23.601562 27.472656 -24.664062 26.484375 -25.75 C 24.617188 -27.53125 22.398438 -28.421875 19.828125 -28.421875 Z M 19.828125 -28.421875 "/></g></g><g style="fill:#ea580c;fill-opacity:1;"><g transform="translate(910.91521, 338.839016)"><path style="stroke:none" d="M 29.671875 -38.109375 L 29.671875 -27.75 L 21.15625 -27.75 L 21.15625 0 L 10.796875 0 L 10.796875 -27.75 L 2.21875 -27.75 L 2.21875 -38.109375 L 10.796875 -38.109375 L 10.796875 -51.4375 L 21.15625 -51.4375 L 21.15625 -38.109375 Z M 29.671875 -38.109375 "/></g></g><g clip-rule="nonzero" clip-path="url(#5f617d9f9e)"><g clip-rule="nonzero" clip-path="url(#95c09eaf66)"><path style="fill:none;stroke-width:13.630732;stroke-linecap:butt;stroke-linejoin:miter;stroke:#0f172a;stroke-opacity:1;stroke-miterlimit:4;" d="M 85.669734 0.00196466 C 38.358292 0.00196466 -0.00185644 38.356185 -0.00185644 85.673555 C -0.00185644 132.984997 38.358292 171.345145 85.669734 171.345145 C 132.987104 171.345145 171.341324 132.984997 171.341324 85.673555 C 171.341324 38.356185 132.987104 0.00196466 85.669734 0.00196466 Z M 85.669734 0.00196466 " transform="matrix(0.658948,0,0,0.658948,475.610598,414.619799)"/></g></g><path style=" stroke:none;fill-rule:nonzero;fill:#0f172a;fill-opacity:1;" d="M 532.175781 458.390625 L 519.816406 470.75 C 517.878906 472.6875 517.878906 475.84375 519.816406 477.777344 C 521.753906 479.71875 524.90625 479.71875 526.84375 477.777344 L 530.804688 473.816406 C 531.546875 473.019531 532.804688 473.019531 533.546875 473.816406 L 537.507812 477.777344 C 539.445312 479.71875 542.597656 479.71875 544.535156 477.777344 C 546.472656 475.84375 546.472656 472.6875 544.535156 470.75 Z M 532.175781 458.390625 "/><path style=" stroke:none;fill-rule:nonzero;fill:#0f172a;fill-opacity:1;" d="M 532.175781 438.410156 C 514.105469 438.410156 499.402344 453.113281 499.402344 471.183594 C 499.402344 489.257812 514.105469 503.957031 532.175781 503.957031 C 550.246094 503.957031 564.949219 489.257812 564.949219 471.183594 C 564.949219 453.113281 550.246094 438.410156 532.175781 438.410156 Z M 547.183594 480.425781 C 543.785156 483.828125 538.257812 483.824219 534.859375 480.425781 L 534.046875 479.617188 L 534.046875 486.628906 C 534.046875 487.664062 533.210938 488.5 532.175781 488.5 C 531.140625 488.5 530.300781 487.664062 530.300781 486.628906 L 530.300781 479.617188 L 529.492188 480.425781 C 526.09375 483.824219 520.566406 483.824219 517.167969 480.425781 C 513.769531 477.03125 513.769531 471.5 517.164062 468.101562 L 530.851562 454.417969 C 531.582031 453.683594 532.769531 453.683594 533.5 454.417969 L 547.183594 468.101562 C 550.582031 471.5 550.582031 477.03125 547.183594 480.425781 Z M 547.183594 480.425781 "/><g clip-rule="nonzero" clip-path="url(#8f8d43fef3)"><path style=" stroke:none;fill-rule:nonzero;fill:#0f172a;fill-opacity:1;" d="M 532.175781 423.429688 C 505.78125 423.429688 484.417969 444.789062 484.417969 471.183594 C 484.417969 497.578125 505.777344 518.941406 532.175781 518.941406 C 558.570312 518.941406 579.929688 497.582031 579.929688 471.183594 C 579.929688 444.792969 558.574219 423.429688 532.175781 423.429688 Z M 556.175781 434.3125 C 561.308594 437.664062 565.699219 442.054688 569.046875 447.183594 C 567.453125 447.925781 565.550781 447.617188 564.277344 446.339844 L 557.019531 439.085938 C 555.730469 437.796875 555.453125 435.878906 556.175781 434.3125 Z M 541.289062 428.125 C 540.699219 429.753906 539.136719 430.917969 537.308594 430.917969 L 527.042969 430.917969 C 525.214844 430.917969 523.652344 429.753906 523.0625 428.125 C 528.917969 426.886719 535.144531 426.828125 541.289062 428.125 Z M 508.175781 434.3125 C 508.898438 435.878906 508.621094 437.796875 507.332031 439.085938 L 500.074219 446.339844 C 498.800781 447.613281 496.898438 447.929688 495.300781 447.183594 C 498.652344 442.054688 503.042969 437.664062 508.175781 434.3125 Z M 489.117188 462.074219 C 490.742188 462.664062 491.910156 464.222656 491.910156 466.054688 L 491.910156 476.316406 C 491.910156 478.144531 490.742188 479.707031 489.117188 480.296875 C 487.878906 474.441406 487.816406 468.214844 489.117188 462.074219 Z M 508.175781 508.054688 C 503.042969 504.707031 498.652344 500.316406 495.304688 495.183594 C 496.867188 494.460938 498.785156 494.738281 500.074219 496.027344 L 507.332031 503.285156 C 508.621094 504.574219 508.898438 506.492188 508.175781 508.054688 Z M 523.0625 514.246094 C 523.652344 512.617188 525.214844 511.449219 527.042969 511.449219 L 537.308594 511.449219 C 539.136719 511.449219 540.699219 512.617188 541.289062 514.246094 C 535.417969 515.484375 529.195312 515.539062 523.0625 514.246094 Z M 556.175781 508.054688 C 555.453125 506.492188 555.730469 504.574219 557.019531 503.285156 L 564.277344 496.027344 C 565.5625 494.738281 567.480469 494.460938 569.046875 495.183594 C 565.695312 500.316406 561.304688 504.707031 556.175781 508.054688 Z M 570.96875 491.953125 C 567.960938 490.378906 564.152344 490.855469 561.628906 493.378906 L 554.371094 500.636719 C 551.847656 503.160156 551.371094 506.96875 552.941406 509.976562 C 550.40625 511.339844 547.726562 512.460938 544.925781 513.308594 C 543.914062 510.066406 540.878906 507.703125 537.308594 507.703125 L 527.042969 507.703125 C 523.46875 507.703125 520.4375 510.066406 519.425781 513.308594 C 516.625 512.460938 513.941406 511.339844 511.40625 509.976562 C 512.980469 506.96875 512.503906 503.160156 509.980469 500.636719 L 502.722656 493.378906 C 500.199219 490.855469 496.390625 490.378906 493.382812 491.953125 C 492.019531 489.417969 490.898438 486.734375 490.050781 483.933594 C 493.292969 482.921875 495.65625 479.890625 495.65625 476.316406 L 495.65625 466.054688 C 495.65625 462.480469 493.292969 459.449219 490.050781 458.433594 C 490.898438 455.636719 492.019531 452.953125 493.382812 450.417969 C 496.351562 451.976562 500.164062 451.550781 502.722656 448.988281 L 509.980469 441.734375 C 512.503906 439.207031 512.980469 435.398438 511.40625 432.390625 C 513.941406 431.027344 516.625 429.910156 519.425781 429.058594 C 520.4375 432.304688 523.46875 434.664062 527.042969 434.664062 L 537.308594 434.664062 C 540.878906 434.664062 543.914062 432.304688 544.925781 429.058594 C 547.726562 429.910156 550.40625 431.027344 552.941406 432.390625 C 551.371094 435.398438 551.847656 439.207031 554.371094 441.734375 L 561.628906 448.988281 C 564.183594 451.546875 567.996094 451.980469 570.96875 450.417969 C 572.332031 452.953125 573.453125 455.636719 574.300781 458.433594 C 571.054688 459.449219 568.695312 462.480469 568.695312 466.054688 L 568.695312 476.316406 C 568.695312 479.890625 571.054688 482.921875 574.300781 483.933594 C 573.453125 486.734375 572.332031 489.417969 570.96875 491.953125 Z M 572.441406 476.316406 L 572.441406 466.054688 C 572.441406 464.222656 573.605469 462.664062 575.234375 462.074219 C 576.472656 467.929688 576.535156 474.152344 575.234375 480.296875 C 573.605469 479.707031 572.441406 478.144531 572.441406 476.316406 Z M 572.441406 476.316406 "/></g><g clip-rule="nonzero" clip-path="url(#39368c9a2d)"><g clip-rule="nonzero" clip-path="url(#22191ca713)"><path style=" stroke:none;fill-rule:nonzero;fill:#0f172a;fill-opacity:1;" d="M 510.300781 449.3125 L 554.058594 449.3125 L 554.058594 493.066406 L 510.300781 493.066406 Z M 510.300781 449.3125 "/></g></g><g style="fill:#ffffff;fill-opacity:1;"><g transform="translate(516.382012, 488.160421)"><path style="stroke:none" d="M 36.75 -27.671875 C 36.75 -25.816406 36.171875 -24.164062 35.015625 -22.71875 C 33.867188 -21.28125 32.359375 -20.066406 30.484375 -19.078125 C 28.609375 -18.097656 26.609375 -17.328125 24.484375 -16.765625 C 26.003906 -16.117188 27.289062 -15.21875 28.34375 -14.0625 C 29.40625 -12.90625 29.9375 -11.492188 29.9375 -9.828125 C 29.9375 -8.503906 29.566406 -7.175781 28.828125 -5.84375 C 28.085938 -4.519531 27.054688 -3.316406 25.734375 -2.234375 C 24.410156 -1.160156 22.875 -0.296875 21.125 0.359375 C 19.382812 1.023438 17.492188 1.359375 15.453125 1.359375 C 13.628906 1.359375 12.1875 1.101562 11.125 0.59375 C 10.070312 0.0820312 9.296875 -0.566406 8.796875 -1.359375 C 8.304688 -2.160156 7.988281 -2.976562 7.84375 -3.8125 C 7.382812 -2.820312 6.992188 -1.910156 6.671875 -1.078125 C 6.347656 -0.242188 6.113281 0.492188 5.96875 1.140625 C 5.851562 1.515625 5.566406 1.703125 5.109375 1.703125 C 4.617188 1.703125 4.050781 1.507812 3.40625 1.125 C 2.757812 0.75 2.207031 0.195312 1.75 -0.53125 C 1.300781 -1.269531 1.097656 -2.132812 1.140625 -3.125 C 1.171875 -4 1.535156 -5.285156 2.234375 -6.984375 C 2.941406 -8.691406 3.863281 -10.59375 5 -12.6875 C 6.132812 -14.789062 7.382812 -16.929688 8.75 -19.109375 C 10.113281 -21.296875 11.484375 -23.332031 12.859375 -25.21875 C 14.242188 -27.113281 15.523438 -28.671875 16.703125 -29.890625 C 14.460938 -29.242188 12.300781 -28.503906 10.21875 -27.671875 C 8.144531 -26.835938 6.3125 -26.0625 4.71875 -25.34375 C 4.332031 -25.144531 4.046875 -25.046875 3.859375 -25.046875 C 3.296875 -25.046875 3.015625 -25.460938 3.015625 -26.296875 C 3.015625 -27.359375 3.503906 -28.375 4.484375 -29.34375 C 5.472656 -30.3125 6.769531 -31.203125 8.375 -32.015625 C 9.988281 -32.828125 11.78125 -33.535156 13.75 -34.140625 C 15.71875 -34.742188 17.695312 -35.21875 19.6875 -35.5625 C 21.675781 -35.90625 23.519531 -36.078125 25.21875 -36.078125 C 27.601562 -36.078125 29.65625 -35.707031 31.375 -34.96875 C 33.101562 -34.226562 34.429688 -33.222656 35.359375 -31.953125 C 36.285156 -30.679688 36.75 -29.253906 36.75 -27.671875 Z M 15.625 -18.34375 C 17.21875 -18.65625 18.929688 -19.113281 20.765625 -19.71875 C 22.597656 -20.320312 24.316406 -21.054688 25.921875 -21.921875 C 27.535156 -22.796875 28.863281 -23.765625 29.90625 -24.828125 C 30.945312 -25.890625 31.46875 -27.046875 31.46875 -28.296875 C 31.46875 -30.378906 29.632812 -31.421875 25.96875 -31.421875 C 24.675781 -31.421875 23.3125 -31.304688 21.875 -31.078125 C 22.175781 -30.804688 22.421875 -30.507812 22.609375 -30.1875 C 22.796875 -29.875 22.890625 -29.582031 22.890625 -29.3125 C 22.890625 -29.082031 22.816406 -28.894531 22.671875 -28.75 C 21.765625 -27.6875 20.691406 -26.234375 19.453125 -24.390625 C 18.222656 -22.554688 16.945312 -20.539062 15.625 -18.34375 Z M 13.6875 -3.984375 C 14.9375 -3.984375 16.195312 -4.21875 17.46875 -4.6875 C 18.738281 -5.15625 19.898438 -5.773438 20.953125 -6.546875 C 22.015625 -7.328125 22.867188 -8.171875 23.515625 -9.078125 C 24.160156 -9.992188 24.484375 -10.890625 24.484375 -11.765625 C 24.484375 -12.742188 24.054688 -13.507812 23.203125 -14.0625 C 22.347656 -14.613281 21.109375 -14.890625 19.484375 -14.890625 C 18.421875 -14.890625 17.359375 -14.785156 16.296875 -14.578125 C 15.242188 -14.367188 14.109375 -14.070312 12.890625 -13.6875 C 12.328125 -12.625 11.769531 -11.582031 11.21875 -10.5625 C 10.664062 -9.539062 10.144531 -8.539062 9.65625 -7.5625 C 9.613281 -7.445312 9.59375 -7.296875 9.59375 -7.109375 C 9.59375 -6.160156 9.929688 -5.398438 10.609375 -4.828125 C 11.296875 -4.265625 12.320312 -3.984375 13.6875 -3.984375 Z M 13.6875 -3.984375 "/></g></g><g style="fill:#0f172a;fill-opacity:1;"><g transform="translate(609.691382, 495.689035)"><path style="stroke:none" d="M 43 -6.0625 C 38.3125 -2.164062 32.957031 -0.21875 26.9375 -0.21875 C 20.125 -0.21875 14.300781 -2.632812 9.46875 -7.46875 C 4.632812 -12.300781 2.21875 -18.125 2.21875 -24.9375 C 2.21875 -31.789062 4.632812 -37.632812 9.46875 -42.46875 C 14.300781 -47.3125 20.125 -49.734375 26.9375 -49.734375 C 33 -49.734375 38.351562 -47.757812 43 -43.8125 L 35.59375 -36.484375 C 33.070312 -38.410156 30.1875 -39.375 26.9375 -39.375 C 22.988281 -39.375 19.609375 -37.96875 16.796875 -35.15625 C 13.984375 -32.34375 12.578125 -28.9375 12.578125 -24.9375 C 12.578125 -20.988281 13.984375 -17.609375 16.796875 -14.796875 C 19.609375 -11.984375 22.988281 -10.578125 26.9375 -10.578125 C 30.1875 -10.578125 33.070312 -11.539062 35.59375 -13.46875 Z M 43 -6.0625 "/></g></g><g style="fill:#0f172a;fill-opacity:1;"><g transform="translate(654.086548, 495.689035)"><path style="stroke:none" d="M 12.578125 -32.40625 C 13.421875 -34.78125 14.828125 -36.4375 16.796875 -37.375 C 18.722656 -38.3125 21.609375 -38.78125 25.453125 -38.78125 L 25.453125 -28.1875 C 21.703125 -28.1875 18.570312 -26.90625 16.0625 -24.34375 C 13.738281 -22.070312 12.578125 -19.582031 12.578125 -16.875 L 12.578125 0 L 2.21875 0 L 2.21875 -38.109375 L 12.578125 -38.109375 Z M 12.578125 -32.40625 "/></g></g><g style="fill:#0f172a;fill-opacity:1;"><g transform="translate(680.649726, 495.689035)"><path style="stroke:none" d="M 38.109375 -38.1875 L 23.09375 1.703125 C 21.457031 5.648438 18.863281 8.78125 15.3125 11.09375 C 11.757812 13.414062 7.890625 14.53125 3.703125 14.4375 L 3.703125 4.0625 C 5.234375 4.113281 6.757812 3.796875 8.28125 3.109375 C 10.457031 2.117188 12.085938 0.566406 13.171875 -1.546875 L 15.25 -7.25 L 2.21875 -38.1875 L 13.609375 -38.1875 L 20.5 -21.53125 L 26.640625 -38.1875 Z M 38.109375 -38.1875 "/></g></g><g style="fill:#0f172a;fill-opacity:1;"><g transform="translate(720.605454, 495.689035)"><path style="stroke:none" d="M 22.046875 -38.109375 C 27.273438 -38.160156 31.765625 -36.335938 35.515625 -32.640625 C 39.265625 -28.929688 41.164062 -24.441406 41.21875 -19.171875 C 41.269531 -13.941406 39.441406 -9.453125 35.734375 -5.703125 C 32.035156 -1.953125 27.550781 -0.0507812 22.28125 0 C 17.988281 0 14.753906 -1.351562 12.578125 -4.0625 L 12.578125 14.203125 L 2.21875 14.203125 L 2.21875 -38.03125 L 12.578125 -38.03125 L 12.578125 -34.046875 C 14.597656 -36.660156 17.753906 -38.015625 22.046875 -38.109375 Z M 28.859375 -12.4375 C 30.734375 -14.3125 31.625 -16.53125 31.53125 -19.09375 C 31.53125 -21.707031 30.613281 -23.925781 28.78125 -25.75 C 26.90625 -27.53125 24.6875 -28.421875 22.125 -28.421875 C 19.507812 -28.421875 17.289062 -27.503906 15.46875 -25.671875 C 13.644531 -23.753906 12.734375 -21.535156 12.734375 -19.015625 C 12.828125 -16.347656 13.765625 -14.128906 15.546875 -12.359375 C 17.367188 -10.535156 19.585938 -9.625 22.203125 -9.625 C 24.867188 -9.71875 27.085938 -10.65625 28.859375 -12.4375 Z M 28.859375 -12.4375 "/></g></g><g style="fill:#0f172a;fill-opacity:1;"><g transform="translate(760.413119, 495.689035)"><path style="stroke:none" d="M 29.671875 -38.109375 L 29.671875 -27.75 L 21.15625 -27.75 L 21.15625 0 L 10.796875 0 L 10.796875 -27.75 L 2.21875 -27.75 L 2.21875 -38.109375 L 10.796875 -38.109375 L 10.796875 -51.4375 L 21.15625 -51.4375 L 21.15625 -38.109375 Z M 29.671875 -38.109375 "/></g></g><g style="fill:#0f172a;fill-opacity:1;"><g transform="translate(790.083882, 495.689035)"><path style="stroke:none" d="M 19.765625 -38.109375 C 25.035156 -38.160156 29.519531 -36.335938 33.21875 -32.640625 C 36.96875 -28.890625 38.84375 -24.398438 38.84375 -19.171875 C 38.894531 -13.890625 37.070312 -9.398438 33.375 -5.703125 C 29.675781 -1.953125 25.210938 -0.0507812 19.984375 0 C 14.703125 0.0507812 10.1875 -1.769531 6.4375 -5.46875 C 2.6875 -9.175781 0.8125 -13.664062 0.8125 -18.9375 C 0.757812 -24.21875 2.585938 -28.707031 6.296875 -32.40625 C 9.992188 -36.15625 14.484375 -38.054688 19.765625 -38.109375 Z M 26.484375 -12.4375 C 28.316406 -14.257812 29.234375 -16.476562 29.234375 -19.09375 C 29.234375 -21.65625 28.296875 -23.875 26.421875 -25.75 C 24.546875 -27.53125 22.328125 -28.421875 19.765625 -28.421875 C 17.191406 -28.421875 14.992188 -27.503906 13.171875 -25.671875 C 11.347656 -23.753906 10.4375 -21.535156 10.4375 -19.015625 C 10.4375 -16.453125 11.375 -14.234375 13.25 -12.359375 C 15.070312 -10.535156 17.289062 -9.625 19.90625 -9.625 C 22.570312 -9.71875 24.765625 -10.65625 26.484375 -12.4375 Z M 26.484375 -12.4375 "/></g></g><g style="fill:#0f172a;fill-opacity:1;"><g transform="translate(827.153834, 495.689035)"><path style="stroke:none" d="M 38.484375 -26.9375 C 39.460938 -26.488281 40.445312 -25.597656 41.4375 -24.265625 C 43.414062 -21.648438 44.40625 -18.175781 44.40625 -13.84375 C 44.40625 -8.5625 42.109375 -4.660156 37.515625 -2.140625 C 35.203125 -0.910156 32.882812 -0.195312 30.5625 0 L 4.4375 0 L 4.4375 -48.09375 L 26.71875 -48.09375 C 28.539062 -48.09375 30.488281 -47.703125 32.5625 -46.921875 C 36.65625 -45.335938 39.269531 -42.597656 40.40625 -38.703125 C 41.238281 -35.890625 41.164062 -33.078125 40.1875 -30.265625 C 39.6875 -28.878906 39.117188 -27.769531 38.484375 -26.9375 Z M 15.984375 -39.140625 L 15.984375 -28.421875 L 26.265625 -28.421875 C 27.742188 -28.421875 29.03125 -28.9375 30.125 -29.96875 C 31.15625 -31.007812 31.671875 -32.269531 31.671875 -33.75 C 31.671875 -35.269531 31.15625 -36.550781 30.125 -37.59375 C 29.03125 -38.625 27.742188 -39.140625 26.265625 -39.140625 Z M 35.375 -14.203125 C 35.375 -15.679688 34.851562 -16.96875 33.8125 -18.0625 C 32.78125 -19.09375 31.523438 -19.609375 30.046875 -19.609375 L 15.984375 -19.609375 L 15.984375 -8.875 L 30.046875 -8.875 C 31.523438 -8.875 32.78125 -9.394531 33.8125 -10.4375 C 34.851562 -11.46875 35.375 -12.722656 35.375 -14.203125 Z M 35.375 -14.203125 "/></g></g><g style="fill:#0f172a;fill-opacity:1;"><g transform="translate(873.768891, 495.689035)"><path style="stroke:none" d="M 38.921875 -17.390625 C 38.972656 -16.359375 38.972656 -15.742188 38.921875 -15.546875 L 11.09375 -15.609375 C 11.488281 -14.472656 12.207031 -13.390625 13.25 -12.359375 C 15.164062 -10.535156 17.382812 -9.625 19.90625 -9.625 C 22.570312 -9.71875 24.789062 -10.65625 26.5625 -12.4375 L 26.859375 -12.734375 L 36.484375 -9.6875 C 34.359375 -6.382812 32.140625 -4.019531 29.828125 -2.59375 C 27.210938 -0.914062 23.929688 -0.0507812 19.984375 0 C 14.753906 0.0507812 10.265625 -1.769531 6.515625 -5.46875 C 2.765625 -9.175781 0.863281 -13.664062 0.8125 -18.9375 C 0.757812 -24.164062 2.585938 -28.65625 6.296875 -32.40625 C 9.992188 -36.15625 14.484375 -38.054688 19.765625 -38.109375 C 24.992188 -38.160156 29.476562 -36.335938 33.21875 -32.640625 C 36.96875 -28.929688 38.867188 -24.441406 38.921875 -19.171875 Z M 19.828125 -28.421875 C 17.210938 -28.421875 14.992188 -27.503906 13.171875 -25.671875 C 12.234375 -24.640625 11.566406 -23.601562 11.171875 -22.5625 L 28.5625 -22.5625 C 28.164062 -23.601562 27.472656 -24.664062 26.484375 -25.75 C 24.617188 -27.53125 22.398438 -28.421875 19.828125 -28.421875 Z M 19.828125 -28.421875 "/></g></g><g style="fill:#0f172a;fill-opacity:1;"><g transform="translate(910.912841, 495.689035)"><path style="stroke:none" d="M 29.671875 -38.109375 L 29.671875 -27.75 L 21.15625 -27.75 L 21.15625 0 L 10.796875 0 L 10.796875 -27.75 L 2.21875 -27.75 L 2.21875 -38.109375 L 10.796875 -38.109375 L 10.796875 -51.4375 L 21.15625 -51.4375 L 21.15625 -38.109375 Z M 29.671875 -38.109375 "/></g></g><g clip-rule="nonzero" clip-path="url(#94529a92e4)"><g clip-rule="nonzero" clip-path="url(#31466be7fd)"><path style="fill:none;stroke-width:13.630732;stroke-linecap:butt;stroke-linejoin:miter;stroke:#ea580c;stroke-opacity:1;stroke-miterlimit:4;" d="M 85.669734 -0.00214076 C 38.358292 -0.00214076 -0.00185644 38.358007 -0.00185644 85.669449 C -0.00185644 132.98682 38.358292 171.34104 85.669734 171.34104 C 132.987104 171.34104 171.341324 132.98682 171.341324 85.669449 C 171.341324 38.358007 132.987104 -0.00214076 85.669734 -0.00214076 Z M 85.669734 -0.00214076 " transform="matrix(0.658948,0,0,0.658948,475.610598,573.509223)"/></g></g><path style=" stroke:none;fill-rule:nonzero;fill:#ea580c;fill-opacity:1;" d="M 532.175781 617.277344 L 519.816406 629.640625 C 517.878906 631.578125 517.878906 634.730469 519.816406 636.667969 C 521.753906 638.605469 524.90625 638.605469 526.84375 636.667969 L 530.804688 632.707031 C 531.546875 631.90625 532.804688 631.910156 533.546875 632.707031 L 537.507812 636.667969 C 539.445312 638.605469 542.597656 638.605469 544.535156 636.667969 C 546.472656 634.730469 546.472656 631.578125 544.535156 629.636719 Z M 532.175781 617.277344 "/><path style=" stroke:none;fill-rule:nonzero;fill:#ea580c;fill-opacity:1;" d="M 532.175781 597.300781 C 514.105469 597.300781 499.402344 612.003906 499.402344 630.074219 C 499.402344 648.144531 514.105469 662.847656 532.175781 662.847656 C 550.246094 662.847656 564.949219 648.144531 564.949219 630.074219 C 564.949219 612.003906 550.246094 597.300781 532.175781 597.300781 Z M 547.183594 639.316406 C 543.785156 642.714844 538.257812 642.714844 534.859375 639.316406 L 534.046875 638.507812 L 534.046875 645.519531 C 534.046875 646.550781 533.210938 647.390625 532.175781 647.390625 C 531.140625 647.390625 530.300781 646.550781 530.300781 645.519531 L 530.300781 638.507812 L 529.492188 639.316406 C 526.09375 642.714844 520.566406 642.714844 517.167969 639.316406 C 513.769531 635.921875 513.769531 630.390625 517.164062 626.992188 L 530.851562 613.304688 C 531.582031 612.574219 532.769531 612.574219 533.5 613.304688 L 547.183594 626.992188 C 550.582031 630.390625 550.582031 635.921875 547.183594 639.316406 Z M 547.183594 639.316406 "/><g clip-rule="nonzero" clip-path="url(#ec52ca1383)"><path style=" stroke:none;fill-rule:nonzero;fill:#ea580c;fill-opacity:1;" d="M 532.175781 582.316406 C 505.78125 582.316406 484.417969 603.675781 484.417969 630.074219 C 484.417969 656.46875 505.777344 677.832031 532.175781 677.832031 C 558.570312 677.832031 579.929688 656.472656 579.929688 630.074219 C 579.929688 603.679688 558.574219 582.316406 532.175781 582.316406 Z M 556.175781 593.203125 C 561.308594 596.554688 565.699219 600.945312 569.046875 606.074219 C 567.453125 606.816406 565.550781 606.507812 564.277344 605.230469 L 557.019531 597.972656 C 555.730469 596.683594 555.453125 594.765625 556.175781 593.203125 Z M 541.289062 587.015625 C 540.699219 588.640625 539.136719 589.808594 537.308594 589.808594 L 527.042969 589.808594 C 525.214844 589.808594 523.652344 588.640625 523.0625 587.015625 C 528.917969 585.777344 535.144531 585.714844 541.289062 587.015625 Z M 508.175781 593.203125 C 508.898438 594.765625 508.621094 596.683594 507.332031 597.972656 L 500.074219 605.230469 C 498.800781 606.503906 496.898438 606.816406 495.300781 606.074219 C 498.652344 600.945312 503.042969 596.554688 508.175781 593.203125 Z M 489.117188 620.960938 C 490.742188 621.550781 491.910156 623.113281 491.910156 624.941406 L 491.910156 635.207031 C 491.910156 637.035156 490.742188 638.597656 489.117188 639.1875 C 487.878906 633.328125 487.816406 627.105469 489.117188 620.960938 Z M 508.175781 666.945312 C 503.042969 663.59375 498.652344 659.203125 495.304688 654.074219 C 496.867188 653.351562 498.785156 653.628906 500.074219 654.917969 L 507.332031 662.175781 C 508.621094 663.460938 508.898438 665.378906 508.175781 666.945312 Z M 523.0625 673.132812 C 523.652344 671.503906 525.214844 670.339844 527.042969 670.339844 L 537.308594 670.339844 C 539.136719 670.339844 540.699219 671.503906 541.289062 673.132812 C 535.417969 674.375 529.195312 674.429688 523.0625 673.132812 Z M 556.175781 666.945312 C 555.453125 665.378906 555.730469 663.460938 557.019531 662.175781 L 564.277344 654.917969 C 565.5625 653.628906 567.480469 653.351562 569.046875 654.074219 C 565.695312 659.203125 561.304688 663.59375 556.175781 666.945312 Z M 570.96875 650.839844 C 567.960938 649.269531 564.152344 649.746094 561.628906 652.269531 L 554.371094 659.527344 C 551.847656 662.050781 551.371094 665.859375 552.941406 668.867188 C 550.40625 670.230469 547.726562 671.351562 544.925781 672.199219 C 543.914062 668.953125 540.878906 666.59375 537.308594 666.59375 L 527.042969 666.59375 C 523.46875 666.59375 520.4375 668.953125 519.425781 672.199219 C 516.625 671.351562 513.941406 670.230469 511.40625 668.867188 C 512.980469 665.859375 512.503906 662.050781 509.980469 659.527344 L 502.722656 652.269531 C 500.199219 649.746094 496.390625 649.269531 493.382812 650.839844 C 492.019531 648.304688 490.898438 645.625 490.050781 642.824219 C 493.292969 641.8125 495.65625 638.777344 495.65625 635.207031 L 495.65625 624.941406 C 495.65625 621.371094 493.292969 618.335938 490.050781 617.324219 C 490.898438 614.523438 492.019531 611.84375 493.382812 609.308594 C 496.351562 610.867188 500.164062 610.441406 502.722656 607.878906 L 509.980469 600.621094 C 512.503906 598.097656 512.980469 594.289062 511.40625 591.28125 C 513.941406 589.917969 516.625 588.796875 519.425781 587.949219 C 520.4375 591.191406 523.46875 593.554688 527.042969 593.554688 L 537.308594 593.554688 C 540.878906 593.554688 543.914062 591.191406 544.925781 587.949219 C 547.726562 588.796875 550.40625 589.917969 552.941406 591.28125 C 551.371094 594.289062 551.847656 598.097656 554.371094 600.621094 L 561.628906 607.878906 C 564.183594 610.4375 567.996094 610.867188 570.96875 609.308594 C 572.332031 611.84375 573.453125 614.523438 574.300781 617.324219 C 571.054688 618.335938 568.695312 621.371094 568.695312 624.941406 L 568.695312 635.207031 C 568.695312 638.777344 571.054688 641.8125 574.300781 642.824219 C 573.453125 645.625 572.332031 648.304688 570.96875 650.839844 Z M 572.441406 635.207031 L 572.441406 624.941406 C 572.441406 623.113281 573.605469 621.550781 575.234375 620.960938 C 576.472656 626.816406 576.535156 633.042969 575.234375 639.1875 C 573.605469 638.597656 572.441406 637.035156 572.441406 635.207031 Z M 572.441406 635.207031 "/></g><g clip-rule="nonzero" clip-path="url(#0561bc8660)"><g clip-rule="nonzero" clip-path="url(#f170951fa1)"><path style=" stroke:none;fill-rule:nonzero;fill:#ea580c;fill-opacity:1;" d="M 510.300781 608.199219 L 554.058594 608.199219 L 554.058594 651.957031 L 510.300781 651.957031 Z M 510.300781 608.199219 "/></g></g><g style="fill:#ffffff;fill-opacity:1;"><g transform="translate(516.382012, 647.049773)"><path style="stroke:none" d="M 36.75 -27.671875 C 36.75 -25.816406 36.171875 -24.164062 35.015625 -22.71875 C 33.867188 -21.28125 32.359375 -20.066406 30.484375 -19.078125 C 28.609375 -18.097656 26.609375 -17.328125 24.484375 -16.765625 C 26.003906 -16.117188 27.289062 -15.21875 28.34375 -14.0625 C 29.40625 -12.90625 29.9375 -11.492188 29.9375 -9.828125 C 29.9375 -8.503906 29.566406 -7.175781 28.828125 -5.84375 C 28.085938 -4.519531 27.054688 -3.316406 25.734375 -2.234375 C 24.410156 -1.160156 22.875 -0.296875 21.125 0.359375 C 19.382812 1.023438 17.492188 1.359375 15.453125 1.359375 C 13.628906 1.359375 12.1875 1.101562 11.125 0.59375 C 10.070312 0.0820312 9.296875 -0.566406 8.796875 -1.359375 C 8.304688 -2.160156 7.988281 -2.976562 7.84375 -3.8125 C 7.382812 -2.820312 6.992188 -1.910156 6.671875 -1.078125 C 6.347656 -0.242188 6.113281 0.492188 5.96875 1.140625 C 5.851562 1.515625 5.566406 1.703125 5.109375 1.703125 C 4.617188 1.703125 4.050781 1.507812 3.40625 1.125 C 2.757812 0.75 2.207031 0.195312 1.75 -0.53125 C 1.300781 -1.269531 1.097656 -2.132812 1.140625 -3.125 C 1.171875 -4 1.535156 -5.285156 2.234375 -6.984375 C 2.941406 -8.691406 3.863281 -10.59375 5 -12.6875 C 6.132812 -14.789062 7.382812 -16.929688 8.75 -19.109375 C 10.113281 -21.296875 11.484375 -23.332031 12.859375 -25.21875 C 14.242188 -27.113281 15.523438 -28.671875 16.703125 -29.890625 C 14.460938 -29.242188 12.300781 -28.503906 10.21875 -27.671875 C 8.144531 -26.835938 6.3125 -26.0625 4.71875 -25.34375 C 4.332031 -25.144531 4.046875 -25.046875 3.859375 -25.046875 C 3.296875 -25.046875 3.015625 -25.460938 3.015625 -26.296875 C 3.015625 -27.359375 3.503906 -28.375 4.484375 -29.34375 C 5.472656 -30.3125 6.769531 -31.203125 8.375 -32.015625 C 9.988281 -32.828125 11.78125 -33.535156 13.75 -34.140625 C 15.71875 -34.742188 17.695312 -35.21875 19.6875 -35.5625 C 21.675781 -35.90625 23.519531 -36.078125 25.21875 -36.078125 C 27.601562 -36.078125 29.65625 -35.707031 31.375 -34.96875 C 33.101562 -34.226562 34.429688 -33.222656 35.359375 -31.953125 C 36.285156 -30.679688 36.75 -29.253906 36.75 -27.671875 Z M 15.625 -18.34375 C 17.21875 -18.65625 18.929688 -19.113281 20.765625 -19.71875 C 22.597656 -20.320312 24.316406 -21.054688 25.921875 -21.921875 C 27.535156 -22.796875 28.863281 -23.765625 29.90625 -24.828125 C 30.945312 -25.890625 31.46875 -27.046875 31.46875 -28.296875 C 31.46875 -30.378906 29.632812 -31.421875 25.96875 -31.421875 C 24.675781 -31.421875 23.3125 -31.304688 21.875 -31.078125 C 22.175781 -30.804688 22.421875 -30.507812 22.609375 -30.1875 C 22.796875 -29.875 22.890625 -29.582031 22.890625 -29.3125 C 22.890625 -29.082031 22.816406 -28.894531 22.671875 -28.75 C 21.765625 -27.6875 20.691406 -26.234375 19.453125 -24.390625 C 18.222656 -22.554688 16.945312 -20.539062 15.625 -18.34375 Z M 13.6875 -3.984375 C 14.9375 -3.984375 16.195312 -4.21875 17.46875 -4.6875 C 18.738281 -5.15625 19.898438 -5.773438 20.953125 -6.546875 C 22.015625 -7.328125 22.867188 -8.171875 23.515625 -9.078125 C 24.160156 -9.992188 24.484375 -10.890625 24.484375 -11.765625 C 24.484375 -12.742188 24.054688 -13.507812 23.203125 -14.0625 C 22.347656 -14.613281 21.109375 -14.890625 19.484375 -14.890625 C 18.421875 -14.890625 17.359375 -14.785156 16.296875 -14.578125 C 15.242188 -14.367188 14.109375 -14.070312 12.890625 -13.6875 C 12.328125 -12.625 11.769531 -11.582031 11.21875 -10.5625 C 10.664062 -9.539062 10.144531 -8.539062 9.65625 -7.5625 C 9.613281 -7.445312 9.59375 -7.296875 9.59375 -7.109375 C 9.59375 -6.160156 9.929688 -5.398438 10.609375 -4.828125 C 11.296875 -4.265625 12.320312 -3.984375 13.6875 -3.984375 Z M 13.6875 -3.984375 "/></g></g><g style="fill:#ea580c;fill-opacity:1;"><g transform="translate(609.691382, 653.328851)"><path style="stroke:none" d="M 43 -6.0625 C 38.3125 -2.164062 32.957031 -0.21875 26.9375 -0.21875 C 20.125 -0.21875 14.300781 -2.632812 9.46875 -7.46875 C 4.632812 -12.300781 2.21875 -18.125 2.21875 -24.9375 C 2.21875 -31.789062 4.632812 -37.632812 9.46875 -42.46875 C 14.300781 -47.3125 20.125 -49.734375 26.9375 -49.734375 C 33 -49.734375 38.351562 -47.757812 43 -43.8125 L 35.59375 -36.484375 C 33.070312 -38.410156 30.1875 -39.375 26.9375 -39.375 C 22.988281 -39.375 19.609375 -37.96875 16.796875 -35.15625 C 13.984375 -32.34375 12.578125 -28.9375 12.578125 -24.9375 C 12.578125 -20.988281 13.984375 -17.609375 16.796875 -14.796875 C 19.609375 -11.984375 22.988281 -10.578125 26.9375 -10.578125 C 30.1875 -10.578125 33.070312 -11.539062 35.59375 -13.46875 Z M 43 -6.0625 "/></g></g><g style="fill:#ea580c;fill-opacity:1;"><g transform="translate(654.086548, 653.328851)"><path style="stroke:none" d="M 12.578125 -32.40625 C 13.421875 -34.78125 14.828125 -36.4375 16.796875 -37.375 C 18.722656 -38.3125 21.609375 -38.78125 25.453125 -38.78125 L 25.453125 -28.1875 C 21.703125 -28.1875 18.570312 -26.90625 16.0625 -24.34375 C 13.738281 -22.070312 12.578125 -19.582031 12.578125 -16.875 L 12.578125 0 L 2.21875 0 L 2.21875 -38.109375 L 12.578125 -38.109375 Z M 12.578125 -32.40625 "/></g></g><g style="fill:#ea580c;fill-opacity:1;"><g transform="translate(680.649726, 653.328851)"><path style="stroke:none" d="M 38.109375 -38.1875 L 23.09375 1.703125 C 21.457031 5.648438 18.863281 8.78125 15.3125 11.09375 C 11.757812 13.414062 7.890625 14.53125 3.703125 14.4375 L 3.703125 4.0625 C 5.234375 4.113281 6.757812 3.796875 8.28125 3.109375 C 10.457031 2.117188 12.085938 0.566406 13.171875 -1.546875 L 15.25 -7.25 L 2.21875 -38.1875 L 13.609375 -38.1875 L 20.5 -21.53125 L 26.640625 -38.1875 Z M 38.109375 -38.1875 "/></g></g><g style="fill:#ea580c;fill-opacity:1;"><g transform="translate(720.605454, 653.328851)"><path style="stroke:none" d="M 22.046875 -38.109375 C 27.273438 -38.160156 31.765625 -36.335938 35.515625 -32.640625 C 39.265625 -28.929688 41.164062 -24.441406 41.21875 -19.171875 C 41.269531 -13.941406 39.441406 -9.453125 35.734375 -5.703125 C 32.035156 -1.953125 27.550781 -0.0507812 22.28125 0 C 17.988281 0 14.753906 -1.351562 12.578125 -4.0625 L 12.578125 14.203125 L 2.21875 14.203125 L 2.21875 -38.03125 L 12.578125 -38.03125 L 12.578125 -34.046875 C 14.597656 -36.660156 17.753906 -38.015625 22.046875 -38.109375 Z M 28.859375 -12.4375 C 30.734375 -14.3125 31.625 -16.53125 31.53125 -19.09375 C 31.53125 -21.707031 30.613281 -23.925781 28.78125 -25.75 C 26.90625 -27.53125 24.6875 -28.421875 22.125 -28.421875 C 19.507812 -28.421875 17.289062 -27.503906 15.46875 -25.671875 C 13.644531 -23.753906 12.734375 -21.535156 12.734375 -19.015625 C 12.828125 -16.347656 13.765625 -14.128906 15.546875 -12.359375 C 17.367188 -10.535156 19.585938 -9.625 22.203125 -9.625 C 24.867188 -9.71875 27.085938 -10.65625 28.859375 -12.4375 Z M 28.859375 -12.4375 "/></g></g><g style="fill:#ea580c;fill-opacity:1;"><g transform="translate(760.413119, 653.328851)"><path style="stroke:none" d="M 29.671875 -38.109375 L 29.671875 -27.75 L 21.15625 -27.75 L 21.15625 0 L 10.796875 0 L 10.796875 -27.75 L 2.21875 -27.75 L 2.21875 -38.109375 L 10.796875 -38.109375 L 10.796875 -51.4375 L 21.15625 -51.4375 L 21.15625 -38.109375 Z M 29.671875 -38.109375 "/></g></g><g style="fill:#ea580c;fill-opacity:1;"><g transform="translate(790.083882, 653.328851)"><path style="stroke:none" d="M 19.765625 -38.109375 C 25.035156 -38.160156 29.519531 -36.335938 33.21875 -32.640625 C 36.96875 -28.890625 38.84375 -24.398438 38.84375 -19.171875 C 38.894531 -13.890625 37.070312 -9.398438 33.375 -5.703125 C 29.675781 -1.953125 25.210938 -0.0507812 19.984375 0 C 14.703125 0.0507812 10.1875 -1.769531 6.4375 -5.46875 C 2.6875 -9.175781 0.8125 -13.664062 0.8125 -18.9375 C 0.757812 -24.21875 2.585938 -28.707031 6.296875 -32.40625 C 9.992188 -36.15625 14.484375 -38.054688 19.765625 -38.109375 Z M 26.484375 -12.4375 C 28.316406 -14.257812 29.234375 -16.476562 29.234375 -19.09375 C 29.234375 -21.65625 28.296875 -23.875 26.421875 -25.75 C 24.546875 -27.53125 22.328125 -28.421875 19.765625 -28.421875 C 17.191406 -28.421875 14.992188 -27.503906 13.171875 -25.671875 C 11.347656 -23.753906 10.4375 -21.535156 10.4375 -19.015625 C 10.4375 -16.453125 11.375 -14.234375 13.25 -12.359375 C 15.070312 -10.535156 17.289062 -9.625 19.90625 -9.625 C 22.570312 -9.71875 24.765625 -10.65625 26.484375 -12.4375 Z M 26.484375 -12.4375 "/></g></g><g style="fill:#ea580c;fill-opacity:1;"><g transform="translate(827.153834, 653.328851)"><path style="stroke:none" d="M 38.484375 -26.9375 C 39.460938 -26.488281 40.445312 -25.597656 41.4375 -24.265625 C 43.414062 -21.648438 44.40625 -18.175781 44.40625 -13.84375 C 44.40625 -8.5625 42.109375 -4.660156 37.515625 -2.140625 C 35.203125 -0.910156 32.882812 -0.195312 30.5625 0 L 4.4375 0 L 4.4375 -48.09375 L 26.71875 -48.09375 C 28.539062 -48.09375 30.488281 -47.703125 32.5625 -46.921875 C 36.65625 -45.335938 39.269531 -42.597656 40.40625 -38.703125 C 41.238281 -35.890625 41.164062 -33.078125 40.1875 -30.265625 C 39.6875 -28.878906 39.117188 -27.769531 38.484375 -26.9375 Z M 15.984375 -39.140625 L 15.984375 -28.421875 L 26.265625 -28.421875 C 27.742188 -28.421875 29.03125 -28.9375 30.125 -29.96875 C 31.15625 -31.007812 31.671875 -32.269531 31.671875 -33.75 C 31.671875 -35.269531 31.15625 -36.550781 30.125 -37.59375 C 29.03125 -38.625 27.742188 -39.140625 26.265625 -39.140625 Z M 35.375 -14.203125 C 35.375 -15.679688 34.851562 -16.96875 33.8125 -18.0625 C 32.78125 -19.09375 31.523438 -19.609375 30.046875 -19.609375 L 15.984375 -19.609375 L 15.984375 -8.875 L 30.046875 -8.875 C 31.523438 -8.875 32.78125 -9.394531 33.8125 -10.4375 C 34.851562 -11.46875 35.375 -12.722656 35.375 -14.203125 Z M 35.375 -14.203125 "/></g></g><g style="fill:#ea580c;fill-opacity:1;"><g transform="translate(873.768891, 653.328851)"><path style="stroke:none" d="M 38.921875 -17.390625 C 38.972656 -16.359375 38.972656 -15.742188 38.921875 -15.546875 L 11.09375 -15.609375 C 11.488281 -14.472656 12.207031 -13.390625 13.25 -12.359375 C 15.164062 -10.535156 17.382812 -9.625 19.90625 -9.625 C 22.570312 -9.71875 24.789062 -10.65625 26.5625 -12.4375 L 26.859375 -12.734375 L 36.484375 -9.6875 C 34.359375 -6.382812 32.140625 -4.019531 29.828125 -2.59375 C 27.210938 -0.914062 23.929688 -0.0507812 19.984375 0 C 14.753906 0.0507812 10.265625 -1.769531 6.515625 -5.46875 C 2.765625 -9.175781 0.863281 -13.664062 0.8125 -18.9375 C 0.757812 -24.164062 2.585938 -28.65625 6.296875 -32.40625 C 9.992188 -36.15625 14.484375 -38.054688 19.765625 -38.109375 C 24.992188 -38.160156 29.476562 -36.335938 33.21875 -32.640625 C 36.96875 -28.929688 38.867188 -24.441406 38.921875 -19.171875 Z M 19.828125 -28.421875 C 17.210938 -28.421875 14.992188 -27.503906 13.171875 -25.671875 C 12.234375 -24.640625 11.566406 -23.601562 11.171875 -22.5625 L 28.5625 -22.5625 C 28.164062 -23.601562 27.472656 -24.664062 26.484375 -25.75 C 24.617188 -27.53125 22.398438 -28.421875 19.828125 -28.421875 Z M 19.828125 -28.421875 "/></g></g><g style="fill:#ea580c;fill-opacity:1;"><g transform="translate(910.912841, 653.328851)"><path style="stroke:none" d="M 29.671875 -38.109375 L 29.671875 -27.75 L 21.15625 -27.75 L 21.15625 0 L 10.796875 0 L 10.796875 -27.75 L 2.21875 -27.75 L 2.21875 -38.109375 L 10.796875 -38.109375 L 10.796875 -51.4375 L 21.15625 -51.4375 L 21.15625 -38.109375 Z M 29.671875 -38.109375 "/></g></g></g></svg>