<svg xmlns="http://www.w3.org/2000/svg" xmlns:xlink="http://www.w3.org/1999/xlink" width="500" zoomAndPan="magnify" viewBox="0 0 375 374.999991" height="500" preserveAspectRatio="xMidYMid meet" version="1.2"><defs><clipPath id="821a808680"><path d="M 126.636719 73.625 L 254.886719 73.625 L 254.886719 201.875 L 126.636719 201.875 Z M 126.636719 73.625 "/></clipPath><clipPath id="7666820012"><path d="M 190.761719 73.625 C 155.34375 73.625 126.636719 102.335938 126.636719 137.75 C 126.636719 173.164062 155.34375 201.875 190.761719 201.875 C 226.175781 201.875 254.886719 173.164062 254.886719 137.75 C 254.886719 102.335938 226.175781 73.625 190.761719 73.625 Z M 190.761719 73.625 "/></clipPath><clipPath id="d49fc4e884"><path d="M 136.640625 83.632812 L 245.390625 83.632812 L 245.390625 192.382812 L 136.640625 192.382812 Z M 136.640625 83.632812 "/></clipPath><clipPath id="3af240ca4e"><path d="M 166.042969 113.03125 L 215.742188 113.03125 L 215.742188 162.734375 L 166.042969 162.734375 Z M 166.042969 113.03125 "/></clipPath><clipPath id="d7d53565d0"><path d="M 190.894531 113.03125 C 177.167969 113.03125 166.042969 124.15625 166.042969 137.882812 C 166.042969 151.609375 177.167969 162.734375 190.894531 162.734375 C 204.617188 162.734375 215.742188 151.609375 215.742188 137.882812 C 215.742188 124.15625 204.617188 113.03125 190.894531 113.03125 Z M 190.894531 113.03125 "/></clipPath></defs><g id="d87790c33a"><g clip-rule="nonzero" clip-path="url(#821a808680)"><g clip-rule="nonzero" clip-path="url(#7666820012)"><path style="fill:none;stroke-width:12;stroke-linecap:butt;stroke-linejoin:miter;stroke:#0f172a;stroke-opacity:1;stroke-miterlimit:4;" d="M 85.673253 -0.000925544 C 38.354359 -0.000925544 0.00136937 38.357283 0.00136937 85.670958 C 0.00136937 132.984634 38.354359 171.342842 85.673253 171.342842 C 132.986929 171.342842 171.345137 132.984634 171.345137 85.670958 C 171.345137 38.357283 132.986929 -0.000925544 85.673253 -0.000925544 Z M 85.673253 -0.000925544 " transform="matrix(0.748495,0,0,0.748495,126.635694,73.625693)"/></g></g><path style=" stroke:none;fill-rule:nonzero;fill:#ea580c;fill-opacity:1;" d="M 190.886719 123.34375 L 176.847656 137.382812 C 174.648438 139.585938 174.648438 143.167969 176.847656 145.367188 C 179.046875 147.570312 182.628906 147.570312 184.832031 145.367188 L 189.332031 140.867188 C 190.175781 139.960938 191.601562 139.960938 192.445312 140.867188 L 196.941406 145.367188 C 199.144531 147.570312 202.726562 147.570312 204.925781 145.367188 C 207.128906 143.167969 207.128906 139.585938 204.925781 137.382812 Z M 190.886719 123.34375 "/><path style=" stroke:none;fill-rule:nonzero;fill:#ea580c;fill-opacity:1;" d="M 190.886719 100.648438 C 170.359375 100.648438 153.660156 117.351562 153.660156 137.878906 C 153.660156 158.40625 170.359375 175.105469 190.886719 175.105469 C 211.414062 175.105469 228.113281 158.40625 228.113281 137.878906 C 228.113281 117.351562 211.414062 100.648438 190.886719 100.648438 Z M 207.9375 148.375 C 204.074219 152.238281 197.792969 152.238281 193.933594 148.375 L 193.015625 147.457031 L 193.015625 155.417969 C 193.015625 156.59375 192.0625 157.546875 190.886719 157.546875 C 189.710938 157.546875 188.761719 156.59375 188.761719 155.417969 L 188.761719 147.457031 L 187.839844 148.375 C 183.980469 152.238281 177.699219 152.238281 173.839844 148.375 C 169.980469 144.519531 169.980469 138.238281 173.839844 134.375 L 189.382812 118.832031 C 190.214844 118 191.5625 118 192.390625 118.832031 L 207.9375 134.375 C 211.792969 138.238281 211.792969 144.519531 207.9375 148.375 Z M 207.9375 148.375 "/><g clip-rule="nonzero" clip-path="url(#d49fc4e884)"><path style=" stroke:none;fill-rule:nonzero;fill:#ea580c;fill-opacity:1;" d="M 190.886719 83.632812 C 160.90625 83.632812 136.640625 107.894531 136.640625 137.878906 C 136.640625 167.859375 160.902344 192.125 190.886719 192.125 C 220.867188 192.125 245.132812 167.863281 245.132812 137.878906 C 245.132812 107.898438 220.871094 83.632812 190.886719 83.632812 Z M 218.148438 95.996094 C 223.976562 99.800781 228.964844 104.789062 232.769531 110.617188 C 230.960938 111.457031 228.800781 111.105469 227.351562 109.65625 L 219.105469 101.414062 C 217.644531 99.953125 217.328125 97.773438 218.148438 95.996094 Z M 201.238281 88.964844 C 200.566406 90.816406 198.792969 92.140625 196.714844 92.140625 L 185.058594 92.140625 C 182.980469 92.140625 181.207031 90.816406 180.535156 88.964844 C 187.1875 87.558594 194.261719 87.492188 201.238281 88.964844 Z M 163.625 95.996094 C 164.445312 97.773438 164.132812 99.953125 162.667969 101.414062 L 154.425781 109.65625 C 152.976562 111.105469 150.816406 111.460938 149.003906 110.617188 C 152.808594 104.789062 157.796875 99.800781 163.625 95.996094 Z M 141.976562 127.527344 C 143.824219 128.195312 145.148438 129.972656 145.148438 132.046875 L 145.148438 143.707031 C 145.148438 145.785156 143.824219 147.558594 141.976562 148.226562 C 140.570312 141.574219 140.5 134.503906 141.976562 127.527344 Z M 163.625 179.761719 C 157.796875 175.953125 152.8125 170.964844 149.003906 165.140625 C 150.78125 164.316406 152.960938 164.632812 154.425781 166.097656 L 162.667969 174.339844 C 164.132812 175.804688 164.445312 177.980469 163.625 179.761719 Z M 180.535156 186.789062 C 181.207031 184.9375 182.980469 183.613281 185.058594 183.613281 L 196.714844 183.613281 C 198.792969 183.613281 200.566406 184.9375 201.238281 186.789062 C 194.570312 188.199219 187.5 188.261719 180.535156 186.789062 Z M 218.148438 179.761719 C 217.328125 177.980469 217.644531 175.804688 219.105469 174.339844 L 227.351562 166.097656 C 228.8125 164.632812 230.992188 164.316406 232.769531 165.140625 C 228.964844 170.964844 223.976562 175.953125 218.148438 179.761719 Z M 234.953125 161.46875 C 231.535156 159.679688 227.207031 160.222656 224.339844 163.089844 L 216.097656 171.332031 C 213.230469 174.199219 212.691406 178.523438 214.476562 181.941406 C 211.597656 183.488281 208.550781 184.761719 205.371094 185.726562 C 204.21875 182.042969 200.773438 179.359375 196.714844 179.359375 L 185.058594 179.359375 C 181 179.359375 177.554688 182.042969 176.40625 185.726562 C 173.222656 184.761719 170.175781 183.488281 167.296875 181.941406 C 169.082031 178.523438 168.542969 174.199219 165.675781 171.332031 L 157.433594 163.089844 C 154.566406 160.222656 150.238281 159.679688 146.820312 161.46875 C 145.273438 158.585938 144 155.539062 143.039062 152.359375 C 146.722656 151.210938 149.40625 147.765625 149.40625 143.707031 L 149.40625 132.046875 C 149.40625 127.988281 146.722656 124.546875 143.039062 123.394531 C 144 120.214844 145.273438 117.167969 146.820312 114.289062 C 150.195312 116.0625 154.523438 115.574219 157.433594 112.667969 L 165.675781 104.421875 C 168.542969 101.554688 169.082031 97.230469 167.296875 93.8125 C 170.175781 92.265625 173.222656 90.992188 176.40625 90.027344 C 177.554688 93.710938 181 96.394531 185.058594 96.394531 L 196.714844 96.394531 C 200.773438 96.394531 204.21875 93.710938 205.371094 90.027344 C 208.550781 90.992188 211.597656 92.265625 214.476562 93.8125 C 212.691406 97.230469 213.230469 101.554688 216.097656 104.421875 L 224.339844 112.667969 C 227.246094 115.570312 231.578125 116.0625 234.953125 114.289062 C 236.5 117.167969 237.773438 120.214844 238.738281 123.394531 C 235.050781 124.546875 232.371094 127.988281 232.371094 132.046875 L 232.371094 143.707031 C 232.371094 147.765625 235.050781 151.210938 238.738281 152.359375 C 237.773438 155.539062 236.5 158.585938 234.953125 161.46875 Z M 236.625 143.707031 L 236.625 132.046875 C 236.625 129.972656 237.949219 128.195312 239.796875 127.527344 C 241.203125 134.179688 241.273438 141.25 239.796875 148.226562 C 237.949219 147.558594 236.625 145.785156 236.625 143.707031 Z M 236.625 143.707031 "/></g><g clip-rule="nonzero" clip-path="url(#3af240ca4e)"><g clip-rule="nonzero" clip-path="url(#d7d53565d0)"><path style=" stroke:none;fill-rule:nonzero;fill:#ea580c;fill-opacity:1;" d="M 166.042969 113.03125 L 215.742188 113.03125 L 215.742188 162.734375 L 166.042969 162.734375 Z M 166.042969 113.03125 "/></g></g><g style="fill:#0f172a;fill-opacity:1;"><g transform="translate(172.947737, 157.160052)"><path style="stroke:none" d="M 41.765625 -31.4375 C 41.765625 -29.320312 41.109375 -27.445312 39.796875 -25.8125 C 38.484375 -24.175781 36.757812 -22.800781 34.625 -21.6875 C 32.5 -20.570312 30.226562 -19.691406 27.8125 -19.046875 C 29.539062 -18.304688 31.003906 -17.28125 32.203125 -15.96875 C 33.410156 -14.65625 34.015625 -13.054688 34.015625 -11.171875 C 34.015625 -9.660156 33.59375 -8.148438 32.75 -6.640625 C 31.914062 -5.140625 30.742188 -3.773438 29.234375 -2.546875 C 27.734375 -1.316406 25.992188 -0.328125 24.015625 0.421875 C 22.035156 1.171875 19.882812 1.546875 17.5625 1.546875 C 15.488281 1.546875 13.847656 1.253906 12.640625 0.671875 C 11.441406 0.0976562 10.5625 -0.640625 10 -1.546875 C 9.445312 -2.453125 9.082031 -3.378906 8.90625 -4.328125 C 8.394531 -3.203125 7.953125 -2.164062 7.578125 -1.21875 C 7.210938 -0.28125 6.945312 0.554688 6.78125 1.296875 C 6.644531 1.722656 6.320312 1.9375 5.8125 1.9375 C 5.25 1.9375 4.601562 1.71875 3.875 1.28125 C 3.144531 0.851562 2.519531 0.222656 2 -0.609375 C 1.476562 -1.453125 1.242188 -2.429688 1.296875 -3.546875 C 1.335938 -4.535156 1.753906 -6 2.546875 -7.9375 C 3.347656 -9.875 4.390625 -12.035156 5.671875 -14.421875 C 6.960938 -16.816406 8.382812 -19.25 9.9375 -21.71875 C 11.488281 -24.195312 13.046875 -26.507812 14.609375 -28.65625 C 16.179688 -30.8125 17.640625 -32.578125 18.984375 -33.953125 C 16.441406 -33.222656 13.984375 -32.382812 11.609375 -31.4375 C 9.242188 -30.488281 7.160156 -29.601562 5.359375 -28.78125 C 4.929688 -28.570312 4.609375 -28.46875 4.390625 -28.46875 C 3.742188 -28.46875 3.421875 -28.941406 3.421875 -29.890625 C 3.421875 -31.085938 3.976562 -32.234375 5.09375 -33.328125 C 6.21875 -34.429688 7.691406 -35.445312 9.515625 -36.375 C 11.347656 -37.300781 13.382812 -38.109375 15.625 -38.796875 C 17.863281 -39.484375 20.109375 -40.019531 22.359375 -40.40625 C 24.617188 -40.789062 26.71875 -40.984375 28.65625 -40.984375 C 31.363281 -40.984375 33.695312 -40.5625 35.65625 -39.71875 C 37.613281 -38.882812 39.117188 -37.742188 40.171875 -36.296875 C 41.234375 -34.859375 41.765625 -33.238281 41.765625 -31.4375 Z M 17.75 -20.84375 C 19.5625 -21.1875 21.507812 -21.703125 23.59375 -22.390625 C 25.675781 -23.085938 27.628906 -23.929688 29.453125 -24.921875 C 31.285156 -25.910156 32.796875 -27.003906 33.984375 -28.203125 C 35.171875 -29.410156 35.765625 -30.722656 35.765625 -32.140625 C 35.765625 -34.503906 33.675781 -35.6875 29.5 -35.6875 C 28.03125 -35.6875 26.476562 -35.5625 24.84375 -35.3125 C 25.1875 -35.007812 25.46875 -34.675781 25.6875 -34.3125 C 25.90625 -33.945312 26.015625 -33.613281 26.015625 -33.3125 C 26.015625 -33.050781 25.925781 -32.832031 25.75 -32.65625 C 24.71875 -31.457031 23.503906 -29.8125 22.109375 -27.71875 C 20.710938 -25.632812 19.257812 -23.34375 17.75 -20.84375 Z M 15.5625 -4.515625 C 16.976562 -4.515625 18.40625 -4.78125 19.84375 -5.3125 C 21.289062 -5.851562 22.613281 -6.566406 23.8125 -7.453125 C 25.019531 -8.335938 25.988281 -9.296875 26.71875 -10.328125 C 27.445312 -11.359375 27.8125 -12.367188 27.8125 -13.359375 C 27.8125 -14.484375 27.328125 -15.351562 26.359375 -15.96875 C 25.398438 -16.59375 23.992188 -16.90625 22.140625 -16.90625 C 20.929688 -16.90625 19.722656 -16.785156 18.515625 -16.546875 C 17.316406 -16.316406 16.03125 -15.988281 14.65625 -15.5625 C 14.007812 -14.351562 13.375 -13.164062 12.75 -12 C 12.125 -10.84375 11.53125 -9.703125 10.96875 -8.578125 C 10.925781 -8.453125 10.90625 -8.28125 10.90625 -8.0625 C 10.90625 -6.988281 11.289062 -6.128906 12.0625 -5.484375 C 12.84375 -4.835938 14.007812 -4.515625 15.5625 -4.515625 Z M 15.5625 -4.515625 "/></g></g><g style="fill:#0f172a;fill-opacity:1;"><g transform="translate(20.777347, 269.148323)"><path style="stroke:none" d="M 43.03125 -6.078125 C 38.34375 -2.171875 32.984375 -0.21875 26.953125 -0.21875 C 20.140625 -0.21875 14.316406 -2.640625 9.484375 -7.484375 C 4.640625 -12.316406 2.21875 -18.140625 2.21875 -24.953125 C 2.21875 -31.816406 4.640625 -37.671875 9.484375 -42.515625 C 14.316406 -47.347656 20.140625 -49.765625 26.953125 -49.765625 C 33.023438 -49.765625 38.382812 -47.789062 43.03125 -43.84375 L 35.625 -36.515625 C 33.101562 -38.441406 30.210938 -39.40625 26.953125 -39.40625 C 23.003906 -39.40625 19.625 -38 16.8125 -35.1875 C 14 -32.363281 12.59375 -28.953125 12.59375 -24.953125 C 12.59375 -21.003906 14 -17.625 16.8125 -14.8125 C 19.625 -12 23.003906 -10.59375 26.953125 -10.59375 C 30.210938 -10.59375 33.101562 -11.554688 35.625 -13.484375 Z M 43.03125 -6.078125 "/></g></g><g style="fill:#0f172a;fill-opacity:1;"><g transform="translate(65.214901, 269.148323)"><path style="stroke:none" d="M 12.59375 -32.4375 C 13.425781 -34.8125 14.832031 -36.46875 16.8125 -37.40625 C 18.738281 -38.34375 21.628906 -38.8125 25.484375 -38.8125 L 25.484375 -28.21875 C 21.722656 -28.21875 18.585938 -26.929688 16.078125 -24.359375 C 13.753906 -22.085938 12.59375 -19.597656 12.59375 -16.890625 L 12.59375 0 L 2.21875 0 L 2.21875 -38.140625 L 12.59375 -38.140625 Z M 12.59375 -32.4375 "/></g></g><g style="fill:#0f172a;fill-opacity:1;"><g transform="translate(91.80337, 269.148323)"><path style="stroke:none" d="M 38.140625 -38.21875 L 23.109375 1.703125 C 21.472656 5.648438 18.878906 8.785156 15.328125 11.109375 C 11.773438 13.429688 7.898438 14.539062 3.703125 14.4375 L 3.703125 4.078125 C 5.234375 4.117188 6.765625 3.796875 8.296875 3.109375 C 10.460938 2.117188 12.09375 0.5625 13.1875 -1.5625 L 15.25 -7.265625 L 2.21875 -38.21875 L 13.625 -38.21875 L 20.515625 -21.546875 L 26.65625 -38.21875 Z M 38.140625 -38.21875 "/></g></g><g style="fill:#0f172a;fill-opacity:1;"><g transform="translate(131.797161, 269.148323)"><path style="stroke:none" d="M 22.078125 -38.140625 C 27.304688 -38.191406 31.796875 -36.363281 35.546875 -32.65625 C 39.296875 -28.957031 41.195312 -24.46875 41.25 -19.1875 C 41.300781 -13.945312 39.472656 -9.453125 35.765625 -5.703125 C 32.066406 -1.953125 27.578125 -0.0507812 22.296875 0 C 17.992188 0 14.757812 -1.359375 12.59375 -4.078125 L 12.59375 14.21875 L 2.21875 14.21875 L 2.21875 -38.0625 L 12.59375 -38.0625 L 12.59375 -34.0625 C 14.613281 -36.6875 17.773438 -38.046875 22.078125 -38.140625 Z M 28.890625 -12.4375 C 30.765625 -14.3125 31.648438 -16.535156 31.546875 -19.109375 C 31.546875 -21.722656 30.632812 -23.945312 28.8125 -25.78125 C 26.9375 -27.550781 24.710938 -28.4375 22.140625 -28.4375 C 19.523438 -28.4375 17.304688 -27.523438 15.484375 -25.703125 C 13.648438 -23.773438 12.734375 -21.550781 12.734375 -19.03125 C 12.835938 -16.363281 13.773438 -14.144531 15.546875 -12.375 C 17.378906 -10.539062 19.601562 -9.625 22.21875 -9.625 C 24.882812 -9.726562 27.109375 -10.664062 28.890625 -12.4375 Z M 28.890625 -12.4375 "/></g></g><g style="fill:#0f172a;fill-opacity:1;"><g transform="translate(171.64283, 269.148323)"><path style="stroke:none" d="M 29.703125 -38.140625 L 29.703125 -27.78125 L 21.1875 -27.78125 L 21.1875 0 L 10.8125 0 L 10.8125 -27.78125 L 2.21875 -27.78125 L 2.21875 -38.140625 L 10.8125 -38.140625 L 10.8125 -51.46875 L 21.1875 -51.46875 L 21.1875 -38.140625 Z M 29.703125 -38.140625 "/></g></g><g style="fill:#0f172a;fill-opacity:1;"><g transform="translate(201.341929, 269.148323)"><path style="stroke:none" d="M 19.78125 -38.140625 C 25.0625 -38.191406 29.550781 -36.363281 33.25 -32.65625 C 37.007812 -28.90625 38.890625 -24.414062 38.890625 -19.1875 C 38.929688 -13.894531 37.101562 -9.398438 33.40625 -5.703125 C 29.695312 -1.953125 25.226562 -0.0507812 20 0 C 14.71875 0.0507812 10.195312 -1.773438 6.4375 -5.484375 C 2.6875 -9.179688 0.8125 -13.671875 0.8125 -18.953125 C 0.757812 -24.242188 2.585938 -28.738281 6.296875 -32.4375 C 9.992188 -36.1875 14.488281 -38.085938 19.78125 -38.140625 Z M 26.515625 -12.4375 C 28.335938 -14.269531 29.25 -16.492188 29.25 -19.109375 C 29.25 -21.671875 28.3125 -23.894531 26.4375 -25.78125 C 24.5625 -27.550781 22.34375 -28.4375 19.78125 -28.4375 C 17.207031 -28.4375 15.007812 -27.523438 13.1875 -25.703125 C 11.351562 -23.773438 10.4375 -21.550781 10.4375 -19.03125 C 10.4375 -16.46875 11.375 -14.25 13.25 -12.375 C 15.082031 -10.539062 17.304688 -9.625 19.921875 -9.625 C 22.585938 -9.726562 24.785156 -10.664062 26.515625 -12.4375 Z M 26.515625 -12.4375 "/></g></g><g style="fill:#ea580c;fill-opacity:1;"><g transform="translate(238.453114, 269.148323)"><path style="stroke:none" d="M 38.515625 -26.953125 C 39.503906 -26.515625 40.488281 -25.628906 41.46875 -24.296875 C 43.445312 -21.679688 44.4375 -18.195312 44.4375 -13.84375 C 44.4375 -8.5625 42.140625 -4.660156 37.546875 -2.140625 C 35.222656 -0.910156 32.90625 -0.195312 30.59375 0 L 4.4375 0 L 4.4375 -48.140625 L 26.734375 -48.140625 C 28.566406 -48.140625 30.519531 -47.742188 32.59375 -46.953125 C 36.6875 -45.367188 39.300781 -42.628906 40.4375 -38.734375 C 41.28125 -35.921875 41.207031 -33.109375 40.21875 -30.296875 C 39.71875 -28.910156 39.148438 -27.796875 38.515625 -26.953125 Z M 16 -39.171875 L 16 -28.4375 L 26.296875 -28.4375 C 27.773438 -28.4375 29.054688 -28.957031 30.140625 -30 C 31.179688 -31.03125 31.703125 -32.285156 31.703125 -33.765625 C 31.703125 -35.296875 31.179688 -36.582031 30.140625 -37.625 C 29.054688 -38.65625 27.773438 -39.171875 26.296875 -39.171875 Z M 35.40625 -14.21875 C 35.40625 -15.695312 34.882812 -16.984375 33.84375 -18.078125 C 32.8125 -19.109375 31.550781 -19.625 30.0625 -19.625 L 16 -19.625 L 16 -8.890625 L 30.0625 -8.890625 C 31.550781 -8.890625 32.8125 -9.40625 33.84375 -10.4375 C 34.882812 -11.476562 35.40625 -12.738281 35.40625 -14.21875 Z M 35.40625 -14.21875 "/></g></g><g style="fill:#ea580c;fill-opacity:1;"><g transform="translate(285.112538, 269.148323)"><path style="stroke:none" d="M 38.953125 -17.40625 C 39.003906 -16.363281 39.003906 -15.742188 38.953125 -15.546875 L 11.109375 -15.625 C 11.503906 -14.488281 12.21875 -13.40625 13.25 -12.375 C 15.175781 -10.539062 17.398438 -9.625 19.921875 -9.625 C 22.585938 -9.726562 24.8125 -10.664062 26.59375 -12.4375 L 26.890625 -12.734375 L 36.515625 -9.703125 C 34.390625 -6.390625 32.164062 -4.019531 29.84375 -2.59375 C 27.226562 -0.914062 23.945312 -0.0507812 20 0 C 14.757812 0.0507812 10.265625 -1.773438 6.515625 -5.484375 C 2.765625 -9.179688 0.863281 -13.671875 0.8125 -18.953125 C 0.757812 -24.191406 2.585938 -28.6875 6.296875 -32.4375 C 9.992188 -36.1875 14.488281 -38.085938 19.78125 -38.140625 C 25.007812 -38.191406 29.5 -36.363281 33.25 -32.65625 C 37.007812 -28.957031 38.910156 -24.46875 38.953125 -19.1875 Z M 19.84375 -28.4375 C 17.226562 -28.4375 15.007812 -27.523438 13.1875 -25.703125 C 12.25 -24.660156 11.582031 -23.625 11.1875 -22.59375 L 28.59375 -22.59375 C 28.195312 -23.625 27.503906 -24.6875 26.515625 -25.78125 C 24.640625 -27.550781 22.414062 -28.4375 19.84375 -28.4375 Z M 19.84375 -28.4375 "/></g></g><g style="fill:#ea580c;fill-opacity:1;"><g transform="translate(322.291953, 269.148323)"><path style="stroke:none" d="M 29.703125 -38.140625 L 29.703125 -27.78125 L 21.1875 -27.78125 L 21.1875 0 L 10.8125 0 L 10.8125 -27.78125 L 2.21875 -27.78125 L 2.21875 -38.140625 L 10.8125 -38.140625 L 10.8125 -51.46875 L 21.1875 -51.46875 L 21.1875 -38.140625 Z M 29.703125 -38.140625 "/></g></g></g></svg>