<svg xmlns="http://www.w3.org/2000/svg" xmlns:xlink="http://www.w3.org/1999/xlink" width="500" zoomAndPan="magnify" viewBox="0 0 375 374.999991" height="500" preserveAspectRatio="xMidYMid meet" version="1.2"><defs><clipPath id="2169a060c9"><path d="M 126.636719 73.625 L 254.886719 73.625 L 254.886719 201.875 L 126.636719 201.875 Z M 126.636719 73.625 "/></clipPath><clipPath id="0112d08205"><path d="M 190.761719 73.625 C 155.34375 73.625 126.636719 102.335938 126.636719 137.75 C 126.636719 173.164062 155.34375 201.875 190.761719 201.875 C 226.175781 201.875 254.886719 173.164062 254.886719 137.75 C 254.886719 102.335938 226.175781 73.625 190.761719 73.625 Z M 190.761719 73.625 "/></clipPath><clipPath id="10ea3e1d70"><path d="M 136.640625 83.632812 L 245.390625 83.632812 L 245.390625 192.382812 L 136.640625 192.382812 Z M 136.640625 83.632812 "/></clipPath><clipPath id="8c1b18799f"><path d="M 166.042969 113.03125 L 215.742188 113.03125 L 215.742188 162.734375 L 166.042969 162.734375 Z M 166.042969 113.03125 "/></clipPath><clipPath id="d638bef2c1"><path d="M 190.894531 113.03125 C 177.167969 113.03125 166.042969 124.15625 166.042969 137.882812 C 166.042969 151.609375 177.167969 162.734375 190.894531 162.734375 C 204.617188 162.734375 215.742188 151.609375 215.742188 137.882812 C 215.742188 124.15625 204.617188 113.03125 190.894531 113.03125 Z M 190.894531 113.03125 "/></clipPath></defs><g id="8f4438c9af"><g clip-rule="nonzero" clip-path="url(#2169a060c9)"><g clip-rule="nonzero" clip-path="url(#0112d08205)"><path style="fill:none;stroke-width:12;stroke-linecap:butt;stroke-linejoin:miter;stroke:#0f172a;stroke-opacity:1;stroke-miterlimit:4;" d="M 85.673253 -0.000944783 C 38.354359 -0.000944783 0.00136937 38.357264 0.00136937 85.670939 C 0.00136937 132.984615 38.354359 171.342823 85.673253 171.342823 C 132.986929 171.342823 171.345137 132.984615 171.345137 85.670939 C 171.345137 38.357264 132.986929 -0.000944783 85.673253 -0.000944783 Z M 85.673253 -0.000944783 " transform="matrix(0.748495,0,0,0.748495,126.635694,73.625707)"/></g></g><path style=" stroke:none;fill-rule:nonzero;fill:#0f172a;fill-opacity:1;" d="M 190.886719 123.34375 L 176.847656 137.382812 C 174.648438 139.585938 174.648438 143.167969 176.847656 145.367188 C 179.046875 147.570312 182.628906 147.570312 184.832031 145.367188 L 189.332031 140.867188 C 190.175781 139.960938 191.601562 139.960938 192.445312 140.867188 L 196.941406 145.367188 C 199.144531 147.570312 202.726562 147.570312 204.925781 145.367188 C 207.128906 143.167969 207.128906 139.585938 204.925781 137.382812 Z M 190.886719 123.34375 "/><path style=" stroke:none;fill-rule:nonzero;fill:#0f172a;fill-opacity:1;" d="M 190.886719 100.648438 C 170.359375 100.648438 153.660156 117.351562 153.660156 137.878906 C 153.660156 158.40625 170.359375 175.105469 190.886719 175.105469 C 211.414062 175.105469 228.113281 158.40625 228.113281 137.878906 C 228.113281 117.351562 211.414062 100.648438 190.886719 100.648438 Z M 207.9375 148.375 C 204.074219 152.238281 197.792969 152.238281 193.933594 148.375 L 193.015625 147.457031 L 193.015625 155.417969 C 193.015625 156.59375 192.0625 157.546875 190.886719 157.546875 C 189.710938 157.546875 188.761719 156.59375 188.761719 155.417969 L 188.761719 147.457031 L 187.839844 148.375 C 183.980469 152.238281 177.699219 152.238281 173.839844 148.375 C 169.980469 144.519531 169.980469 138.238281 173.839844 134.375 L 189.382812 118.832031 C 190.214844 118 191.5625 118 192.390625 118.832031 L 207.9375 134.375 C 211.792969 138.238281 211.792969 144.519531 207.9375 148.375 Z M 207.9375 148.375 "/><g clip-rule="nonzero" clip-path="url(#10ea3e1d70)"><path style=" stroke:none;fill-rule:nonzero;fill:#0f172a;fill-opacity:1;" d="M 190.886719 83.632812 C 160.90625 83.632812 136.640625 107.894531 136.640625 137.878906 C 136.640625 167.859375 160.902344 192.125 190.886719 192.125 C 220.867188 192.125 245.132812 167.863281 245.132812 137.878906 C 245.132812 107.898438 220.871094 83.632812 190.886719 83.632812 Z M 218.148438 95.996094 C 223.976562 99.800781 228.964844 104.789062 232.769531 110.617188 C 230.960938 111.457031 228.800781 111.105469 227.351562 109.65625 L 219.105469 101.414062 C 217.644531 99.953125 217.328125 97.773438 218.148438 95.996094 Z M 201.238281 88.964844 C 200.566406 90.816406 198.792969 92.140625 196.714844 92.140625 L 185.058594 92.140625 C 182.980469 92.140625 181.207031 90.816406 180.535156 88.964844 C 187.1875 87.558594 194.261719 87.492188 201.238281 88.964844 Z M 163.625 95.996094 C 164.445312 97.773438 164.132812 99.953125 162.667969 101.414062 L 154.425781 109.65625 C 152.976562 111.105469 150.816406 111.460938 149.003906 110.617188 C 152.808594 104.789062 157.796875 99.800781 163.625 95.996094 Z M 141.976562 127.527344 C 143.824219 128.195312 145.148438 129.972656 145.148438 132.046875 L 145.148438 143.707031 C 145.148438 145.785156 143.824219 147.558594 141.976562 148.226562 C 140.570312 141.574219 140.5 134.503906 141.976562 127.527344 Z M 163.625 179.761719 C 157.796875 175.953125 152.8125 170.964844 149.003906 165.140625 C 150.78125 164.316406 152.960938 164.632812 154.425781 166.097656 L 162.667969 174.339844 C 164.132812 175.804688 164.445312 177.980469 163.625 179.761719 Z M 180.535156 186.789062 C 181.207031 184.9375 182.980469 183.613281 185.058594 183.613281 L 196.714844 183.613281 C 198.792969 183.613281 200.566406 184.9375 201.238281 186.789062 C 194.570312 188.199219 187.5 188.261719 180.535156 186.789062 Z M 218.148438 179.761719 C 217.328125 177.980469 217.644531 175.804688 219.105469 174.339844 L 227.351562 166.097656 C 228.8125 164.632812 230.992188 164.316406 232.769531 165.140625 C 228.964844 170.964844 223.976562 175.953125 218.148438 179.761719 Z M 234.953125 161.46875 C 231.535156 159.679688 227.207031 160.222656 224.339844 163.089844 L 216.097656 171.332031 C 213.230469 174.199219 212.691406 178.523438 214.476562 181.941406 C 211.597656 183.488281 208.550781 184.761719 205.371094 185.726562 C 204.21875 182.042969 200.773438 179.359375 196.714844 179.359375 L 185.058594 179.359375 C 181 179.359375 177.554688 182.042969 176.40625 185.726562 C 173.222656 184.761719 170.175781 183.488281 167.296875 181.941406 C 169.082031 178.523438 168.542969 174.199219 165.675781 171.332031 L 157.433594 163.089844 C 154.566406 160.222656 150.238281 159.679688 146.820312 161.46875 C 145.273438 158.585938 144 155.539062 143.039062 152.359375 C 146.722656 151.210938 149.40625 147.765625 149.40625 143.707031 L 149.40625 132.046875 C 149.40625 127.988281 146.722656 124.546875 143.039062 123.394531 C 144 120.214844 145.273438 117.167969 146.820312 114.289062 C 150.195312 116.0625 154.523438 115.574219 157.433594 112.667969 L 165.675781 104.421875 C 168.542969 101.554688 169.082031 97.230469 167.296875 93.8125 C 170.175781 92.265625 173.222656 90.992188 176.40625 90.027344 C 177.554688 93.710938 181 96.394531 185.058594 96.394531 L 196.714844 96.394531 C 200.773438 96.394531 204.21875 93.710938 205.371094 90.027344 C 208.550781 90.992188 211.597656 92.265625 214.476562 93.8125 C 212.691406 97.230469 213.230469 101.554688 216.097656 104.421875 L 224.339844 112.667969 C 227.246094 115.570312 231.578125 116.0625 234.953125 114.289062 C 236.5 117.167969 237.773438 120.214844 238.738281 123.394531 C 235.050781 124.546875 232.371094 127.988281 232.371094 132.046875 L 232.371094 143.707031 C 232.371094 147.765625 235.050781 151.210938 238.738281 152.359375 C 237.773438 155.539062 236.5 158.585938 234.953125 161.46875 Z M 236.625 143.707031 L 236.625 132.046875 C 236.625 129.972656 237.949219 128.195312 239.796875 127.527344 C 241.203125 134.179688 241.273438 141.25 239.796875 148.226562 C 237.949219 147.558594 236.625 145.785156 236.625 143.707031 Z M 236.625 143.707031 "/></g><g clip-rule="nonzero" clip-path="url(#8c1b18799f)"><g clip-rule="nonzero" clip-path="url(#d638bef2c1)"><path style=" stroke:none;fill-rule:nonzero;fill:#0f172a;fill-opacity:1;" d="M 166.042969 113.03125 L 215.742188 113.03125 L 215.742188 162.734375 L 166.042969 162.734375 Z M 166.042969 113.03125 "/></g></g><g style="fill:#ffffff;fill-opacity:1;"><g transform="translate(172.947737, 157.160036)"><path style="stroke:none" d="M 41.765625 -31.4375 C 41.765625 -29.320312 41.109375 -27.445312 39.796875 -25.8125 C 38.484375 -24.175781 36.757812 -22.800781 34.625 -21.6875 C 32.5 -20.570312 30.226562 -19.691406 27.8125 -19.046875 C 29.539062 -18.304688 31.003906 -17.28125 32.203125 -15.96875 C 33.410156 -14.65625 34.015625 -13.054688 34.015625 -11.171875 C 34.015625 -9.660156 33.59375 -8.148438 32.75 -6.640625 C 31.914062 -5.140625 30.742188 -3.773438 29.234375 -2.546875 C 27.734375 -1.316406 25.992188 -0.328125 24.015625 0.421875 C 22.035156 1.171875 19.882812 1.546875 17.5625 1.546875 C 15.488281 1.546875 13.847656 1.253906 12.640625 0.671875 C 11.441406 0.0976562 10.5625 -0.640625 10 -1.546875 C 9.445312 -2.453125 9.082031 -3.378906 8.90625 -4.328125 C 8.394531 -3.203125 7.953125 -2.164062 7.578125 -1.21875 C 7.210938 -0.28125 6.945312 0.554688 6.78125 1.296875 C 6.644531 1.722656 6.320312 1.9375 5.8125 1.9375 C 5.25 1.9375 4.601562 1.71875 3.875 1.28125 C 3.144531 0.851562 2.519531 0.222656 2 -0.609375 C 1.476562 -1.453125 1.242188 -2.429688 1.296875 -3.546875 C 1.335938 -4.535156 1.753906 -6 2.546875 -7.9375 C 3.347656 -9.875 4.390625 -12.035156 5.671875 -14.421875 C 6.960938 -16.816406 8.382812 -19.25 9.9375 -21.71875 C 11.488281 -24.195312 13.046875 -26.507812 14.609375 -28.65625 C 16.179688 -30.8125 17.640625 -32.578125 18.984375 -33.953125 C 16.441406 -33.222656 13.984375 -32.382812 11.609375 -31.4375 C 9.242188 -30.488281 7.160156 -29.601562 5.359375 -28.78125 C 4.929688 -28.570312 4.609375 -28.46875 4.390625 -28.46875 C 3.742188 -28.46875 3.421875 -28.941406 3.421875 -29.890625 C 3.421875 -31.085938 3.976562 -32.234375 5.09375 -33.328125 C 6.21875 -34.429688 7.691406 -35.445312 9.515625 -36.375 C 11.347656 -37.300781 13.382812 -38.109375 15.625 -38.796875 C 17.863281 -39.484375 20.109375 -40.019531 22.359375 -40.40625 C 24.617188 -40.789062 26.71875 -40.984375 28.65625 -40.984375 C 31.363281 -40.984375 33.695312 -40.5625 35.65625 -39.71875 C 37.613281 -38.882812 39.117188 -37.742188 40.171875 -36.296875 C 41.234375 -34.859375 41.765625 -33.238281 41.765625 -31.4375 Z M 17.75 -20.84375 C 19.5625 -21.1875 21.507812 -21.703125 23.59375 -22.390625 C 25.675781 -23.085938 27.628906 -23.929688 29.453125 -24.921875 C 31.285156 -25.910156 32.796875 -27.003906 33.984375 -28.203125 C 35.171875 -29.410156 35.765625 -30.722656 35.765625 -32.140625 C 35.765625 -34.503906 33.675781 -35.6875 29.5 -35.6875 C 28.03125 -35.6875 26.476562 -35.5625 24.84375 -35.3125 C 25.1875 -35.007812 25.46875 -34.675781 25.6875 -34.3125 C 25.90625 -33.945312 26.015625 -33.613281 26.015625 -33.3125 C 26.015625 -33.050781 25.925781 -32.832031 25.75 -32.65625 C 24.71875 -31.457031 23.503906 -29.8125 22.109375 -27.71875 C 20.710938 -25.632812 19.257812 -23.34375 17.75 -20.84375 Z M 15.5625 -4.515625 C 16.976562 -4.515625 18.40625 -4.78125 19.84375 -5.3125 C 21.289062 -5.851562 22.613281 -6.566406 23.8125 -7.453125 C 25.019531 -8.335938 25.988281 -9.296875 26.71875 -10.328125 C 27.445312 -11.359375 27.8125 -12.367188 27.8125 -13.359375 C 27.8125 -14.484375 27.328125 -15.351562 26.359375 -15.96875 C 25.398438 -16.59375 23.992188 -16.90625 22.140625 -16.90625 C 20.929688 -16.90625 19.722656 -16.785156 18.515625 -16.546875 C 17.316406 -16.316406 16.03125 -15.988281 14.65625 -15.5625 C 14.007812 -14.351562 13.375 -13.164062 12.75 -12 C 12.125 -10.84375 11.53125 -9.703125 10.96875 -8.578125 C 10.925781 -8.453125 10.90625 -8.28125 10.90625 -8.0625 C 10.90625 -6.988281 11.289062 -6.128906 12.0625 -5.484375 C 12.84375 -4.835938 14.007812 -4.515625 15.5625 -4.515625 Z M 15.5625 -4.515625 "/></g></g><g style="fill:#0f172a;fill-opacity:1;"><g transform="translate(20.938988, 268.959006)"><path style="stroke:none" d="M 43 -6.0625 C 38.3125 -2.164062 32.957031 -0.21875 26.9375 -0.21875 C 20.125 -0.21875 14.300781 -2.632812 9.46875 -7.46875 C 4.632812 -12.300781 2.21875 -18.125 2.21875 -24.9375 C 2.21875 -31.789062 4.632812 -37.632812 9.46875 -42.46875 C 14.300781 -47.3125 20.125 -49.734375 26.9375 -49.734375 C 33 -49.734375 38.351562 -47.757812 43 -43.8125 L 35.59375 -36.484375 C 33.070312 -38.410156 30.1875 -39.375 26.9375 -39.375 C 22.988281 -39.375 19.609375 -37.96875 16.796875 -35.15625 C 13.984375 -32.34375 12.578125 -28.9375 12.578125 -24.9375 C 12.578125 -20.988281 13.984375 -17.609375 16.796875 -14.796875 C 19.609375 -11.984375 22.988281 -10.578125 26.9375 -10.578125 C 30.1875 -10.578125 33.070312 -11.539062 35.59375 -13.46875 Z M 43 -6.0625 "/></g></g><g style="fill:#0f172a;fill-opacity:1;"><g transform="translate(65.334153, 268.959006)"><path style="stroke:none" d="M 12.578125 -32.40625 C 13.421875 -34.78125 14.828125 -36.4375 16.796875 -37.375 C 18.722656 -38.3125 21.609375 -38.78125 25.453125 -38.78125 L 25.453125 -28.1875 C 21.703125 -28.1875 18.570312 -26.90625 16.0625 -24.34375 C 13.738281 -22.070312 12.578125 -19.582031 12.578125 -16.875 L 12.578125 0 L 2.21875 0 L 2.21875 -38.109375 L 12.578125 -38.109375 Z M 12.578125 -32.40625 "/></g></g><g style="fill:#0f172a;fill-opacity:1;"><g transform="translate(91.897331, 268.959006)"><path style="stroke:none" d="M 38.109375 -38.1875 L 23.09375 1.703125 C 21.457031 5.648438 18.863281 8.78125 15.3125 11.09375 C 11.757812 13.414062 7.890625 14.53125 3.703125 14.4375 L 3.703125 4.0625 C 5.234375 4.113281 6.757812 3.796875 8.28125 3.109375 C 10.457031 2.117188 12.085938 0.566406 13.171875 -1.546875 L 15.25 -7.25 L 2.21875 -38.1875 L 13.609375 -38.1875 L 20.5 -21.53125 L 26.640625 -38.1875 Z M 38.109375 -38.1875 "/></g></g><g style="fill:#0f172a;fill-opacity:1;"><g transform="translate(131.853058, 268.959006)"><path style="stroke:none" d="M 22.046875 -38.109375 C 27.273438 -38.160156 31.765625 -36.335938 35.515625 -32.640625 C 39.265625 -28.929688 41.164062 -24.441406 41.21875 -19.171875 C 41.269531 -13.941406 39.441406 -9.453125 35.734375 -5.703125 C 32.035156 -1.953125 27.550781 -0.0507812 22.28125 0 C 17.988281 0 14.753906 -1.351562 12.578125 -4.0625 L 12.578125 14.203125 L 2.21875 14.203125 L 2.21875 -38.03125 L 12.578125 -38.03125 L 12.578125 -34.046875 C 14.597656 -36.660156 17.753906 -38.015625 22.046875 -38.109375 Z M 28.859375 -12.4375 C 30.734375 -14.3125 31.625 -16.53125 31.53125 -19.09375 C 31.53125 -21.707031 30.613281 -23.925781 28.78125 -25.75 C 26.90625 -27.53125 24.6875 -28.421875 22.125 -28.421875 C 19.507812 -28.421875 17.289062 -27.503906 15.46875 -25.671875 C 13.644531 -23.753906 12.734375 -21.535156 12.734375 -19.015625 C 12.828125 -16.347656 13.765625 -14.128906 15.546875 -12.359375 C 17.367188 -10.535156 19.585938 -9.625 22.203125 -9.625 C 24.867188 -9.71875 27.085938 -10.65625 28.859375 -12.4375 Z M 28.859375 -12.4375 "/></g></g><g style="fill:#0f172a;fill-opacity:1;"><g transform="translate(171.660722, 268.959006)"><path style="stroke:none" d="M 29.671875 -38.109375 L 29.671875 -27.75 L 21.15625 -27.75 L 21.15625 0 L 10.796875 0 L 10.796875 -27.75 L 2.21875 -27.75 L 2.21875 -38.109375 L 10.796875 -38.109375 L 10.796875 -51.4375 L 21.15625 -51.4375 L 21.15625 -38.109375 Z M 29.671875 -38.109375 "/></g></g><g style="fill:#0f172a;fill-opacity:1;"><g transform="translate(201.331485, 268.959006)"><path style="stroke:none" d="M 19.765625 -38.109375 C 25.035156 -38.160156 29.519531 -36.335938 33.21875 -32.640625 C 36.96875 -28.890625 38.84375 -24.398438 38.84375 -19.171875 C 38.894531 -13.890625 37.070312 -9.398438 33.375 -5.703125 C 29.675781 -1.953125 25.210938 -0.0507812 19.984375 0 C 14.703125 0.0507812 10.1875 -1.769531 6.4375 -5.46875 C 2.6875 -9.175781 0.8125 -13.664062 0.8125 -18.9375 C 0.757812 -24.21875 2.585938 -28.707031 6.296875 -32.40625 C 9.992188 -36.15625 14.484375 -38.054688 19.765625 -38.109375 Z M 26.484375 -12.4375 C 28.316406 -14.257812 29.234375 -16.476562 29.234375 -19.09375 C 29.234375 -21.65625 28.296875 -23.875 26.421875 -25.75 C 24.546875 -27.53125 22.328125 -28.421875 19.765625 -28.421875 C 17.191406 -28.421875 14.992188 -27.503906 13.171875 -25.671875 C 11.347656 -23.753906 10.4375 -21.535156 10.4375 -19.015625 C 10.4375 -16.453125 11.375 -14.234375 13.25 -12.359375 C 15.070312 -10.535156 17.289062 -9.625 19.90625 -9.625 C 22.570312 -9.71875 24.765625 -10.65625 26.484375 -12.4375 Z M 26.484375 -12.4375 "/></g></g><g style="fill:#0f172a;fill-opacity:1;"><g transform="translate(238.401437, 268.959006)"><path style="stroke:none" d="M 38.484375 -26.9375 C 39.460938 -26.488281 40.445312 -25.597656 41.4375 -24.265625 C 43.414062 -21.648438 44.40625 -18.175781 44.40625 -13.84375 C 44.40625 -8.5625 42.109375 -4.660156 37.515625 -2.140625 C 35.203125 -0.910156 32.882812 -0.195312 30.5625 0 L 4.4375 0 L 4.4375 -48.09375 L 26.71875 -48.09375 C 28.539062 -48.09375 30.488281 -47.703125 32.5625 -46.921875 C 36.65625 -45.335938 39.269531 -42.597656 40.40625 -38.703125 C 41.238281 -35.890625 41.164062 -33.078125 40.1875 -30.265625 C 39.6875 -28.878906 39.117188 -27.769531 38.484375 -26.9375 Z M 15.984375 -39.140625 L 15.984375 -28.421875 L 26.265625 -28.421875 C 27.742188 -28.421875 29.03125 -28.9375 30.125 -29.96875 C 31.15625 -31.007812 31.671875 -32.269531 31.671875 -33.75 C 31.671875 -35.269531 31.15625 -36.550781 30.125 -37.59375 C 29.03125 -38.625 27.742188 -39.140625 26.265625 -39.140625 Z M 35.375 -14.203125 C 35.375 -15.679688 34.851562 -16.96875 33.8125 -18.0625 C 32.78125 -19.09375 31.523438 -19.609375 30.046875 -19.609375 L 15.984375 -19.609375 L 15.984375 -8.875 L 30.046875 -8.875 C 31.523438 -8.875 32.78125 -9.394531 33.8125 -10.4375 C 34.851562 -11.46875 35.375 -12.722656 35.375 -14.203125 Z M 35.375 -14.203125 "/></g></g><g style="fill:#0f172a;fill-opacity:1;"><g transform="translate(285.016493, 268.959006)"><path style="stroke:none" d="M 38.921875 -17.390625 C 38.972656 -16.359375 38.972656 -15.742188 38.921875 -15.546875 L 11.09375 -15.609375 C 11.488281 -14.472656 12.207031 -13.390625 13.25 -12.359375 C 15.164062 -10.535156 17.382812 -9.625 19.90625 -9.625 C 22.570312 -9.71875 24.789062 -10.65625 26.5625 -12.4375 L 26.859375 -12.734375 L 36.484375 -9.6875 C 34.359375 -6.382812 32.140625 -4.019531 29.828125 -2.59375 C 27.210938 -0.914062 23.929688 -0.0507812 19.984375 0 C 14.753906 0.0507812 10.265625 -1.769531 6.515625 -5.46875 C 2.765625 -9.175781 0.863281 -13.664062 0.8125 -18.9375 C 0.757812 -24.164062 2.585938 -28.65625 6.296875 -32.40625 C 9.992188 -36.15625 14.484375 -38.054688 19.765625 -38.109375 C 24.992188 -38.160156 29.476562 -36.335938 33.21875 -32.640625 C 36.96875 -28.929688 38.867188 -24.441406 38.921875 -19.171875 Z M 19.828125 -28.421875 C 17.210938 -28.421875 14.992188 -27.503906 13.171875 -25.671875 C 12.234375 -24.640625 11.566406 -23.601562 11.171875 -22.5625 L 28.5625 -22.5625 C 28.164062 -23.601562 27.472656 -24.664062 26.484375 -25.75 C 24.617188 -27.53125 22.398438 -28.421875 19.828125 -28.421875 Z M 19.828125 -28.421875 "/></g></g><g style="fill:#0f172a;fill-opacity:1;"><g transform="translate(322.160442, 268.959006)"><path style="stroke:none" d="M 29.671875 -38.109375 L 29.671875 -27.75 L 21.15625 -27.75 L 21.15625 0 L 10.796875 0 L 10.796875 -27.75 L 2.21875 -27.75 L 2.21875 -38.109375 L 10.796875 -38.109375 L 10.796875 -51.4375 L 21.15625 -51.4375 L 21.15625 -38.109375 Z M 29.671875 -38.109375 "/></g></g></g></svg>