<svg xmlns="http://www.w3.org/2000/svg" xmlns:xlink="http://www.w3.org/1999/xlink" width="500" zoomAndPan="magnify" viewBox="0 0 375 374.999991" height="500" preserveAspectRatio="xMidYMid meet" version="1.2"><defs><clipPath id="b6e14473ae"><path d="M 37.5 37.5 L 337.296875 37.5 L 337.296875 337.296875 L 37.5 337.296875 Z M 37.5 37.5 "/></clipPath><clipPath id="ac187dd966"><path d="M 187.398438 37.5 C 104.613281 37.5 37.5 104.613281 37.5 187.398438 C 37.5 270.183594 104.613281 337.296875 187.398438 337.296875 C 270.183594 337.296875 337.296875 270.183594 337.296875 187.398438 C 337.296875 104.613281 270.183594 37.5 187.398438 37.5 Z M 187.398438 37.5 "/></clipPath><clipPath id="5ec46685b0"><path d="M 60.855469 60.855469 L 314.34375 60.855469 L 314.34375 314.34375 L 60.855469 314.34375 Z M 60.855469 60.855469 "/></clipPath><clipPath id="4c4b66baae"><path d="M 129.488281 129.488281 L 245.511719 129.488281 L 245.511719 245.511719 L 129.488281 245.511719 Z M 129.488281 129.488281 "/></clipPath><clipPath id="d7fddf527a"><path d="M 187.5 129.488281 C 155.460938 129.488281 129.488281 155.460938 129.488281 187.5 C 129.488281 219.539062 155.460938 245.511719 187.5 245.511719 C 219.539062 245.511719 245.511719 219.539062 245.511719 187.5 C 245.511719 155.460938 219.539062 129.488281 187.5 129.488281 Z M 187.5 129.488281 "/></clipPath></defs><g id="c87625f08b"><g clip-rule="nonzero" clip-path="url(#b6e14473ae)"><g clip-rule="nonzero" clip-path="url(#ac187dd966)"><path style="fill:none;stroke-width:36.925182;stroke-linecap:butt;stroke-linejoin:miter;stroke:#0f172a;stroke-opacity:1;stroke-miterlimit:4;" d="M 246.165292 0.00000404395 C 110.214359 0.00000404395 -0.00000334601 110.214366 -0.00000334601 246.165299 C -0.00000334601 382.116232 110.214359 492.330594 246.165292 492.330594 C 382.116225 492.330594 492.330587 382.116232 492.330587 246.165299 C 492.330587 110.214366 382.116225 0.00000404395 246.165292 0.00000404395 Z M 246.165292 0.00000404395 " transform="matrix(0.608934,0,0,0.608934,37.500002,37.499998)"/></g></g><path style=" stroke:none;fill-rule:nonzero;fill:#ea580c;fill-opacity:1;" d="M 187.5 153.566406 L 154.722656 186.347656 C 149.585938 191.488281 149.582031 199.851562 154.722656 204.988281 C 159.859375 210.125 168.222656 210.125 173.363281 204.988281 L 183.867188 194.484375 C 185.835938 192.363281 189.164062 192.367188 191.132812 194.484375 L 201.636719 204.988281 C 206.777344 210.125 215.140625 210.125 220.277344 204.988281 C 225.414062 199.851562 225.414062 191.488281 220.277344 186.34375 Z M 187.5 153.566406 "/><path style=" stroke:none;fill-rule:nonzero;fill:#ea580c;fill-opacity:1;" d="M 187.5 100.585938 C 139.578125 100.585938 100.585938 139.578125 100.585938 187.5 C 100.585938 235.421875 139.578125 274.410156 187.5 274.410156 C 235.421875 274.410156 274.410156 235.421875 274.410156 187.5 C 274.410156 139.578125 235.421875 100.585938 187.5 100.585938 Z M 227.300781 212.011719 C 218.289062 221.023438 203.625 221.023438 194.613281 212.011719 L 192.464844 209.863281 L 192.464844 228.453125 C 192.464844 231.195312 190.242188 233.421875 187.5 233.421875 C 184.757812 233.421875 182.53125 231.195312 182.53125 228.453125 L 182.53125 209.863281 L 180.386719 212.011719 C 171.375 221.023438 156.710938 221.023438 147.699219 212.011719 C 138.691406 203.003906 138.6875 188.339844 147.695312 179.324219 L 183.988281 143.03125 C 185.925781 141.09375 189.070312 141.09375 191.011719 143.03125 L 227.300781 179.324219 C 236.308594 188.339844 236.308594 203.003906 227.300781 212.011719 Z M 227.300781 212.011719 "/><g clip-rule="nonzero" clip-path="url(#5ec46685b0)"><path style=" stroke:none;fill-rule:nonzero;fill:#ea580c;fill-opacity:1;" d="M 187.5 60.855469 C 117.507812 60.855469 60.855469 117.5 60.855469 187.5 C 60.855469 257.492188 117.496094 314.140625 187.5 314.140625 C 257.492188 314.140625 314.140625 257.5 314.140625 187.5 C 314.140625 117.507812 257.5 60.855469 187.5 60.855469 Z M 251.148438 89.71875 C 264.75 98.605469 276.394531 110.25 285.28125 123.855469 C 281.050781 125.824219 276.007812 125 272.625 121.617188 L 253.378906 102.375 C 249.964844 98.957031 249.226562 93.871094 251.148438 89.71875 Z M 211.664062 73.3125 C 210.097656 77.628906 205.957031 80.722656 201.105469 80.722656 L 173.890625 80.722656 C 169.039062 80.722656 164.898438 77.628906 163.335938 73.3125 C 178.863281 70.027344 195.375 69.867188 211.664062 73.3125 Z M 123.851562 89.71875 C 125.773438 93.871094 125.035156 98.957031 121.617188 102.375 L 102.375 121.617188 C 98.996094 124.996094 93.953125 125.824219 89.714844 123.855469 C 98.601562 110.25 110.246094 98.605469 123.851562 89.71875 Z M 73.3125 163.335938 C 77.628906 164.898438 80.722656 169.039062 80.722656 173.890625 L 80.722656 201.105469 C 80.722656 205.957031 77.628906 210.097656 73.3125 211.664062 C 70.027344 196.132812 69.867188 179.625 73.3125 163.335938 Z M 123.851562 285.277344 C 110.25 276.394531 98.605469 264.75 89.71875 251.148438 C 93.871094 249.226562 98.957031 249.964844 102.375 253.378906 L 121.617188 272.625 C 125.035156 276.042969 125.773438 281.128906 123.851562 285.277344 Z M 163.335938 301.6875 C 164.898438 297.371094 169.039062 294.277344 173.890625 294.277344 L 201.105469 294.277344 C 205.957031 294.277344 210.097656 297.371094 211.664062 301.6875 C 196.101562 304.976562 179.59375 305.125 163.335938 301.6875 Z M 251.148438 285.277344 C 249.226562 281.128906 249.964844 276.042969 253.378906 272.625 L 272.625 253.378906 C 276.042969 249.960938 281.128906 249.226562 285.277344 251.144531 C 276.394531 264.75 264.75 276.394531 251.148438 285.277344 Z M 290.375 242.570312 C 282.394531 238.402344 272.296875 239.664062 265.601562 246.355469 L 246.355469 265.601562 C 239.664062 272.296875 238.402344 282.394531 242.570312 290.375 C 235.847656 293.988281 228.734375 296.957031 221.308594 299.210938 C 218.625 290.605469 210.582031 284.34375 201.105469 284.34375 L 173.890625 284.34375 C 164.414062 284.34375 156.375 290.605469 153.691406 299.210938 C 146.265625 296.957031 139.148438 293.988281 132.425781 290.375 C 136.597656 282.394531 135.335938 272.292969 128.640625 265.601562 L 109.398438 246.355469 C 102.703125 239.664062 92.605469 238.402344 84.625 242.570312 C 81.011719 235.847656 78.039062 228.734375 75.789062 221.308594 C 84.394531 218.625 90.65625 210.582031 90.65625 201.105469 L 90.65625 173.890625 C 90.65625 164.414062 84.394531 156.375 75.789062 153.691406 C 78.039062 146.265625 81.011719 139.152344 84.621094 132.433594 C 92.496094 136.566406 102.609375 135.433594 109.398438 128.640625 L 128.640625 109.398438 C 135.335938 102.703125 136.597656 92.601562 132.425781 84.625 C 139.148438 81.011719 146.265625 78.042969 153.691406 75.789062 C 156.375 84.394531 164.414062 90.65625 173.890625 90.65625 L 201.105469 90.65625 C 210.582031 90.65625 218.625 84.394531 221.308594 75.789062 C 228.734375 78.042969 235.847656 81.011719 242.570312 84.625 C 238.402344 92.605469 239.664062 102.703125 246.355469 109.398438 L 265.601562 128.640625 C 272.382812 135.425781 282.492188 136.570312 290.375 132.433594 C 293.988281 139.152344 296.957031 146.265625 299.210938 153.691406 C 290.605469 156.375 284.34375 164.414062 284.34375 173.890625 L 284.34375 201.105469 C 284.34375 210.582031 290.605469 218.625 299.210938 221.308594 C 296.957031 228.734375 293.988281 235.851562 290.375 242.570312 Z M 294.277344 201.105469 L 294.277344 173.890625 C 294.277344 169.039062 297.371094 164.898438 301.6875 163.335938 C 304.96875 178.867188 305.128906 195.375 301.6875 211.664062 C 297.371094 210.097656 294.277344 205.957031 294.277344 201.105469 Z M 294.277344 201.105469 "/></g><g clip-rule="nonzero" clip-path="url(#4c4b66baae)"><g clip-rule="nonzero" clip-path="url(#d7fddf527a)"><path style=" stroke:none;fill-rule:nonzero;fill:#ea580c;fill-opacity:1;" d="M 129.488281 129.488281 L 245.511719 129.488281 L 245.511719 245.511719 L 129.488281 245.511719 Z M 129.488281 129.488281 "/></g></g><g style="fill:#0f172a;fill-opacity:1;"><g transform="translate(145.609375, 232.499997)"><path style="stroke:none" d="M 97.46875 -73.375 C 97.46875 -68.445312 95.9375 -64.070312 92.875 -60.25 C 89.8125 -56.4375 85.796875 -53.222656 80.828125 -50.609375 C 75.859375 -48.003906 70.5625 -45.945312 64.9375 -44.4375 C 68.945312 -42.726562 72.359375 -40.34375 75.171875 -37.28125 C 77.984375 -34.21875 79.390625 -30.476562 79.390625 -26.0625 C 79.390625 -22.550781 78.410156 -19.035156 76.453125 -15.515625 C 74.492188 -12.003906 71.753906 -8.816406 68.234375 -5.953125 C 64.722656 -3.085938 60.65625 -0.78125 56.03125 0.96875 C 51.414062 2.726562 46.398438 3.609375 40.984375 3.609375 C 36.160156 3.609375 32.34375 2.929688 29.53125 1.578125 C 26.71875 0.222656 24.65625 -1.503906 23.34375 -3.609375 C 22.039062 -5.722656 21.191406 -7.882812 20.796875 -10.09375 C 19.585938 -7.476562 18.554688 -5.066406 17.703125 -2.859375 C 16.847656 -0.648438 16.21875 1.304688 15.8125 3.015625 C 15.507812 4.015625 14.757812 4.515625 13.5625 4.515625 C 12.25 4.515625 10.738281 4.007812 9.03125 3 C 7.332031 2 5.878906 0.519531 4.671875 -1.4375 C 3.460938 -3.394531 2.910156 -5.675781 3.015625 -8.28125 C 3.109375 -10.59375 4.082031 -14.007812 5.9375 -18.53125 C 7.800781 -23.050781 10.238281 -28.097656 13.25 -33.671875 C 16.269531 -39.242188 19.585938 -44.914062 23.203125 -50.6875 C 26.816406 -56.46875 30.457031 -61.867188 34.125 -66.890625 C 37.789062 -71.910156 41.179688 -76.03125 44.296875 -79.25 C 38.367188 -77.539062 32.640625 -75.582031 27.109375 -73.375 C 21.585938 -71.164062 16.71875 -69.101562 12.5 -67.1875 C 11.5 -66.6875 10.75 -66.4375 10.25 -66.4375 C 8.738281 -66.4375 7.984375 -67.539062 7.984375 -69.75 C 7.984375 -72.5625 9.285156 -75.25 11.890625 -77.8125 C 14.503906 -80.375 17.945312 -82.734375 22.21875 -84.890625 C 26.488281 -87.054688 31.234375 -88.941406 36.453125 -90.546875 C 41.679688 -92.148438 46.929688 -93.40625 52.203125 -94.3125 C 57.472656 -95.21875 62.367188 -95.671875 66.890625 -95.671875 C 73.210938 -95.671875 78.660156 -94.691406 83.234375 -92.734375 C 87.804688 -90.773438 91.320312 -88.113281 93.78125 -84.75 C 96.238281 -81.382812 97.46875 -77.59375 97.46875 -73.375 Z M 41.4375 -48.65625 C 45.65625 -49.46875 50.195312 -50.675781 55.0625 -52.28125 C 59.9375 -53.882812 64.503906 -55.84375 68.765625 -58.15625 C 73.035156 -60.46875 76.550781 -63.03125 79.3125 -65.84375 C 82.082031 -68.65625 83.46875 -71.71875 83.46875 -75.03125 C 83.46875 -80.550781 78.59375 -83.3125 68.84375 -83.3125 C 65.4375 -83.3125 61.820312 -83.007812 58 -82.40625 C 58.800781 -81.707031 59.453125 -80.929688 59.953125 -80.078125 C 60.460938 -79.222656 60.71875 -78.441406 60.71875 -77.734375 C 60.71875 -77.128906 60.515625 -76.628906 60.109375 -76.234375 C 57.703125 -73.421875 54.863281 -69.578125 51.59375 -64.703125 C 48.332031 -59.835938 44.945312 -54.488281 41.4375 -48.65625 Z M 36.3125 -10.546875 C 39.625 -10.546875 42.960938 -11.171875 46.328125 -12.421875 C 49.691406 -13.679688 52.78125 -15.335938 55.59375 -17.390625 C 58.40625 -19.453125 60.664062 -21.6875 62.375 -24.09375 C 64.082031 -26.507812 64.9375 -28.875 64.9375 -31.1875 C 64.9375 -33.800781 63.804688 -35.832031 61.546875 -37.28125 C 59.285156 -38.738281 55.992188 -39.46875 51.671875 -39.46875 C 48.859375 -39.46875 46.046875 -39.191406 43.234375 -38.640625 C 40.421875 -38.085938 37.410156 -37.3125 34.203125 -36.3125 C 32.691406 -33.5 31.207031 -30.734375 29.75 -28.015625 C 28.289062 -25.304688 26.910156 -22.644531 25.609375 -20.03125 C 25.503906 -19.726562 25.453125 -19.328125 25.453125 -18.828125 C 25.453125 -16.316406 26.359375 -14.304688 28.171875 -12.796875 C 29.984375 -11.296875 32.695312 -10.546875 36.3125 -10.546875 Z M 36.3125 -10.546875 "/></g></g></g></svg>