<svg xmlns="http://www.w3.org/2000/svg" xmlns:xlink="http://www.w3.org/1999/xlink" width="500" zoomAndPan="magnify" viewBox="0 0 375 374.999991" height="500" preserveAspectRatio="xMidYMid meet" version="1.2"><defs/><g id="635993eb5e"><g style="fill:#ffffff;fill-opacity:1;"><g transform="translate(18.772975, 215.624986)"><path style="stroke:none" d="M 43.546875 -6.140625 C 38.796875 -2.191406 33.375 -0.21875 27.28125 -0.21875 C 20.382812 -0.21875 14.488281 -2.664062 9.59375 -7.5625 C 4.695312 -12.46875 2.25 -18.367188 2.25 -25.265625 C 2.25 -32.203125 4.695312 -38.117188 9.59375 -43.015625 C 14.488281 -47.921875 20.382812 -50.375 27.28125 -50.375 C 33.425781 -50.375 38.847656 -48.375 43.546875 -44.375 L 36.046875 -36.953125 C 33.503906 -38.898438 30.582031 -39.875 27.28125 -39.875 C 23.28125 -39.875 19.859375 -38.453125 17.015625 -35.609375 C 14.160156 -32.753906 12.734375 -29.304688 12.734375 -25.265625 C 12.734375 -21.265625 14.160156 -17.835938 17.015625 -14.984375 C 19.859375 -12.140625 23.28125 -10.71875 27.28125 -10.71875 C 30.582031 -10.71875 33.503906 -11.691406 36.046875 -13.640625 Z M 43.546875 -6.140625 "/></g></g><g style="fill:#ffffff;fill-opacity:1;"><g transform="translate(63.744751, 215.624986)"><path style="stroke:none" d="M 12.734375 -32.828125 C 13.585938 -35.222656 15.015625 -36.894531 17.015625 -37.84375 C 18.960938 -38.800781 21.882812 -39.28125 25.78125 -39.28125 L 25.78125 -28.5625 C 21.988281 -28.5625 18.816406 -27.257812 16.265625 -24.65625 C 13.910156 -22.363281 12.734375 -19.84375 12.734375 -17.09375 L 12.734375 0 L 2.25 0 L 2.25 -38.59375 L 12.734375 -38.59375 Z M 12.734375 -32.828125 "/></g></g><g style="fill:#ffffff;fill-opacity:1;"><g transform="translate(90.65291, 215.624986)"><path style="stroke:none" d="M 38.59375 -38.671875 L 23.390625 1.71875 C 21.734375 5.71875 19.109375 8.894531 15.515625 11.25 C 11.921875 13.59375 8 14.710938 3.75 14.609375 L 3.75 4.125 C 5.300781 4.175781 6.847656 3.847656 8.390625 3.140625 C 10.585938 2.148438 12.238281 0.578125 13.34375 -1.578125 L 15.4375 -7.34375 L 2.25 -38.671875 L 13.796875 -38.671875 L 20.765625 -21.8125 L 26.984375 -38.671875 Z M 38.59375 -38.671875 "/></g></g><g style="fill:#ffffff;fill-opacity:1;"><g transform="translate(131.127559, 215.624986)"><path style="stroke:none" d="M 22.34375 -38.59375 C 27.632812 -38.644531 32.179688 -36.796875 35.984375 -33.046875 C 39.773438 -29.304688 41.695312 -24.757812 41.75 -19.40625 C 41.800781 -14.113281 39.953125 -9.566406 36.203125 -5.765625 C 32.453125 -1.972656 27.90625 -0.0507812 22.5625 0 C 18.21875 0 14.941406 -1.375 12.734375 -4.125 L 12.734375 14.390625 L 2.25 14.390625 L 2.25 -38.53125 L 12.734375 -38.53125 L 12.734375 -34.484375 C 14.785156 -37.128906 17.988281 -38.5 22.34375 -38.59375 Z M 29.234375 -12.59375 C 31.128906 -14.488281 32.03125 -16.738281 31.9375 -19.34375 C 31.9375 -21.988281 31.007812 -24.234375 29.15625 -26.078125 C 27.257812 -27.878906 25.007812 -28.78125 22.40625 -28.78125 C 19.757812 -28.78125 17.515625 -27.859375 15.671875 -26.015625 C 13.816406 -24.054688 12.890625 -21.804688 12.890625 -19.265625 C 12.992188 -16.566406 13.941406 -14.316406 15.734375 -12.515625 C 17.585938 -10.671875 19.835938 -9.75 22.484375 -9.75 C 25.179688 -9.84375 27.429688 -10.789062 29.234375 -12.59375 Z M 29.234375 -12.59375 "/></g></g><g style="fill:#ffffff;fill-opacity:1;"><g transform="translate(171.452256, 215.624986)"><path style="stroke:none" d="M 30.0625 -38.59375 L 30.0625 -28.109375 L 21.4375 -28.109375 L 21.4375 0 L 10.9375 0 L 10.9375 -28.109375 L 2.25 -28.109375 L 2.25 -38.59375 L 10.9375 -38.59375 L 10.9375 -52.09375 L 21.4375 -52.09375 L 21.4375 -38.59375 Z M 30.0625 -38.59375 "/></g></g><g style="fill:#ffffff;fill-opacity:1;"><g transform="translate(201.508387, 215.624986)"><path style="stroke:none" d="M 20.015625 -38.59375 C 25.359375 -38.644531 29.90625 -36.796875 33.65625 -33.046875 C 37.445312 -29.253906 39.34375 -24.707031 39.34375 -19.40625 C 39.394531 -14.0625 37.546875 -9.515625 33.796875 -5.765625 C 30.054688 -1.972656 25.535156 -0.0507812 20.234375 0 C 14.890625 0.0507812 10.316406 -1.796875 6.515625 -5.546875 C 2.722656 -9.296875 0.828125 -13.84375 0.828125 -19.1875 C 0.773438 -24.53125 2.625 -29.078125 6.375 -32.828125 C 10.125 -36.628906 14.671875 -38.550781 20.015625 -38.59375 Z M 26.828125 -12.59375 C 28.679688 -14.4375 29.609375 -16.6875 29.609375 -19.34375 C 29.609375 -21.9375 28.660156 -24.179688 26.765625 -26.078125 C 24.859375 -27.878906 22.609375 -28.78125 20.015625 -28.78125 C 17.410156 -28.78125 15.1875 -27.859375 13.34375 -26.015625 C 11.488281 -24.054688 10.5625 -21.804688 10.5625 -19.265625 C 10.5625 -16.660156 11.515625 -14.410156 13.421875 -12.515625 C 15.265625 -10.671875 17.507812 -9.75 20.15625 -9.75 C 22.851562 -9.84375 25.078125 -10.789062 26.828125 -12.59375 Z M 26.828125 -12.59375 "/></g></g><g style="fill:#ea580c;fill-opacity:1;"><g transform="translate(239.062023, 215.624986)"><path style="stroke:none" d="M 38.96875 -27.28125 C 39.96875 -26.832031 40.96875 -25.929688 41.96875 -24.578125 C 43.96875 -21.929688 44.96875 -18.410156 44.96875 -14.015625 C 44.96875 -8.671875 42.644531 -4.722656 38 -2.171875 C 35.65625 -0.921875 33.304688 -0.195312 30.953125 0 L 4.5 0 L 4.5 -48.71875 L 27.0625 -48.71875 C 28.90625 -48.71875 30.878906 -48.316406 32.984375 -47.515625 C 37.128906 -45.921875 39.773438 -43.148438 40.921875 -39.203125 C 41.773438 -36.347656 41.703125 -33.5 40.703125 -30.65625 C 40.203125 -29.257812 39.625 -28.132812 38.96875 -27.28125 Z M 16.1875 -39.65625 L 16.1875 -28.78125 L 26.609375 -28.78125 C 28.109375 -28.78125 29.40625 -29.304688 30.5 -30.359375 C 31.550781 -31.410156 32.078125 -32.679688 32.078125 -34.171875 C 32.078125 -35.722656 31.550781 -37.023438 30.5 -38.078125 C 29.40625 -39.128906 28.109375 -39.65625 26.609375 -39.65625 Z M 35.828125 -14.390625 C 35.828125 -15.890625 35.300781 -17.1875 34.25 -18.28125 C 33.195312 -19.332031 31.925781 -19.859375 30.4375 -19.859375 L 16.1875 -19.859375 L 16.1875 -9 L 30.4375 -9 C 31.925781 -9 33.195312 -9.519531 34.25 -10.5625 C 35.300781 -11.613281 35.828125 -12.890625 35.828125 -14.390625 Z M 35.828125 -14.390625 "/></g></g><g style="fill:#ea580c;fill-opacity:1;"><g transform="translate(286.28246, 215.624986)"><path style="stroke:none" d="M 39.421875 -17.609375 C 39.472656 -16.566406 39.472656 -15.941406 39.421875 -15.734375 L 11.25 -15.8125 C 11.644531 -14.664062 12.367188 -13.566406 13.421875 -12.515625 C 15.367188 -10.671875 17.613281 -9.75 20.15625 -9.75 C 22.851562 -9.84375 25.101562 -10.789062 26.90625 -12.59375 L 27.203125 -12.890625 L 36.953125 -9.8125 C 34.804688 -6.46875 32.554688 -4.070312 30.203125 -2.625 C 27.554688 -0.925781 24.234375 -0.0507812 20.234375 0 C 14.941406 0.0507812 10.394531 -1.796875 6.59375 -5.546875 C 2.800781 -9.296875 0.878906 -13.84375 0.828125 -19.1875 C 0.773438 -24.488281 2.625 -29.035156 6.375 -32.828125 C 10.125 -36.628906 14.671875 -38.550781 20.015625 -38.59375 C 25.304688 -38.644531 29.851562 -36.796875 33.65625 -33.046875 C 37.445312 -29.304688 39.367188 -24.757812 39.421875 -19.40625 Z M 20.09375 -28.78125 C 17.4375 -28.78125 15.1875 -27.859375 13.34375 -26.015625 C 12.394531 -24.960938 11.71875 -23.910156 11.3125 -22.859375 L 28.9375 -22.859375 C 28.53125 -23.910156 27.828125 -24.984375 26.828125 -26.078125 C 24.929688 -27.878906 22.6875 -28.78125 20.09375 -28.78125 Z M 20.09375 -28.78125 "/></g></g><g style="fill:#ea580c;fill-opacity:1;"><g transform="translate(323.908846, 215.624986)"><path style="stroke:none" d="M 30.0625 -38.59375 L 30.0625 -28.109375 L 21.4375 -28.109375 L 21.4375 0 L 10.9375 0 L 10.9375 -28.109375 L 2.25 -28.109375 L 2.25 -38.59375 L 10.9375 -38.59375 L 10.9375 -52.09375 L 21.4375 -52.09375 L 21.4375 -38.59375 Z M 30.0625 -38.59375 "/></g></g></g></svg>