<svg xmlns="http://www.w3.org/2000/svg" xmlns:xlink="http://www.w3.org/1999/xlink" width="500" zoomAndPan="magnify" viewBox="0 0 375 374.999991" height="500" preserveAspectRatio="xMidYMid meet" version="1.2"><defs/><g id="5e086f3a79"><g style="fill:#0f172a;fill-opacity:1;"><g transform="translate(20.940496, 214.499986)"><path style="stroke:none" d="M 43 -6.0625 C 38.3125 -2.164062 32.957031 -0.21875 26.9375 -0.21875 C 20.125 -0.21875 14.300781 -2.632812 9.46875 -7.46875 C 4.632812 -12.300781 2.21875 -18.125 2.21875 -24.9375 C 2.21875 -31.789062 4.632812 -37.632812 9.46875 -42.46875 C 14.300781 -47.3125 20.125 -49.734375 26.9375 -49.734375 C 33 -49.734375 38.351562 -47.757812 43 -43.8125 L 35.59375 -36.484375 C 33.070312 -38.410156 30.1875 -39.375 26.9375 -39.375 C 22.988281 -39.375 19.609375 -37.96875 16.796875 -35.15625 C 13.984375 -32.34375 12.578125 -28.9375 12.578125 -24.9375 C 12.578125 -20.988281 13.984375 -17.609375 16.796875 -14.796875 C 19.609375 -11.984375 22.988281 -10.578125 26.9375 -10.578125 C 30.1875 -10.578125 33.070312 -11.539062 35.59375 -13.46875 Z M 43 -6.0625 "/></g></g><g style="fill:#0f172a;fill-opacity:1;"><g transform="translate(65.335661, 214.499986)"><path style="stroke:none" d="M 12.578125 -32.40625 C 13.421875 -34.78125 14.828125 -36.4375 16.796875 -37.375 C 18.722656 -38.3125 21.609375 -38.78125 25.453125 -38.78125 L 25.453125 -28.1875 C 21.703125 -28.1875 18.570312 -26.90625 16.0625 -24.34375 C 13.738281 -22.070312 12.578125 -19.582031 12.578125 -16.875 L 12.578125 0 L 2.21875 0 L 2.21875 -38.109375 L 12.578125 -38.109375 Z M 12.578125 -32.40625 "/></g></g><g style="fill:#0f172a;fill-opacity:1;"><g transform="translate(91.898839, 214.499986)"><path style="stroke:none" d="M 38.109375 -38.1875 L 23.09375 1.703125 C 21.457031 5.648438 18.863281 8.78125 15.3125 11.09375 C 11.757812 13.414062 7.890625 14.53125 3.703125 14.4375 L 3.703125 4.0625 C 5.234375 4.113281 6.757812 3.796875 8.28125 3.109375 C 10.457031 2.117188 12.085938 0.566406 13.171875 -1.546875 L 15.25 -7.25 L 2.21875 -38.1875 L 13.609375 -38.1875 L 20.5 -21.53125 L 26.640625 -38.1875 Z M 38.109375 -38.1875 "/></g></g><g style="fill:#0f172a;fill-opacity:1;"><g transform="translate(131.854566, 214.499986)"><path style="stroke:none" d="M 22.046875 -38.109375 C 27.273438 -38.160156 31.765625 -36.335938 35.515625 -32.640625 C 39.265625 -28.929688 41.164062 -24.441406 41.21875 -19.171875 C 41.269531 -13.941406 39.441406 -9.453125 35.734375 -5.703125 C 32.035156 -1.953125 27.550781 -0.0507812 22.28125 0 C 17.988281 0 14.753906 -1.351562 12.578125 -4.0625 L 12.578125 14.203125 L 2.21875 14.203125 L 2.21875 -38.03125 L 12.578125 -38.03125 L 12.578125 -34.046875 C 14.597656 -36.660156 17.753906 -38.015625 22.046875 -38.109375 Z M 28.859375 -12.4375 C 30.734375 -14.3125 31.625 -16.53125 31.53125 -19.09375 C 31.53125 -21.707031 30.613281 -23.925781 28.78125 -25.75 C 26.90625 -27.53125 24.6875 -28.421875 22.125 -28.421875 C 19.507812 -28.421875 17.289062 -27.503906 15.46875 -25.671875 C 13.644531 -23.753906 12.734375 -21.535156 12.734375 -19.015625 C 12.828125 -16.347656 13.765625 -14.128906 15.546875 -12.359375 C 17.367188 -10.535156 19.585938 -9.625 22.203125 -9.625 C 24.867188 -9.71875 27.085938 -10.65625 28.859375 -12.4375 Z M 28.859375 -12.4375 "/></g></g><g style="fill:#0f172a;fill-opacity:1;"><g transform="translate(171.66223, 214.499986)"><path style="stroke:none" d="M 29.671875 -38.109375 L 29.671875 -27.75 L 21.15625 -27.75 L 21.15625 0 L 10.796875 0 L 10.796875 -27.75 L 2.21875 -27.75 L 2.21875 -38.109375 L 10.796875 -38.109375 L 10.796875 -51.4375 L 21.15625 -51.4375 L 21.15625 -38.109375 Z M 29.671875 -38.109375 "/></g></g><g style="fill:#0f172a;fill-opacity:1;"><g transform="translate(201.332993, 214.499986)"><path style="stroke:none" d="M 19.765625 -38.109375 C 25.035156 -38.160156 29.519531 -36.335938 33.21875 -32.640625 C 36.96875 -28.890625 38.84375 -24.398438 38.84375 -19.171875 C 38.894531 -13.890625 37.070312 -9.398438 33.375 -5.703125 C 29.675781 -1.953125 25.210938 -0.0507812 19.984375 0 C 14.703125 0.0507812 10.1875 -1.769531 6.4375 -5.46875 C 2.6875 -9.175781 0.8125 -13.664062 0.8125 -18.9375 C 0.757812 -24.21875 2.585938 -28.707031 6.296875 -32.40625 C 9.992188 -36.15625 14.484375 -38.054688 19.765625 -38.109375 Z M 26.484375 -12.4375 C 28.316406 -14.257812 29.234375 -16.476562 29.234375 -19.09375 C 29.234375 -21.65625 28.296875 -23.875 26.421875 -25.75 C 24.546875 -27.53125 22.328125 -28.421875 19.765625 -28.421875 C 17.191406 -28.421875 14.992188 -27.503906 13.171875 -25.671875 C 11.347656 -23.753906 10.4375 -21.535156 10.4375 -19.015625 C 10.4375 -16.453125 11.375 -14.234375 13.25 -12.359375 C 15.070312 -10.535156 17.289062 -9.625 19.90625 -9.625 C 22.570312 -9.71875 24.765625 -10.65625 26.484375 -12.4375 Z M 26.484375 -12.4375 "/></g></g><g style="fill:#0f172a;fill-opacity:1;"><g transform="translate(238.402945, 214.499986)"><path style="stroke:none" d="M 38.484375 -26.9375 C 39.460938 -26.488281 40.445312 -25.597656 41.4375 -24.265625 C 43.414062 -21.648438 44.40625 -18.175781 44.40625 -13.84375 C 44.40625 -8.5625 42.109375 -4.660156 37.515625 -2.140625 C 35.203125 -0.910156 32.882812 -0.195312 30.5625 0 L 4.4375 0 L 4.4375 -48.09375 L 26.71875 -48.09375 C 28.539062 -48.09375 30.488281 -47.703125 32.5625 -46.921875 C 36.65625 -45.335938 39.269531 -42.597656 40.40625 -38.703125 C 41.238281 -35.890625 41.164062 -33.078125 40.1875 -30.265625 C 39.6875 -28.878906 39.117188 -27.769531 38.484375 -26.9375 Z M 15.984375 -39.140625 L 15.984375 -28.421875 L 26.265625 -28.421875 C 27.742188 -28.421875 29.03125 -28.9375 30.125 -29.96875 C 31.15625 -31.007812 31.671875 -32.269531 31.671875 -33.75 C 31.671875 -35.269531 31.15625 -36.550781 30.125 -37.59375 C 29.03125 -38.625 27.742188 -39.140625 26.265625 -39.140625 Z M 35.375 -14.203125 C 35.375 -15.679688 34.851562 -16.96875 33.8125 -18.0625 C 32.78125 -19.09375 31.523438 -19.609375 30.046875 -19.609375 L 15.984375 -19.609375 L 15.984375 -8.875 L 30.046875 -8.875 C 31.523438 -8.875 32.78125 -9.394531 33.8125 -10.4375 C 34.851562 -11.46875 35.375 -12.722656 35.375 -14.203125 Z M 35.375 -14.203125 "/></g></g><g style="fill:#0f172a;fill-opacity:1;"><g transform="translate(285.018001, 214.499986)"><path style="stroke:none" d="M 38.921875 -17.390625 C 38.972656 -16.359375 38.972656 -15.742188 38.921875 -15.546875 L 11.09375 -15.609375 C 11.488281 -14.472656 12.207031 -13.390625 13.25 -12.359375 C 15.164062 -10.535156 17.382812 -9.625 19.90625 -9.625 C 22.570312 -9.71875 24.789062 -10.65625 26.5625 -12.4375 L 26.859375 -12.734375 L 36.484375 -9.6875 C 34.359375 -6.382812 32.140625 -4.019531 29.828125 -2.59375 C 27.210938 -0.914062 23.929688 -0.0507812 19.984375 0 C 14.753906 0.0507812 10.265625 -1.769531 6.515625 -5.46875 C 2.765625 -9.175781 0.863281 -13.664062 0.8125 -18.9375 C 0.757812 -24.164062 2.585938 -28.65625 6.296875 -32.40625 C 9.992188 -36.15625 14.484375 -38.054688 19.765625 -38.109375 C 24.992188 -38.160156 29.476562 -36.335938 33.21875 -32.640625 C 36.96875 -28.929688 38.867188 -24.441406 38.921875 -19.171875 Z M 19.828125 -28.421875 C 17.210938 -28.421875 14.992188 -27.503906 13.171875 -25.671875 C 12.234375 -24.640625 11.566406 -23.601562 11.171875 -22.5625 L 28.5625 -22.5625 C 28.164062 -23.601562 27.472656 -24.664062 26.484375 -25.75 C 24.617188 -27.53125 22.398438 -28.421875 19.828125 -28.421875 Z M 19.828125 -28.421875 "/></g></g><g style="fill:#0f172a;fill-opacity:1;"><g transform="translate(322.16195, 214.499986)"><path style="stroke:none" d="M 29.671875 -38.109375 L 29.671875 -27.75 L 21.15625 -27.75 L 21.15625 0 L 10.796875 0 L 10.796875 -27.75 L 2.21875 -27.75 L 2.21875 -38.109375 L 10.796875 -38.109375 L 10.796875 -51.4375 L 21.15625 -51.4375 L 21.15625 -38.109375 Z M 29.671875 -38.109375 "/></g></g></g></svg>