<svg xmlns="http://www.w3.org/2000/svg" xmlns:xlink="http://www.w3.org/1999/xlink" width="500" zoomAndPan="magnify" viewBox="0 0 375 374.999991" height="500" preserveAspectRatio="xMidYMid meet" version="1.2"><defs><clipPath id="20860e2d96"><path d="M 37.5 37.5 L 337.5 37.5 L 337.5 337.5 L 37.5 337.5 Z M 37.5 37.5 "/></clipPath><clipPath id="f46dd4bb2d"><path d="M 187.5 37.5 C 104.65625 37.5 37.5 104.65625 37.5 187.5 C 37.5 270.339844 104.65625 337.5 187.5 337.5 C 270.339844 337.5 337.5 270.339844 337.5 187.5 C 337.5 104.65625 270.339844 37.5 187.5 37.5 Z M 187.5 37.5 "/></clipPath><clipPath id="7cb6314f09"><path d="M 60.855469 60.855469 L 314.058594 60.855469 L 314.058594 314.058594 L 60.855469 314.058594 Z M 60.855469 60.855469 "/></clipPath><clipPath id="19143cbb76"><path d="M 129.488281 129.488281 L 245.511719 129.488281 L 245.511719 245.511719 L 129.488281 245.511719 Z M 129.488281 129.488281 "/></clipPath><clipPath id="4368ed6751"><path d="M 187.5 129.488281 C 155.460938 129.488281 129.488281 155.460938 129.488281 187.5 C 129.488281 219.539062 155.460938 245.511719 187.5 245.511719 C 219.539062 245.511719 245.511719 219.539062 245.511719 187.5 C 245.511719 155.460938 219.539062 129.488281 187.5 129.488281 Z M 187.5 129.488281 "/></clipPath></defs><g id="b10f594797"><g clip-rule="nonzero" clip-path="url(#20860e2d96)"><g clip-rule="nonzero" clip-path="url(#f46dd4bb2d)"><path style="fill:none;stroke-width:36.788891;stroke-linecap:butt;stroke-linejoin:miter;stroke:#0f172a;stroke-opacity:1;stroke-miterlimit:4;" d="M 245.259288 0.00000402634 C 109.804625 0.00000402634 -0.00000333144 109.804633 -0.00000333144 245.259296 C -0.00000333144 380.707572 109.804625 490.518587 245.259288 490.518587 C 380.707564 490.518587 490.51858 380.707572 490.51858 245.259296 C 490.51858 109.804633 380.707564 0.00000402634 245.259288 0.00000402634 Z M 245.259288 0.00000402634 " transform="matrix(0.611598,0,0,0.611598,37.500002,37.499998)"/></g></g><path style=" stroke:none;fill-rule:nonzero;fill:#0f172a;fill-opacity:1;" d="M 187.457031 153.539062 L 154.691406 186.304688 C 149.554688 191.445312 149.554688 199.804688 154.691406 204.9375 C 159.828125 210.078125 168.1875 210.078125 173.324219 204.9375 L 183.824219 194.4375 C 185.796875 192.320312 189.121094 192.320312 191.089844 194.4375 L 201.589844 204.9375 C 206.726562 210.078125 215.085938 210.078125 220.222656 204.9375 C 225.359375 199.804688 225.359375 191.445312 220.222656 186.304688 Z M 187.457031 153.539062 "/><path style=" stroke:none;fill-rule:nonzero;fill:#0f172a;fill-opacity:1;" d="M 187.457031 100.574219 C 139.550781 100.574219 100.574219 139.550781 100.574219 187.457031 C 100.574219 235.363281 139.550781 274.339844 187.457031 274.339844 C 235.363281 274.339844 274.339844 235.363281 274.339844 187.457031 C 274.339844 139.550781 235.363281 100.574219 187.457031 100.574219 Z M 227.246094 211.960938 C 218.238281 220.96875 203.578125 220.96875 194.570312 211.960938 L 192.421875 209.8125 L 192.421875 228.398438 C 192.421875 231.140625 190.199219 233.363281 187.457031 233.363281 C 184.714844 233.363281 182.492188 231.140625 182.492188 228.398438 L 182.492188 209.8125 L 180.347656 211.960938 C 171.335938 220.96875 156.679688 220.96875 147.667969 211.960938 C 138.664062 202.957031 138.664062 188.296875 147.667969 179.285156 L 183.945312 143.003906 C 185.886719 141.066406 189.03125 141.066406 190.96875 143.003906 L 227.246094 179.285156 C 236.25 188.296875 236.25 202.957031 227.246094 211.960938 Z M 227.246094 211.960938 "/><g clip-rule="nonzero" clip-path="url(#7cb6314f09)"><path style=" stroke:none;fill-rule:nonzero;fill:#0f172a;fill-opacity:1;" d="M 187.457031 60.855469 C 117.488281 60.855469 60.855469 117.480469 60.855469 187.457031 C 60.855469 257.425781 117.480469 314.058594 187.457031 314.058594 C 257.425781 314.058594 314.058594 257.4375 314.058594 187.457031 C 314.058594 117.488281 257.4375 60.855469 187.457031 60.855469 Z M 251.082031 89.710938 C 264.683594 98.59375 276.324219 110.234375 285.207031 123.835938 C 280.976562 125.800781 275.9375 124.980469 272.554688 121.597656 L 253.316406 102.359375 C 249.898438 98.945312 249.164062 93.859375 251.082031 89.710938 Z M 211.613281 73.308594 C 210.050781 77.625 205.910156 80.714844 201.0625 80.714844 L 173.855469 80.714844 C 169.003906 80.714844 164.867188 77.625 163.300781 73.308594 C 178.824219 70.027344 195.328125 69.863281 211.613281 73.308594 Z M 123.832031 89.710938 C 125.75 93.859375 125.015625 98.945312 121.597656 102.359375 L 102.359375 121.597656 C 98.984375 124.976562 93.941406 125.804688 89.707031 123.835938 C 98.589844 110.234375 110.230469 98.59375 123.832031 89.710938 Z M 73.308594 163.300781 C 77.625 164.863281 80.714844 169.003906 80.714844 173.855469 L 80.714844 201.0625 C 80.714844 205.910156 77.621094 210.050781 73.308594 211.613281 C 70.027344 196.089844 69.867188 179.585938 73.308594 163.300781 Z M 123.832031 285.203125 C 110.230469 276.320312 98.59375 264.683594 89.710938 251.082031 C 93.859375 249.164062 98.945312 249.902344 102.359375 253.316406 L 121.597656 272.554688 C 125.015625 275.96875 125.75 281.054688 123.832031 285.203125 Z M 163.300781 301.605469 C 164.867188 297.292969 169.003906 294.199219 173.855469 294.199219 L 201.0625 294.199219 C 205.910156 294.199219 210.050781 297.292969 211.613281 301.605469 C 196.058594 304.894531 179.554688 305.042969 163.300781 301.605469 Z M 251.082031 285.203125 C 249.164062 281.054688 249.898438 275.96875 253.316406 272.554688 L 272.554688 253.316406 C 275.96875 249.898438 281.054688 249.164062 285.203125 251.082031 C 276.320312 264.683594 264.683594 276.320312 251.082031 285.203125 Z M 290.296875 242.511719 C 282.320312 238.34375 272.226562 239.601562 265.53125 246.292969 L 246.292969 265.53125 C 239.601562 272.226562 238.34375 282.320312 242.511719 290.296875 C 235.792969 293.910156 228.679688 296.878906 221.253906 299.128906 C 218.570312 290.53125 210.535156 284.269531 201.0625 284.269531 L 173.855469 284.269531 C 164.382812 284.269531 156.34375 290.53125 153.660156 299.128906 C 146.234375 296.878906 139.125 293.910156 132.402344 290.296875 C 136.570312 282.320312 135.3125 272.226562 128.621094 265.53125 L 109.382812 246.292969 C 102.691406 239.601562 92.59375 238.34375 84.617188 242.511719 C 81.003906 235.792969 78.035156 228.679688 75.785156 221.253906 C 84.386719 218.570312 90.644531 210.535156 90.644531 201.0625 L 90.644531 173.855469 C 90.644531 164.382812 84.386719 156.34375 75.785156 153.660156 C 78.035156 146.238281 81.003906 139.128906 84.613281 132.410156 C 92.484375 136.539062 102.59375 135.40625 109.382812 128.621094 L 128.621094 109.382812 C 135.3125 102.691406 136.570312 92.59375 132.402344 84.617188 C 139.125 81.003906 146.234375 78.035156 153.660156 75.785156 C 156.34375 84.386719 164.382812 90.644531 173.855469 90.644531 L 201.0625 90.644531 C 210.535156 90.644531 218.570312 84.386719 221.253906 75.785156 C 228.679688 78.035156 235.792969 81.003906 242.511719 84.617188 C 238.34375 92.59375 239.601562 102.691406 246.292969 109.382812 L 265.53125 128.621094 C 272.3125 135.398438 282.421875 136.546875 290.300781 132.410156 C 293.910156 139.128906 296.878906 146.238281 299.128906 153.660156 C 290.53125 156.34375 284.269531 164.382812 284.269531 173.855469 L 284.269531 201.0625 C 284.269531 210.535156 290.53125 218.570312 299.128906 221.253906 C 296.878906 228.679688 293.910156 235.792969 290.296875 242.511719 Z M 294.199219 201.0625 L 294.199219 173.855469 C 294.199219 169.003906 297.292969 164.863281 301.609375 163.300781 C 304.886719 178.824219 305.050781 195.328125 301.609375 211.613281 C 297.292969 210.050781 294.199219 205.910156 294.199219 201.0625 Z M 294.199219 201.0625 "/></g><g clip-rule="nonzero" clip-path="url(#19143cbb76)"><g clip-rule="nonzero" clip-path="url(#4368ed6751)"><path style=" stroke:none;fill-rule:nonzero;fill:#0f172a;fill-opacity:1;" d="M 129.488281 129.488281 L 245.511719 129.488281 L 245.511719 245.511719 L 129.488281 245.511719 Z M 129.488281 129.488281 "/></g></g><g style="fill:#ffffff;fill-opacity:1;"><g transform="translate(145.609361, 232.499997)"><path style="stroke:none" d="M 97.46875 -73.375 C 97.46875 -68.445312 95.9375 -64.070312 92.875 -60.25 C 89.8125 -56.4375 85.796875 -53.222656 80.828125 -50.609375 C 75.859375 -48.003906 70.5625 -45.945312 64.9375 -44.4375 C 68.945312 -42.726562 72.359375 -40.34375 75.171875 -37.28125 C 77.984375 -34.21875 79.390625 -30.476562 79.390625 -26.0625 C 79.390625 -22.550781 78.410156 -19.035156 76.453125 -15.515625 C 74.492188 -12.003906 71.753906 -8.816406 68.234375 -5.953125 C 64.722656 -3.085938 60.65625 -0.78125 56.03125 0.96875 C 51.414062 2.726562 46.398438 3.609375 40.984375 3.609375 C 36.160156 3.609375 32.34375 2.929688 29.53125 1.578125 C 26.71875 0.222656 24.65625 -1.503906 23.34375 -3.609375 C 22.039062 -5.722656 21.191406 -7.882812 20.796875 -10.09375 C 19.585938 -7.476562 18.554688 -5.066406 17.703125 -2.859375 C 16.847656 -0.648438 16.21875 1.304688 15.8125 3.015625 C 15.507812 4.015625 14.757812 4.515625 13.5625 4.515625 C 12.25 4.515625 10.738281 4.007812 9.03125 3 C 7.332031 2 5.878906 0.519531 4.671875 -1.4375 C 3.460938 -3.394531 2.910156 -5.675781 3.015625 -8.28125 C 3.109375 -10.59375 4.082031 -14.007812 5.9375 -18.53125 C 7.800781 -23.050781 10.238281 -28.097656 13.25 -33.671875 C 16.269531 -39.242188 19.585938 -44.914062 23.203125 -50.6875 C 26.816406 -56.46875 30.457031 -61.867188 34.125 -66.890625 C 37.789062 -71.910156 41.179688 -76.03125 44.296875 -79.25 C 38.367188 -77.539062 32.640625 -75.582031 27.109375 -73.375 C 21.585938 -71.164062 16.71875 -69.101562 12.5 -67.1875 C 11.5 -66.6875 10.75 -66.4375 10.25 -66.4375 C 8.738281 -66.4375 7.984375 -67.539062 7.984375 -69.75 C 7.984375 -72.5625 9.285156 -75.25 11.890625 -77.8125 C 14.503906 -80.375 17.945312 -82.734375 22.21875 -84.890625 C 26.488281 -87.054688 31.234375 -88.941406 36.453125 -90.546875 C 41.679688 -92.148438 46.929688 -93.40625 52.203125 -94.3125 C 57.472656 -95.21875 62.367188 -95.671875 66.890625 -95.671875 C 73.210938 -95.671875 78.660156 -94.691406 83.234375 -92.734375 C 87.804688 -90.773438 91.320312 -88.113281 93.78125 -84.75 C 96.238281 -81.382812 97.46875 -77.59375 97.46875 -73.375 Z M 41.4375 -48.65625 C 45.65625 -49.46875 50.195312 -50.675781 55.0625 -52.28125 C 59.9375 -53.882812 64.503906 -55.84375 68.765625 -58.15625 C 73.035156 -60.46875 76.550781 -63.03125 79.3125 -65.84375 C 82.082031 -68.65625 83.46875 -71.71875 83.46875 -75.03125 C 83.46875 -80.550781 78.59375 -83.3125 68.84375 -83.3125 C 65.4375 -83.3125 61.820312 -83.007812 58 -82.40625 C 58.800781 -81.707031 59.453125 -80.929688 59.953125 -80.078125 C 60.460938 -79.222656 60.71875 -78.441406 60.71875 -77.734375 C 60.71875 -77.128906 60.515625 -76.628906 60.109375 -76.234375 C 57.703125 -73.421875 54.863281 -69.578125 51.59375 -64.703125 C 48.332031 -59.835938 44.945312 -54.488281 41.4375 -48.65625 Z M 36.3125 -10.546875 C 39.625 -10.546875 42.960938 -11.171875 46.328125 -12.421875 C 49.691406 -13.679688 52.78125 -15.335938 55.59375 -17.390625 C 58.40625 -19.453125 60.664062 -21.6875 62.375 -24.09375 C 64.082031 -26.507812 64.9375 -28.875 64.9375 -31.1875 C 64.9375 -33.800781 63.804688 -35.832031 61.546875 -37.28125 C 59.285156 -38.738281 55.992188 -39.46875 51.671875 -39.46875 C 48.859375 -39.46875 46.046875 -39.191406 43.234375 -38.640625 C 40.421875 -38.085938 37.410156 -37.3125 34.203125 -36.3125 C 32.691406 -33.5 31.207031 -30.734375 29.75 -28.015625 C 28.289062 -25.304688 26.910156 -22.644531 25.609375 -20.03125 C 25.503906 -19.726562 25.453125 -19.328125 25.453125 -18.828125 C 25.453125 -16.316406 26.359375 -14.304688 28.171875 -12.796875 C 29.984375 -11.296875 32.695312 -10.546875 36.3125 -10.546875 Z M 36.3125 -10.546875 "/></g></g></g></svg>