<svg xmlns="http://www.w3.org/2000/svg" xmlns:xlink="http://www.w3.org/1999/xlink" width="500" zoomAndPan="magnify" viewBox="0 0 375 374.999991" height="500" preserveAspectRatio="xMidYMid meet" version="1.2"><defs><clipPath id="e8e9988172"><path d="M 37.5 37.5 L 337.492188 37.5 L 337.492188 337.492188 L 37.5 337.492188 Z M 37.5 37.5 "/></clipPath><clipPath id="7724f88f53"><path d="M 187.496094 37.5 C 104.65625 37.5 37.5 104.65625 37.5 187.496094 C 37.5 270.335938 104.65625 337.492188 187.496094 337.492188 C 270.335938 337.492188 337.492188 270.335938 337.492188 187.496094 C 337.492188 104.65625 270.335938 37.5 187.496094 37.5 Z M 187.496094 37.5 "/></clipPath><clipPath id="d7f4e3eeb6"><path d="M 60.855469 60.855469 L 314.109375 60.855469 L 314.109375 314.109375 L 60.855469 314.109375 Z M 60.855469 60.855469 "/></clipPath><clipPath id="90ffaeb3a1"><path d="M 129.488281 129.488281 L 245.511719 129.488281 L 245.511719 245.511719 L 129.488281 245.511719 Z M 129.488281 129.488281 "/></clipPath><clipPath id="e03574c466"><path d="M 187.5 129.488281 C 155.460938 129.488281 129.488281 155.460938 129.488281 187.5 C 129.488281 219.539062 155.460938 245.511719 187.5 245.511719 C 219.539062 245.511719 245.511719 219.539062 245.511719 187.5 C 245.511719 155.460938 219.539062 129.488281 187.5 129.488281 Z M 187.5 129.488281 "/></clipPath></defs><g id="50268d0ff3"><g clip-rule="nonzero" clip-path="url(#e8e9988172)"><g clip-rule="nonzero" clip-path="url(#7724f88f53)"><path style="fill:none;stroke-width:36.870438;stroke-linecap:butt;stroke-linejoin:miter;stroke:#ffffff;stroke-opacity:1;stroke-miterlimit:4;" d="M 245.796556 0.00000403527 C 110.04803 0.00000403527 -0.00000333882 110.048038 -0.00000333882 245.796563 C -0.00000333882 381.545089 110.04803 491.593123 245.796556 491.593123 C 381.545081 491.593123 491.593115 381.545089 491.593115 245.796563 C 491.593115 110.048038 381.545081 0.00000403527 245.796556 0.00000403527 Z M 245.796556 0.00000403527 " transform="matrix(0.610245,0,0,0.610245,37.500002,37.499998)"/></g></g><path style=" stroke:none;fill-rule:nonzero;fill:#ea580c;fill-opacity:1;" d="M 187.480469 153.554688 L 154.707031 186.328125 C 149.574219 191.46875 149.570312 199.832031 154.707031 204.96875 C 159.847656 210.105469 168.207031 210.105469 173.347656 204.96875 L 183.847656 194.464844 C 185.820312 192.34375 189.148438 192.347656 191.117188 194.464844 L 201.617188 204.96875 C 206.757812 210.105469 215.117188 210.105469 220.257812 204.96875 C 225.394531 199.832031 225.390625 191.46875 220.253906 186.328125 Z M 187.480469 153.554688 "/><path style=" stroke:none;fill-rule:nonzero;fill:#ea580c;fill-opacity:1;" d="M 187.480469 100.582031 C 139.566406 100.582031 100.582031 139.566406 100.582031 187.480469 C 100.582031 235.398438 139.566406 274.382812 187.480469 274.382812 C 235.398438 274.382812 274.382812 235.398438 274.382812 187.480469 C 274.382812 139.566406 235.398438 100.582031 187.480469 100.582031 Z M 227.277344 211.992188 C 218.269531 221.003906 203.605469 221 194.597656 211.992188 L 192.449219 209.84375 L 192.449219 228.433594 C 192.449219 231.171875 190.222656 233.398438 187.480469 233.398438 C 184.742188 233.398438 182.515625 231.171875 182.515625 228.433594 L 182.515625 209.84375 L 180.371094 211.992188 C 171.359375 221 156.695312 221 147.6875 211.992188 C 138.679688 202.984375 138.679688 188.324219 147.683594 179.308594 L 183.972656 143.019531 C 185.910156 141.082031 189.054688 141.082031 190.992188 143.019531 L 227.277344 179.308594 C 236.285156 188.324219 236.285156 202.984375 227.277344 211.992188 Z M 227.277344 211.992188 "/><g clip-rule="nonzero" clip-path="url(#d7f4e3eeb6)"><path style=" stroke:none;fill-rule:nonzero;fill:#ea580c;fill-opacity:1;" d="M 187.480469 60.855469 C 117.5 60.855469 60.855469 117.492188 60.855469 187.480469 C 60.855469 257.464844 117.488281 314.109375 187.480469 314.109375 C 257.464844 314.109375 314.109375 257.476562 314.109375 187.480469 C 314.109375 117.5 257.476562 60.855469 187.480469 60.855469 Z M 251.121094 89.714844 C 264.726562 98.601562 276.367188 110.246094 285.25 123.847656 C 281.023438 125.8125 275.980469 124.992188 272.597656 121.609375 L 253.355469 102.367188 C 249.9375 98.953125 249.203125 93.867188 251.121094 89.714844 Z M 211.644531 73.308594 C 210.078125 77.625 205.9375 80.71875 201.089844 80.71875 L 173.875 80.71875 C 169.027344 80.71875 164.886719 77.625 163.320312 73.308594 C 178.847656 70.027344 195.355469 69.867188 211.644531 73.308594 Z M 123.84375 89.714844 C 125.761719 93.867188 125.027344 98.953125 121.609375 102.367188 L 102.367188 121.609375 C 98.992188 124.988281 93.949219 125.816406 89.710938 123.847656 C 98.597656 110.246094 110.242188 98.601562 123.84375 89.714844 Z M 73.308594 163.320312 C 77.625 164.886719 80.71875 169.027344 80.71875 173.875 L 80.71875 201.089844 C 80.71875 205.9375 77.625 210.078125 73.308594 211.644531 C 70.027344 196.117188 69.867188 179.609375 73.308594 163.320312 Z M 123.84375 285.25 C 110.242188 276.363281 98.601562 264.722656 89.714844 251.121094 C 93.867188 249.203125 98.953125 249.9375 102.367188 253.355469 L 121.609375 272.597656 C 125.027344 276.011719 125.761719 281.097656 123.84375 285.25 Z M 163.320312 301.65625 C 164.886719 297.339844 169.027344 294.246094 173.875 294.246094 L 201.089844 294.246094 C 205.9375 294.246094 210.078125 297.339844 211.644531 301.65625 C 196.082031 304.945312 179.578125 305.089844 163.320312 301.65625 Z M 251.121094 285.25 C 249.203125 281.097656 249.9375 276.011719 253.355469 272.597656 L 272.597656 253.355469 C 276.011719 249.9375 281.097656 249.199219 285.25 251.121094 C 276.363281 264.722656 264.722656 276.363281 251.121094 285.25 Z M 290.34375 242.546875 C 282.367188 238.378906 272.265625 239.636719 265.574219 246.332031 L 246.332031 265.574219 C 239.640625 272.265625 238.378906 282.367188 242.546875 290.34375 C 235.824219 293.957031 228.710938 296.925781 221.289062 299.175781 C 218.601562 290.574219 210.5625 284.3125 201.089844 284.3125 L 173.875 284.3125 C 164.402344 284.3125 156.363281 290.574219 153.675781 299.175781 C 146.253906 296.925781 139.136719 293.957031 132.417969 290.34375 C 136.585938 282.367188 135.324219 272.265625 128.632812 265.574219 L 109.390625 246.332031 C 102.699219 239.640625 92.597656 238.378906 84.621094 242.546875 C 81.007812 235.824219 78.039062 228.710938 75.785156 221.289062 C 84.390625 218.601562 90.652344 210.5625 90.652344 201.089844 L 90.652344 173.875 C 90.652344 164.402344 84.390625 156.363281 75.789062 153.675781 C 78.039062 146.253906 81.007812 139.140625 84.621094 132.421875 C 92.492188 136.554688 102.601562 135.421875 109.390625 128.632812 L 128.632812 109.390625 C 135.324219 102.699219 136.585938 92.597656 132.417969 84.621094 C 139.136719 81.007812 146.253906 78.039062 153.675781 75.789062 C 156.363281 84.390625 164.402344 90.652344 173.875 90.652344 L 201.089844 90.652344 C 210.5625 90.652344 218.601562 84.390625 221.289062 75.789062 C 228.710938 78.039062 235.824219 81.007812 242.546875 84.621094 C 238.378906 92.597656 239.640625 102.699219 246.332031 109.390625 L 265.574219 128.632812 C 272.355469 135.414062 282.464844 136.558594 290.34375 132.421875 C 293.957031 139.144531 296.925781 146.253906 299.175781 153.679688 C 290.574219 156.363281 284.3125 164.402344 284.3125 173.875 L 284.3125 201.089844 C 284.3125 210.5625 290.574219 218.601562 299.175781 221.289062 C 296.925781 228.710938 293.957031 235.824219 290.34375 242.546875 Z M 294.246094 201.089844 L 294.246094 173.875 C 294.246094 169.027344 297.339844 164.886719 301.65625 163.320312 C 304.9375 178.847656 305.097656 195.355469 301.65625 211.644531 C 297.339844 210.078125 294.246094 205.9375 294.246094 201.089844 Z M 294.246094 201.089844 "/></g><g clip-rule="nonzero" clip-path="url(#90ffaeb3a1)"><g clip-rule="nonzero" clip-path="url(#e03574c466)"><path style=" stroke:none;fill-rule:nonzero;fill:#ea580c;fill-opacity:1;" d="M 129.488281 129.488281 L 245.511719 129.488281 L 245.511719 245.511719 L 129.488281 245.511719 Z M 129.488281 129.488281 "/></g></g><g style="fill:#ffffff;fill-opacity:1;"><g transform="translate(145.609361, 232.499997)"><path style="stroke:none" d="M 97.46875 -73.375 C 97.46875 -68.445312 95.9375 -64.070312 92.875 -60.25 C 89.8125 -56.4375 85.796875 -53.222656 80.828125 -50.609375 C 75.859375 -48.003906 70.5625 -45.945312 64.9375 -44.4375 C 68.945312 -42.726562 72.359375 -40.34375 75.171875 -37.28125 C 77.984375 -34.21875 79.390625 -30.476562 79.390625 -26.0625 C 79.390625 -22.550781 78.410156 -19.035156 76.453125 -15.515625 C 74.492188 -12.003906 71.753906 -8.816406 68.234375 -5.953125 C 64.722656 -3.085938 60.65625 -0.78125 56.03125 0.96875 C 51.414062 2.726562 46.398438 3.609375 40.984375 3.609375 C 36.160156 3.609375 32.34375 2.929688 29.53125 1.578125 C 26.71875 0.222656 24.65625 -1.503906 23.34375 -3.609375 C 22.039062 -5.722656 21.191406 -7.882812 20.796875 -10.09375 C 19.585938 -7.476562 18.554688 -5.066406 17.703125 -2.859375 C 16.847656 -0.648438 16.21875 1.304688 15.8125 3.015625 C 15.507812 4.015625 14.757812 4.515625 13.5625 4.515625 C 12.25 4.515625 10.738281 4.007812 9.03125 3 C 7.332031 2 5.878906 0.519531 4.671875 -1.4375 C 3.460938 -3.394531 2.910156 -5.675781 3.015625 -8.28125 C 3.109375 -10.59375 4.082031 -14.007812 5.9375 -18.53125 C 7.800781 -23.050781 10.238281 -28.097656 13.25 -33.671875 C 16.269531 -39.242188 19.585938 -44.914062 23.203125 -50.6875 C 26.816406 -56.46875 30.457031 -61.867188 34.125 -66.890625 C 37.789062 -71.910156 41.179688 -76.03125 44.296875 -79.25 C 38.367188 -77.539062 32.640625 -75.582031 27.109375 -73.375 C 21.585938 -71.164062 16.71875 -69.101562 12.5 -67.1875 C 11.5 -66.6875 10.75 -66.4375 10.25 -66.4375 C 8.738281 -66.4375 7.984375 -67.539062 7.984375 -69.75 C 7.984375 -72.5625 9.285156 -75.25 11.890625 -77.8125 C 14.503906 -80.375 17.945312 -82.734375 22.21875 -84.890625 C 26.488281 -87.054688 31.234375 -88.941406 36.453125 -90.546875 C 41.679688 -92.148438 46.929688 -93.40625 52.203125 -94.3125 C 57.472656 -95.21875 62.367188 -95.671875 66.890625 -95.671875 C 73.210938 -95.671875 78.660156 -94.691406 83.234375 -92.734375 C 87.804688 -90.773438 91.320312 -88.113281 93.78125 -84.75 C 96.238281 -81.382812 97.46875 -77.59375 97.46875 -73.375 Z M 41.4375 -48.65625 C 45.65625 -49.46875 50.195312 -50.675781 55.0625 -52.28125 C 59.9375 -53.882812 64.503906 -55.84375 68.765625 -58.15625 C 73.035156 -60.46875 76.550781 -63.03125 79.3125 -65.84375 C 82.082031 -68.65625 83.46875 -71.71875 83.46875 -75.03125 C 83.46875 -80.550781 78.59375 -83.3125 68.84375 -83.3125 C 65.4375 -83.3125 61.820312 -83.007812 58 -82.40625 C 58.800781 -81.707031 59.453125 -80.929688 59.953125 -80.078125 C 60.460938 -79.222656 60.71875 -78.441406 60.71875 -77.734375 C 60.71875 -77.128906 60.515625 -76.628906 60.109375 -76.234375 C 57.703125 -73.421875 54.863281 -69.578125 51.59375 -64.703125 C 48.332031 -59.835938 44.945312 -54.488281 41.4375 -48.65625 Z M 36.3125 -10.546875 C 39.625 -10.546875 42.960938 -11.171875 46.328125 -12.421875 C 49.691406 -13.679688 52.78125 -15.335938 55.59375 -17.390625 C 58.40625 -19.453125 60.664062 -21.6875 62.375 -24.09375 C 64.082031 -26.507812 64.9375 -28.875 64.9375 -31.1875 C 64.9375 -33.800781 63.804688 -35.832031 61.546875 -37.28125 C 59.285156 -38.738281 55.992188 -39.46875 51.671875 -39.46875 C 48.859375 -39.46875 46.046875 -39.191406 43.234375 -38.640625 C 40.421875 -38.085938 37.410156 -37.3125 34.203125 -36.3125 C 32.691406 -33.5 31.207031 -30.734375 29.75 -28.015625 C 28.289062 -25.304688 26.910156 -22.644531 25.609375 -20.03125 C 25.503906 -19.726562 25.453125 -19.328125 25.453125 -18.828125 C 25.453125 -16.316406 26.359375 -14.304688 28.171875 -12.796875 C 29.984375 -11.296875 32.695312 -10.546875 36.3125 -10.546875 Z M 36.3125 -10.546875 "/></g></g></g></svg>