<svg xmlns="http://www.w3.org/2000/svg" xmlns:xlink="http://www.w3.org/1999/xlink" width="1920" zoomAndPan="magnify" viewBox="0 0 1440 809.999993" height="1080" preserveAspectRatio="xMidYMid meet" version="1.2"><defs><clipPath id="3689a12985"><path d="M 475.929688 348.054688 L 589.0625 348.054688 L 589.0625 461.1875 L 475.929688 461.1875 Z M 475.929688 348.054688 "/></clipPath><clipPath id="14b8745184"><path d="M 532.496094 348.054688 C 501.257812 348.054688 475.929688 373.382812 475.929688 404.621094 C 475.929688 435.863281 501.257812 461.1875 532.496094 461.1875 C 563.738281 461.1875 589.0625 435.863281 589.0625 404.621094 C 589.0625 373.382812 563.738281 348.054688 532.496094 348.054688 Z M 532.496094 348.054688 "/></clipPath><clipPath id="26de6adcb8"><path d="M 484.738281 356.863281 L 579.988281 356.863281 L 579.988281 452.113281 L 484.738281 452.113281 Z M 484.738281 356.863281 "/></clipPath><clipPath id="716841e257"><path d="M 510.621094 382.746094 L 554.378906 382.746094 L 554.378906 426.503906 L 510.621094 426.503906 Z M 510.621094 382.746094 "/></clipPath><clipPath id="e0a46008bf"><path d="M 532.5 382.746094 C 520.417969 382.746094 510.621094 392.542969 510.621094 404.625 C 510.621094 416.707031 520.417969 426.503906 532.5 426.503906 C 544.582031 426.503906 554.378906 416.707031 554.378906 404.625 C 554.378906 392.542969 544.582031 382.746094 532.5 382.746094 Z M 532.5 382.746094 "/></clipPath></defs><g id="10b8814e10"><g clip-rule="nonzero" clip-path="url(#3689a12985)"><g clip-rule="nonzero" clip-path="url(#14b8745184)"><path style="fill:none;stroke-width:12;stroke-linecap:butt;stroke-linejoin:miter;stroke:#0f172a;stroke-opacity:1;stroke-miterlimit:4;" d="M 75.421059 -0.000837053 C 33.770015 -0.000837053 -0.000819705 33.769998 -0.000819705 75.421042 C -0.000819705 117.077294 33.770015 150.842921 75.421059 150.842921 C 117.077311 150.842921 150.842938 117.077294 150.842938 75.421042 C 150.842938 33.769998 117.077311 -0.000837053 75.421059 -0.000837053 Z M 75.421059 -0.000837053 " transform="matrix(0.75,0,0,0.75,475.930302,348.055315)"/></g></g><path style=" stroke:none;fill-rule:nonzero;fill:#ea580c;fill-opacity:1;" d="M 532.363281 391.730469 L 520.039062 404.054688 C 518.105469 405.988281 518.105469 409.132812 520.039062 411.066406 C 521.96875 412.996094 525.113281 412.996094 527.046875 411.066406 L 530.996094 407.113281 C 531.738281 406.316406 532.988281 406.320312 533.730469 407.113281 L 537.679688 411.066406 C 539.613281 412.996094 542.757812 412.996094 544.691406 411.066406 C 546.621094 409.132812 546.621094 405.988281 544.691406 404.054688 Z M 532.363281 391.730469 "/><path style=" stroke:none;fill-rule:nonzero;fill:#ea580c;fill-opacity:1;" d="M 532.363281 371.804688 C 514.34375 371.804688 499.679688 386.46875 499.679688 404.488281 C 499.679688 422.511719 514.34375 437.171875 532.363281 437.171875 C 550.386719 437.171875 565.046875 422.511719 565.046875 404.488281 C 565.046875 386.46875 550.386719 371.804688 532.363281 371.804688 Z M 547.332031 413.707031 C 543.941406 417.097656 538.429688 417.09375 535.039062 413.707031 L 534.230469 412.898438 L 534.230469 419.890625 C 534.230469 420.921875 533.394531 421.757812 532.363281 421.757812 C 531.332031 421.757812 530.496094 420.921875 530.496094 419.890625 L 530.496094 412.898438 L 529.6875 413.707031 C 526.300781 417.09375 520.785156 417.09375 517.394531 413.707031 C 514.007812 410.320312 514.007812 404.804688 517.394531 401.414062 L 531.042969 387.765625 C 531.773438 387.039062 532.957031 387.039062 533.683594 387.765625 L 547.332031 401.414062 C 550.71875 404.804688 550.71875 410.320312 547.332031 413.707031 Z M 547.332031 413.707031 "/><g clip-rule="nonzero" clip-path="url(#26de6adcb8)"><path style=" stroke:none;fill-rule:nonzero;fill:#ea580c;fill-opacity:1;" d="M 532.363281 356.863281 C 506.042969 356.863281 484.738281 378.164062 484.738281 404.488281 C 484.738281 430.808594 506.039062 452.113281 532.363281 452.113281 C 558.683594 452.113281 579.988281 430.8125 579.988281 404.488281 C 579.988281 378.167969 558.6875 356.863281 532.363281 356.863281 Z M 556.296875 367.71875 C 561.414062 371.058594 565.792969 375.4375 569.136719 380.554688 C 567.542969 381.292969 565.648438 380.984375 564.375 379.714844 L 557.140625 372.476562 C 555.855469 371.191406 555.578125 369.277344 556.296875 367.71875 Z M 541.449219 361.546875 C 540.863281 363.171875 539.304688 364.335938 537.480469 364.335938 L 527.246094 364.335938 C 525.421875 364.335938 523.863281 363.171875 523.277344 361.546875 C 529.117188 360.3125 535.324219 360.253906 541.449219 361.546875 Z M 508.429688 367.71875 C 509.152344 369.277344 508.875 371.191406 507.589844 372.476562 L 500.351562 379.714844 C 499.082031 380.984375 497.183594 381.296875 495.59375 380.554688 C 498.933594 375.4375 503.3125 371.058594 508.429688 367.71875 Z M 489.421875 395.402344 C 491.046875 395.988281 492.210938 397.546875 492.210938 399.371094 L 492.210938 409.605469 C 492.210938 411.429688 491.046875 412.988281 489.421875 413.574219 C 488.1875 407.734375 488.128906 401.527344 489.421875 395.402344 Z M 508.429688 441.257812 C 503.3125 437.917969 498.933594 433.539062 495.59375 428.421875 C 497.152344 427.703125 499.066406 427.980469 500.351562 429.265625 L 507.589844 436.5 C 508.875 437.785156 509.152344 439.699219 508.429688 441.257812 Z M 523.277344 447.429688 C 523.863281 445.804688 525.421875 444.644531 527.246094 444.644531 L 537.480469 444.644531 C 539.304688 444.644531 540.863281 445.804688 541.449219 447.429688 C 535.597656 448.667969 529.390625 448.722656 523.277344 447.429688 Z M 556.296875 441.257812 C 555.578125 439.699219 555.855469 437.785156 557.140625 436.5 L 564.375 429.261719 C 565.660156 427.980469 567.574219 427.703125 569.132812 428.421875 C 565.792969 433.539062 561.414062 437.917969 556.296875 441.257812 Z M 571.050781 425.199219 C 568.050781 423.632812 564.25 424.105469 561.734375 426.621094 L 554.496094 433.859375 C 551.980469 436.375 551.503906 440.175781 553.074219 443.175781 C 550.546875 444.535156 547.871094 445.652344 545.078125 446.5 C 544.070312 443.261719 541.042969 440.90625 537.480469 440.90625 L 527.246094 440.90625 C 523.683594 440.90625 520.660156 443.261719 519.648438 446.5 C 516.855469 445.652344 514.179688 444.535156 511.652344 443.175781 C 513.222656 440.175781 512.746094 436.375 510.230469 433.859375 L 502.992188 426.621094 C 500.476562 424.105469 496.675781 423.632812 493.675781 425.199219 C 492.320312 422.671875 491.199219 419.996094 490.355469 417.203125 C 493.589844 416.195312 495.945312 413.167969 495.945312 409.605469 L 495.945312 399.371094 C 495.945312 395.808594 493.589844 392.785156 490.355469 391.773438 C 491.199219 388.984375 492.316406 386.308594 493.675781 383.78125 C 496.636719 385.335938 500.441406 384.910156 502.992188 382.355469 L 510.230469 375.117188 C 512.746094 372.601562 513.222656 368.800781 511.652344 365.800781 C 514.179688 364.445312 516.855469 363.328125 519.648438 362.480469 C 520.660156 365.714844 523.683594 368.070312 527.246094 368.070312 L 537.480469 368.070312 C 541.042969 368.070312 544.066406 365.714844 545.078125 362.480469 C 547.871094 363.328125 550.546875 364.445312 553.074219 365.800781 C 551.507812 368.800781 551.980469 372.601562 554.496094 375.117188 L 561.734375 382.355469 C 564.285156 384.90625 568.085938 385.335938 571.050781 383.78125 C 572.410156 386.308594 573.527344 388.984375 574.375 391.773438 C 571.136719 392.785156 568.78125 395.808594 568.78125 399.371094 L 568.78125 409.605469 C 568.78125 413.167969 571.136719 416.191406 574.375 417.203125 C 573.527344 419.996094 572.410156 422.671875 571.050781 425.199219 Z M 572.519531 409.605469 L 572.519531 399.371094 C 572.519531 397.546875 573.679688 395.988281 575.304688 395.402344 C 576.539062 401.242188 576.601562 407.449219 575.304688 413.574219 C 573.679688 412.988281 572.519531 411.429688 572.519531 409.605469 Z M 572.519531 409.605469 "/></g><g clip-rule="nonzero" clip-path="url(#716841e257)"><g clip-rule="nonzero" clip-path="url(#e0a46008bf)"><path style=" stroke:none;fill-rule:nonzero;fill:#ea580c;fill-opacity:1;" d="M 510.621094 382.746094 L 554.378906 382.746094 L 554.378906 426.503906 L 510.621094 426.503906 Z M 510.621094 382.746094 "/></g></g><g style="fill:#0f172a;fill-opacity:1;"><g transform="translate(516.701764, 421.595928)"><path style="stroke:none" d="M 36.75 -27.671875 C 36.75 -25.816406 36.171875 -24.164062 35.015625 -22.71875 C 33.867188 -21.28125 32.359375 -20.066406 30.484375 -19.078125 C 28.609375 -18.097656 26.609375 -17.328125 24.484375 -16.765625 C 26.003906 -16.117188 27.289062 -15.21875 28.34375 -14.0625 C 29.40625 -12.90625 29.9375 -11.492188 29.9375 -9.828125 C 29.9375 -8.503906 29.566406 -7.175781 28.828125 -5.84375 C 28.085938 -4.519531 27.054688 -3.316406 25.734375 -2.234375 C 24.410156 -1.160156 22.875 -0.296875 21.125 0.359375 C 19.382812 1.023438 17.492188 1.359375 15.453125 1.359375 C 13.628906 1.359375 12.1875 1.101562 11.125 0.59375 C 10.070312 0.0820312 9.296875 -0.566406 8.796875 -1.359375 C 8.304688 -2.160156 7.988281 -2.976562 7.84375 -3.8125 C 7.382812 -2.820312 6.992188 -1.910156 6.671875 -1.078125 C 6.347656 -0.242188 6.113281 0.492188 5.96875 1.140625 C 5.851562 1.515625 5.566406 1.703125 5.109375 1.703125 C 4.617188 1.703125 4.050781 1.507812 3.40625 1.125 C 2.757812 0.75 2.207031 0.195312 1.75 -0.53125 C 1.300781 -1.269531 1.097656 -2.132812 1.140625 -3.125 C 1.171875 -4 1.535156 -5.285156 2.234375 -6.984375 C 2.941406 -8.691406 3.863281 -10.59375 5 -12.6875 C 6.132812 -14.789062 7.382812 -16.929688 8.75 -19.109375 C 10.113281 -21.296875 11.484375 -23.332031 12.859375 -25.21875 C 14.242188 -27.113281 15.523438 -28.671875 16.703125 -29.890625 C 14.460938 -29.242188 12.300781 -28.503906 10.21875 -27.671875 C 8.144531 -26.835938 6.3125 -26.0625 4.71875 -25.34375 C 4.332031 -25.144531 4.046875 -25.046875 3.859375 -25.046875 C 3.296875 -25.046875 3.015625 -25.460938 3.015625 -26.296875 C 3.015625 -27.359375 3.503906 -28.375 4.484375 -29.34375 C 5.472656 -30.3125 6.769531 -31.203125 8.375 -32.015625 C 9.988281 -32.828125 11.78125 -33.535156 13.75 -34.140625 C 15.71875 -34.742188 17.695312 -35.21875 19.6875 -35.5625 C 21.675781 -35.90625 23.519531 -36.078125 25.21875 -36.078125 C 27.601562 -36.078125 29.65625 -35.707031 31.375 -34.96875 C 33.101562 -34.226562 34.429688 -33.222656 35.359375 -31.953125 C 36.285156 -30.679688 36.75 -29.253906 36.75 -27.671875 Z M 15.625 -18.34375 C 17.21875 -18.65625 18.929688 -19.113281 20.765625 -19.71875 C 22.597656 -20.320312 24.316406 -21.054688 25.921875 -21.921875 C 27.535156 -22.796875 28.863281 -23.765625 29.90625 -24.828125 C 30.945312 -25.890625 31.46875 -27.046875 31.46875 -28.296875 C 31.46875 -30.378906 29.632812 -31.421875 25.96875 -31.421875 C 24.675781 -31.421875 23.3125 -31.304688 21.875 -31.078125 C 22.175781 -30.804688 22.421875 -30.507812 22.609375 -30.1875 C 22.796875 -29.875 22.890625 -29.582031 22.890625 -29.3125 C 22.890625 -29.082031 22.816406 -28.894531 22.671875 -28.75 C 21.765625 -27.6875 20.691406 -26.234375 19.453125 -24.390625 C 18.222656 -22.554688 16.945312 -20.539062 15.625 -18.34375 Z M 13.6875 -3.984375 C 14.9375 -3.984375 16.195312 -4.21875 17.46875 -4.6875 C 18.738281 -5.15625 19.898438 -5.773438 20.953125 -6.546875 C 22.015625 -7.328125 22.867188 -8.171875 23.515625 -9.078125 C 24.160156 -9.992188 24.484375 -10.890625 24.484375 -11.765625 C 24.484375 -12.742188 24.054688 -13.507812 23.203125 -14.0625 C 22.347656 -14.613281 21.109375 -14.890625 19.484375 -14.890625 C 18.421875 -14.890625 17.359375 -14.785156 16.296875 -14.578125 C 15.242188 -14.367188 14.109375 -14.070312 12.890625 -13.6875 C 12.328125 -12.625 11.769531 -11.582031 11.21875 -10.5625 C 10.664062 -9.539062 10.144531 -8.539062 9.65625 -7.5625 C 9.613281 -7.445312 9.59375 -7.296875 9.59375 -7.109375 C 9.59375 -6.160156 9.929688 -5.398438 10.609375 -4.828125 C 11.296875 -4.265625 12.320312 -3.984375 13.6875 -3.984375 Z M 13.6875 -3.984375 "/></g></g><g style="fill:#0f172a;fill-opacity:1;"><g transform="translate(609.846999, 428.624998)"><path style="stroke:none" d="M 43.03125 -6.078125 C 38.34375 -2.171875 32.984375 -0.21875 26.953125 -0.21875 C 20.140625 -0.21875 14.316406 -2.640625 9.484375 -7.484375 C 4.640625 -12.316406 2.21875 -18.140625 2.21875 -24.953125 C 2.21875 -31.816406 4.640625 -37.671875 9.484375 -42.515625 C 14.316406 -47.347656 20.140625 -49.765625 26.953125 -49.765625 C 33.023438 -49.765625 38.382812 -47.789062 43.03125 -43.84375 L 35.625 -36.515625 C 33.101562 -38.441406 30.210938 -39.40625 26.953125 -39.40625 C 23.003906 -39.40625 19.625 -38 16.8125 -35.1875 C 14 -32.363281 12.59375 -28.953125 12.59375 -24.953125 C 12.59375 -21.003906 14 -17.625 16.8125 -14.8125 C 19.625 -12 23.003906 -10.59375 26.953125 -10.59375 C 30.210938 -10.59375 33.101562 -11.554688 35.625 -13.484375 Z M 43.03125 -6.078125 "/></g></g><g style="fill:#0f172a;fill-opacity:1;"><g transform="translate(654.284554, 428.624998)"><path style="stroke:none" d="M 12.59375 -32.4375 C 13.425781 -34.8125 14.832031 -36.46875 16.8125 -37.40625 C 18.738281 -38.34375 21.628906 -38.8125 25.484375 -38.8125 L 25.484375 -28.21875 C 21.722656 -28.21875 18.585938 -26.929688 16.078125 -24.359375 C 13.753906 -22.085938 12.59375 -19.597656 12.59375 -16.890625 L 12.59375 0 L 2.21875 0 L 2.21875 -38.140625 L 12.59375 -38.140625 Z M 12.59375 -32.4375 "/></g></g><g style="fill:#0f172a;fill-opacity:1;"><g transform="translate(680.873023, 428.624998)"><path style="stroke:none" d="M 38.140625 -38.21875 L 23.109375 1.703125 C 21.472656 5.648438 18.878906 8.785156 15.328125 11.109375 C 11.773438 13.429688 7.898438 14.539062 3.703125 14.4375 L 3.703125 4.078125 C 5.234375 4.117188 6.765625 3.796875 8.296875 3.109375 C 10.460938 2.117188 12.09375 0.5625 13.1875 -1.5625 L 15.25 -7.265625 L 2.21875 -38.21875 L 13.625 -38.21875 L 20.515625 -21.546875 L 26.65625 -38.21875 Z M 38.140625 -38.21875 "/></g></g><g style="fill:#0f172a;fill-opacity:1;"><g transform="translate(720.866815, 428.624998)"><path style="stroke:none" d="M 22.078125 -38.140625 C 27.304688 -38.191406 31.796875 -36.363281 35.546875 -32.65625 C 39.296875 -28.957031 41.195312 -24.46875 41.25 -19.1875 C 41.300781 -13.945312 39.472656 -9.453125 35.765625 -5.703125 C 32.066406 -1.953125 27.578125 -0.0507812 22.296875 0 C 17.992188 0 14.757812 -1.359375 12.59375 -4.078125 L 12.59375 14.21875 L 2.21875 14.21875 L 2.21875 -38.0625 L 12.59375 -38.0625 L 12.59375 -34.0625 C 14.613281 -36.6875 17.773438 -38.046875 22.078125 -38.140625 Z M 28.890625 -12.4375 C 30.765625 -14.3125 31.648438 -16.535156 31.546875 -19.109375 C 31.546875 -21.722656 30.632812 -23.945312 28.8125 -25.78125 C 26.9375 -27.550781 24.710938 -28.4375 22.140625 -28.4375 C 19.523438 -28.4375 17.304688 -27.523438 15.484375 -25.703125 C 13.648438 -23.773438 12.734375 -21.550781 12.734375 -19.03125 C 12.835938 -16.363281 13.773438 -14.144531 15.546875 -12.375 C 17.378906 -10.539062 19.601562 -9.625 22.21875 -9.625 C 24.882812 -9.726562 27.109375 -10.664062 28.890625 -12.4375 Z M 28.890625 -12.4375 "/></g></g><g style="fill:#0f172a;fill-opacity:1;"><g transform="translate(760.712485, 428.624998)"><path style="stroke:none" d="M 29.703125 -38.140625 L 29.703125 -27.78125 L 21.1875 -27.78125 L 21.1875 0 L 10.8125 0 L 10.8125 -27.78125 L 2.21875 -27.78125 L 2.21875 -38.140625 L 10.8125 -38.140625 L 10.8125 -51.46875 L 21.1875 -51.46875 L 21.1875 -38.140625 Z M 29.703125 -38.140625 "/></g></g><g style="fill:#0f172a;fill-opacity:1;"><g transform="translate(790.411584, 428.624998)"><path style="stroke:none" d="M 19.78125 -38.140625 C 25.0625 -38.191406 29.550781 -36.363281 33.25 -32.65625 C 37.007812 -28.90625 38.890625 -24.414062 38.890625 -19.1875 C 38.929688 -13.894531 37.101562 -9.398438 33.40625 -5.703125 C 29.695312 -1.953125 25.226562 -0.0507812 20 0 C 14.71875 0.0507812 10.195312 -1.773438 6.4375 -5.484375 C 2.6875 -9.179688 0.8125 -13.671875 0.8125 -18.953125 C 0.757812 -24.242188 2.585938 -28.738281 6.296875 -32.4375 C 9.992188 -36.1875 14.488281 -38.085938 19.78125 -38.140625 Z M 26.515625 -12.4375 C 28.335938 -14.269531 29.25 -16.492188 29.25 -19.109375 C 29.25 -21.671875 28.3125 -23.894531 26.4375 -25.78125 C 24.5625 -27.550781 22.34375 -28.4375 19.78125 -28.4375 C 17.207031 -28.4375 15.007812 -27.523438 13.1875 -25.703125 C 11.351562 -23.773438 10.4375 -21.550781 10.4375 -19.03125 C 10.4375 -16.46875 11.375 -14.25 13.25 -12.375 C 15.082031 -10.539062 17.304688 -9.625 19.921875 -9.625 C 22.585938 -9.726562 24.785156 -10.664062 26.515625 -12.4375 Z M 26.515625 -12.4375 "/></g></g><g style="fill:#ea580c;fill-opacity:1;"><g transform="translate(827.52277, 428.624998)"><path style="stroke:none" d="M 38.515625 -26.953125 C 39.503906 -26.515625 40.488281 -25.628906 41.46875 -24.296875 C 43.445312 -21.679688 44.4375 -18.195312 44.4375 -13.84375 C 44.4375 -8.5625 42.140625 -4.660156 37.546875 -2.140625 C 35.222656 -0.910156 32.90625 -0.195312 30.59375 0 L 4.4375 0 L 4.4375 -48.140625 L 26.734375 -48.140625 C 28.566406 -48.140625 30.519531 -47.742188 32.59375 -46.953125 C 36.6875 -45.367188 39.300781 -42.628906 40.4375 -38.734375 C 41.28125 -35.921875 41.207031 -33.109375 40.21875 -30.296875 C 39.71875 -28.910156 39.148438 -27.796875 38.515625 -26.953125 Z M 16 -39.171875 L 16 -28.4375 L 26.296875 -28.4375 C 27.773438 -28.4375 29.054688 -28.957031 30.140625 -30 C 31.179688 -31.03125 31.703125 -32.285156 31.703125 -33.765625 C 31.703125 -35.296875 31.179688 -36.582031 30.140625 -37.625 C 29.054688 -38.65625 27.773438 -39.171875 26.296875 -39.171875 Z M 35.40625 -14.21875 C 35.40625 -15.695312 34.882812 -16.984375 33.84375 -18.078125 C 32.8125 -19.109375 31.550781 -19.625 30.0625 -19.625 L 16 -19.625 L 16 -8.890625 L 30.0625 -8.890625 C 31.550781 -8.890625 32.8125 -9.40625 33.84375 -10.4375 C 34.882812 -11.476562 35.40625 -12.738281 35.40625 -14.21875 Z M 35.40625 -14.21875 "/></g></g><g style="fill:#ea580c;fill-opacity:1;"><g transform="translate(874.182195, 428.624998)"><path style="stroke:none" d="M 38.953125 -17.40625 C 39.003906 -16.363281 39.003906 -15.742188 38.953125 -15.546875 L 11.109375 -15.625 C 11.503906 -14.488281 12.21875 -13.40625 13.25 -12.375 C 15.175781 -10.539062 17.398438 -9.625 19.921875 -9.625 C 22.585938 -9.726562 24.8125 -10.664062 26.59375 -12.4375 L 26.890625 -12.734375 L 36.515625 -9.703125 C 34.390625 -6.390625 32.164062 -4.019531 29.84375 -2.59375 C 27.226562 -0.914062 23.945312 -0.0507812 20 0 C 14.757812 0.0507812 10.265625 -1.773438 6.515625 -5.484375 C 2.765625 -9.179688 0.863281 -13.671875 0.8125 -18.953125 C 0.757812 -24.191406 2.585938 -28.6875 6.296875 -32.4375 C 9.992188 -36.1875 14.488281 -38.085938 19.78125 -38.140625 C 25.007812 -38.191406 29.5 -36.363281 33.25 -32.65625 C 37.007812 -28.957031 38.910156 -24.46875 38.953125 -19.1875 Z M 19.84375 -28.4375 C 17.226562 -28.4375 15.007812 -27.523438 13.1875 -25.703125 C 12.25 -24.660156 11.582031 -23.625 11.1875 -22.59375 L 28.59375 -22.59375 C 28.195312 -23.625 27.503906 -24.6875 26.515625 -25.78125 C 24.640625 -27.550781 22.414062 -28.4375 19.84375 -28.4375 Z M 19.84375 -28.4375 "/></g></g><g style="fill:#ea580c;fill-opacity:1;"><g transform="translate(911.36161, 428.624998)"><path style="stroke:none" d="M 29.703125 -38.140625 L 29.703125 -27.78125 L 21.1875 -27.78125 L 21.1875 0 L 10.8125 0 L 10.8125 -27.78125 L 2.21875 -27.78125 L 2.21875 -38.140625 L 10.8125 -38.140625 L 10.8125 -51.46875 L 21.1875 -51.46875 L 21.1875 -38.140625 Z M 29.703125 -38.140625 "/></g></g></g></svg>