<svg xmlns="http://www.w3.org/2000/svg" xmlns:xlink="http://www.w3.org/1999/xlink" width="500" zoomAndPan="magnify" viewBox="0 0 375 374.999991" height="500" preserveAspectRatio="xMidYMid meet" version="1.2"><defs/><g id="a49adbe9f4"><g style="fill:#0f172a;fill-opacity:1;"><g transform="translate(9.95112, 216.374986)"><path style="stroke:none" d="M 44.15625 -6.234375 C 39.34375 -2.234375 33.84375 -0.234375 27.65625 -0.234375 C 20.664062 -0.234375 14.691406 -2.710938 9.734375 -7.671875 C 4.765625 -12.640625 2.28125 -18.617188 2.28125 -25.609375 C 2.28125 -32.648438 4.765625 -38.65625 9.734375 -43.625 C 14.691406 -48.59375 20.664062 -51.078125 27.65625 -51.078125 C 33.894531 -51.078125 39.394531 -49.046875 44.15625 -44.984375 L 36.5625 -37.46875 C 33.976562 -39.445312 31.007812 -40.4375 27.65625 -40.4375 C 23.601562 -40.4375 20.132812 -38.988281 17.25 -36.09375 C 14.363281 -33.207031 12.921875 -29.710938 12.921875 -25.609375 C 12.921875 -21.554688 14.363281 -18.085938 17.25 -15.203125 C 20.132812 -12.316406 23.601562 -10.875 27.65625 -10.875 C 31.007812 -10.875 33.976562 -11.859375 36.5625 -13.828125 Z M 44.15625 -6.234375 "/></g></g><g style="fill:#0f172a;fill-opacity:1;"><g transform="translate(55.548728, 216.374986)"><path style="stroke:none" d="M 12.921875 -33.28125 C 13.785156 -35.71875 15.226562 -37.414062 17.25 -38.375 C 19.226562 -39.34375 22.191406 -39.828125 26.140625 -39.828125 L 26.140625 -28.953125 C 22.296875 -28.953125 19.078125 -27.632812 16.484375 -25 C 14.109375 -22.675781 12.921875 -20.117188 12.921875 -17.328125 L 12.921875 0 L 2.28125 0 L 2.28125 -39.140625 L 12.921875 -39.140625 Z M 12.921875 -33.28125 "/></g></g><g style="fill:#0f172a;fill-opacity:1;"><g transform="translate(82.831327, 216.374986)"><path style="stroke:none" d="M 39.140625 -39.21875 L 23.71875 1.75 C 22.039062 5.800781 19.378906 9.019531 15.734375 11.40625 C 12.085938 13.78125 8.109375 14.914062 3.796875 14.8125 L 3.796875 4.1875 C 5.367188 4.226562 6.941406 3.894531 8.515625 3.1875 C 10.742188 2.175781 12.414062 0.582031 13.53125 -1.59375 L 15.65625 -7.453125 L 2.28125 -39.21875 L 13.984375 -39.21875 L 21.046875 -22.109375 L 27.359375 -39.21875 Z M 39.140625 -39.21875 "/></g></g><g style="fill:#0f172a;fill-opacity:1;"><g transform="translate(123.869208, 216.374986)"><path style="stroke:none" d="M 22.640625 -39.140625 C 28.015625 -39.191406 32.628906 -37.316406 36.484375 -33.515625 C 40.328125 -29.710938 42.273438 -25.101562 42.328125 -19.6875 C 42.378906 -14.3125 40.503906 -9.703125 36.703125 -5.859375 C 32.910156 -2.003906 28.300781 -0.0507812 22.875 0 C 18.46875 0 15.148438 -1.394531 12.921875 -4.1875 L 12.921875 14.59375 L 2.28125 14.59375 L 2.28125 -39.0625 L 12.921875 -39.0625 L 12.921875 -34.953125 C 14.992188 -37.640625 18.234375 -39.035156 22.640625 -39.140625 Z M 29.640625 -12.765625 C 31.566406 -14.691406 32.476562 -16.972656 32.375 -19.609375 C 32.375 -22.296875 31.4375 -24.578125 29.5625 -26.453125 C 27.632812 -28.273438 25.351562 -29.1875 22.71875 -29.1875 C 20.039062 -29.1875 17.765625 -28.25 15.890625 -26.375 C 14.015625 -24.394531 13.078125 -22.113281 13.078125 -19.53125 C 13.171875 -16.789062 14.128906 -14.507812 15.953125 -12.6875 C 17.828125 -10.8125 20.109375 -9.875 22.796875 -9.875 C 25.535156 -9.976562 27.816406 -10.941406 29.640625 -12.765625 Z M 29.640625 -12.765625 "/></g></g><g style="fill:#0f172a;fill-opacity:1;"><g transform="translate(164.755054, 216.374986)"><path style="stroke:none" d="M 30.46875 -39.140625 L 30.46875 -28.5 L 21.734375 -28.5 L 21.734375 0 L 11.09375 0 L 11.09375 -28.5 L 2.28125 -28.5 L 2.28125 -39.140625 L 11.09375 -39.140625 L 11.09375 -52.8125 L 21.734375 -52.8125 L 21.734375 -39.140625 Z M 30.46875 -39.140625 "/></g></g><g style="fill:#0f172a;fill-opacity:1;"><g transform="translate(195.229444, 216.374986)"><path style="stroke:none" d="M 20.296875 -39.140625 C 25.710938 -39.191406 30.320312 -37.316406 34.125 -33.515625 C 37.976562 -29.660156 39.90625 -25.050781 39.90625 -19.6875 C 39.945312 -14.257812 38.070312 -9.648438 34.28125 -5.859375 C 30.476562 -2.003906 25.890625 -0.0507812 20.515625 0 C 15.097656 0.0507812 10.460938 -1.820312 6.609375 -5.625 C 2.765625 -9.425781 0.84375 -14.035156 0.84375 -19.453125 C 0.789062 -24.878906 2.660156 -29.488281 6.453125 -33.28125 C 10.253906 -37.132812 14.867188 -39.085938 20.296875 -39.140625 Z M 27.203125 -12.765625 C 29.078125 -14.640625 30.015625 -16.921875 30.015625 -19.609375 C 30.015625 -22.242188 29.050781 -24.523438 27.125 -26.453125 C 25.207031 -28.273438 22.929688 -29.1875 20.296875 -29.1875 C 17.660156 -29.1875 15.40625 -28.25 13.53125 -26.375 C 11.65625 -24.394531 10.71875 -22.113281 10.71875 -19.53125 C 10.71875 -16.894531 11.679688 -14.613281 13.609375 -12.6875 C 15.484375 -10.8125 17.757812 -9.875 20.4375 -9.875 C 23.175781 -9.976562 25.429688 -10.941406 27.203125 -12.765625 Z M 27.203125 -12.765625 "/></g></g><g style="fill:#ea580c;fill-opacity:1;"><g transform="translate(233.310481, 216.374986)"><path style="stroke:none" d="M 39.515625 -27.65625 C 40.535156 -27.207031 41.550781 -26.296875 42.5625 -24.921875 C 44.582031 -22.242188 45.59375 -18.675781 45.59375 -14.21875 C 45.59375 -8.789062 43.238281 -4.785156 38.53125 -2.203125 C 36.144531 -0.929688 33.765625 -0.195312 31.390625 0 L 4.5625 0 L 4.5625 -49.40625 L 27.4375 -49.40625 C 29.3125 -49.40625 31.3125 -49 33.4375 -48.1875 C 37.644531 -46.5625 40.332031 -43.75 41.5 -39.75 C 42.351562 -36.863281 42.273438 -33.972656 41.265625 -31.078125 C 40.765625 -29.660156 40.179688 -28.519531 39.515625 -27.65625 Z M 16.421875 -40.203125 L 16.421875 -29.1875 L 26.984375 -29.1875 C 28.503906 -29.1875 29.820312 -29.71875 30.9375 -30.78125 C 32 -31.84375 32.53125 -33.132812 32.53125 -34.65625 C 32.53125 -36.226562 32 -37.546875 30.9375 -38.609375 C 29.820312 -39.671875 28.503906 -40.203125 26.984375 -40.203125 Z M 36.328125 -14.59375 C 36.328125 -16.113281 35.796875 -17.429688 34.734375 -18.546875 C 33.671875 -19.609375 32.378906 -20.140625 30.859375 -20.140625 L 16.421875 -20.140625 L 16.421875 -9.125 L 30.859375 -9.125 C 32.378906 -9.125 33.671875 -9.65625 34.734375 -10.71875 C 35.796875 -11.78125 36.328125 -13.070312 36.328125 -14.59375 Z M 36.328125 -14.59375 "/></g></g><g style="fill:#ea580c;fill-opacity:1;"><g transform="translate(281.188026, 216.374986)"><path style="stroke:none" d="M 39.96875 -17.859375 C 40.019531 -16.796875 40.019531 -16.160156 39.96875 -15.953125 L 11.40625 -16.03125 C 11.8125 -14.863281 12.546875 -13.75 13.609375 -12.6875 C 15.578125 -10.8125 17.851562 -9.875 20.4375 -9.875 C 23.175781 -9.976562 25.457031 -10.941406 27.28125 -12.765625 L 27.59375 -13.078125 L 37.46875 -9.953125 C 35.289062 -6.554688 33.007812 -4.125 30.625 -2.65625 C 27.9375 -0.9375 24.566406 -0.0507812 20.515625 0 C 15.148438 0.0507812 10.539062 -1.820312 6.6875 -5.625 C 2.832031 -9.425781 0.882812 -14.035156 0.84375 -19.453125 C 0.789062 -24.828125 2.660156 -29.4375 6.453125 -33.28125 C 10.253906 -37.132812 14.867188 -39.085938 20.296875 -39.140625 C 25.660156 -39.191406 30.269531 -37.316406 34.125 -33.515625 C 37.976562 -29.710938 39.925781 -25.101562 39.96875 -19.6875 Z M 20.375 -29.1875 C 17.6875 -29.1875 15.40625 -28.25 13.53125 -26.375 C 12.5625 -25.3125 11.875 -24.25 11.46875 -23.1875 L 29.34375 -23.1875 C 28.9375 -24.25 28.222656 -25.335938 27.203125 -26.453125 C 25.273438 -28.273438 23 -29.1875 20.375 -29.1875 Z M 20.375 -29.1875 "/></g></g><g style="fill:#ea580c;fill-opacity:1;"><g transform="translate(319.338013, 216.374986)"><path style="stroke:none" d="M 30.46875 -39.140625 L 30.46875 -28.5 L 21.734375 -28.5 L 21.734375 0 L 11.09375 0 L 11.09375 -28.5 L 2.28125 -28.5 L 2.28125 -39.140625 L 11.09375 -39.140625 L 11.09375 -52.8125 L 21.734375 -52.8125 L 21.734375 -39.140625 Z M 30.46875 -39.140625 "/></g></g></g></svg>