<svg xmlns="http://www.w3.org/2000/svg" xmlns:xlink="http://www.w3.org/1999/xlink" width="1920" zoomAndPan="magnify" viewBox="0 0 1440 809.999993" height="1080" preserveAspectRatio="xMidYMid meet" version="1.2"><defs><clipPath id="c39a9bf49a"><path d="M 475.929688 348.054688 L 589.0625 348.054688 L 589.0625 461.1875 L 475.929688 461.1875 Z M 475.929688 348.054688 "/></clipPath><clipPath id="c38664c518"><path d="M 532.496094 348.054688 C 501.257812 348.054688 475.929688 373.382812 475.929688 404.621094 C 475.929688 435.863281 501.257812 461.1875 532.496094 461.1875 C 563.738281 461.1875 589.0625 435.863281 589.0625 404.621094 C 589.0625 373.382812 563.738281 348.054688 532.496094 348.054688 Z M 532.496094 348.054688 "/></clipPath><clipPath id="f4185320d5"><path d="M 484.738281 356.863281 L 579.988281 356.863281 L 579.988281 452.113281 L 484.738281 452.113281 Z M 484.738281 356.863281 "/></clipPath><clipPath id="e4701c692b"><path d="M 510.621094 382.746094 L 554.378906 382.746094 L 554.378906 426.503906 L 510.621094 426.503906 Z M 510.621094 382.746094 "/></clipPath><clipPath id="15aec9eca3"><path d="M 532.5 382.746094 C 520.417969 382.746094 510.621094 392.542969 510.621094 404.625 C 510.621094 416.707031 520.417969 426.503906 532.5 426.503906 C 544.582031 426.503906 554.378906 416.707031 554.378906 404.625 C 554.378906 392.542969 544.582031 382.746094 532.5 382.746094 Z M 532.5 382.746094 "/></clipPath></defs><g id="14e77878e3"><g clip-rule="nonzero" clip-path="url(#c39a9bf49a)"><g clip-rule="nonzero" clip-path="url(#c38664c518)"><path style="fill:none;stroke-width:12;stroke-linecap:butt;stroke-linejoin:miter;stroke:#ffffff;stroke-opacity:1;stroke-miterlimit:4;" d="M 75.421059 -0.000837053 C 33.770015 -0.000837053 -0.000819705 33.769998 -0.000819705 75.421042 C -0.000819705 117.077294 33.770015 150.842921 75.421059 150.842921 C 117.077311 150.842921 150.842938 117.077294 150.842938 75.421042 C 150.842938 33.769998 117.077311 -0.000837053 75.421059 -0.000837053 Z M 75.421059 -0.000837053 " transform="matrix(0.75,0,0,0.75,475.930302,348.055315)"/></g></g><path style=" stroke:none;fill-rule:nonzero;fill:#ea580c;fill-opacity:1;" d="M 532.363281 391.730469 L 520.039062 404.054688 C 518.105469 405.988281 518.105469 409.132812 520.039062 411.066406 C 521.96875 412.996094 525.113281 412.996094 527.046875 411.066406 L 530.996094 407.113281 C 531.738281 406.316406 532.988281 406.320312 533.730469 407.113281 L 537.679688 411.066406 C 539.613281 412.996094 542.757812 412.996094 544.691406 411.066406 C 546.621094 409.132812 546.621094 405.988281 544.691406 404.054688 Z M 532.363281 391.730469 "/><path style=" stroke:none;fill-rule:nonzero;fill:#ea580c;fill-opacity:1;" d="M 532.363281 371.804688 C 514.34375 371.804688 499.679688 386.46875 499.679688 404.488281 C 499.679688 422.511719 514.34375 437.171875 532.363281 437.171875 C 550.386719 437.171875 565.046875 422.511719 565.046875 404.488281 C 565.046875 386.46875 550.386719 371.804688 532.363281 371.804688 Z M 547.332031 413.707031 C 543.941406 417.097656 538.429688 417.09375 535.039062 413.707031 L 534.230469 412.898438 L 534.230469 419.890625 C 534.230469 420.921875 533.394531 421.757812 532.363281 421.757812 C 531.332031 421.757812 530.496094 420.921875 530.496094 419.890625 L 530.496094 412.898438 L 529.6875 413.707031 C 526.300781 417.09375 520.785156 417.09375 517.394531 413.707031 C 514.007812 410.320312 514.007812 404.804688 517.394531 401.414062 L 531.042969 387.765625 C 531.773438 387.039062 532.957031 387.039062 533.683594 387.765625 L 547.332031 401.414062 C 550.71875 404.804688 550.71875 410.320312 547.332031 413.707031 Z M 547.332031 413.707031 "/><g clip-rule="nonzero" clip-path="url(#f4185320d5)"><path style=" stroke:none;fill-rule:nonzero;fill:#ea580c;fill-opacity:1;" d="M 532.363281 356.863281 C 506.042969 356.863281 484.738281 378.164062 484.738281 404.488281 C 484.738281 430.808594 506.039062 452.113281 532.363281 452.113281 C 558.683594 452.113281 579.988281 430.8125 579.988281 404.488281 C 579.988281 378.167969 558.6875 356.863281 532.363281 356.863281 Z M 556.296875 367.71875 C 561.414062 371.058594 565.792969 375.4375 569.136719 380.554688 C 567.542969 381.292969 565.648438 380.984375 564.375 379.714844 L 557.140625 372.476562 C 555.855469 371.191406 555.578125 369.277344 556.296875 367.71875 Z M 541.449219 361.546875 C 540.863281 363.171875 539.304688 364.335938 537.480469 364.335938 L 527.246094 364.335938 C 525.421875 364.335938 523.863281 363.171875 523.277344 361.546875 C 529.117188 360.3125 535.324219 360.253906 541.449219 361.546875 Z M 508.429688 367.71875 C 509.152344 369.277344 508.875 371.191406 507.589844 372.476562 L 500.351562 379.714844 C 499.082031 380.984375 497.183594 381.296875 495.59375 380.554688 C 498.933594 375.4375 503.3125 371.058594 508.429688 367.71875 Z M 489.421875 395.402344 C 491.046875 395.988281 492.210938 397.546875 492.210938 399.371094 L 492.210938 409.605469 C 492.210938 411.429688 491.046875 412.988281 489.421875 413.574219 C 488.1875 407.734375 488.128906 401.527344 489.421875 395.402344 Z M 508.429688 441.257812 C 503.3125 437.917969 498.933594 433.539062 495.59375 428.421875 C 497.152344 427.703125 499.066406 427.980469 500.351562 429.265625 L 507.589844 436.5 C 508.875 437.785156 509.152344 439.699219 508.429688 441.257812 Z M 523.277344 447.429688 C 523.863281 445.804688 525.421875 444.644531 527.246094 444.644531 L 537.480469 444.644531 C 539.304688 444.644531 540.863281 445.804688 541.449219 447.429688 C 535.597656 448.667969 529.390625 448.722656 523.277344 447.429688 Z M 556.296875 441.257812 C 555.578125 439.699219 555.855469 437.785156 557.140625 436.5 L 564.375 429.261719 C 565.660156 427.980469 567.574219 427.703125 569.132812 428.421875 C 565.792969 433.539062 561.414062 437.917969 556.296875 441.257812 Z M 571.050781 425.199219 C 568.050781 423.632812 564.25 424.105469 561.734375 426.621094 L 554.496094 433.859375 C 551.980469 436.375 551.503906 440.175781 553.074219 443.175781 C 550.546875 444.535156 547.871094 445.652344 545.078125 446.5 C 544.070312 443.261719 541.042969 440.90625 537.480469 440.90625 L 527.246094 440.90625 C 523.683594 440.90625 520.660156 443.261719 519.648438 446.5 C 516.855469 445.652344 514.179688 444.535156 511.652344 443.175781 C 513.222656 440.175781 512.746094 436.375 510.230469 433.859375 L 502.992188 426.621094 C 500.476562 424.105469 496.675781 423.632812 493.675781 425.199219 C 492.320312 422.671875 491.199219 419.996094 490.355469 417.203125 C 493.589844 416.195312 495.945312 413.167969 495.945312 409.605469 L 495.945312 399.371094 C 495.945312 395.808594 493.589844 392.785156 490.355469 391.773438 C 491.199219 388.984375 492.316406 386.308594 493.675781 383.78125 C 496.636719 385.335938 500.441406 384.910156 502.992188 382.355469 L 510.230469 375.117188 C 512.746094 372.601562 513.222656 368.800781 511.652344 365.800781 C 514.179688 364.445312 516.855469 363.328125 519.648438 362.480469 C 520.660156 365.714844 523.683594 368.070312 527.246094 368.070312 L 537.480469 368.070312 C 541.042969 368.070312 544.066406 365.714844 545.078125 362.480469 C 547.871094 363.328125 550.546875 364.445312 553.074219 365.800781 C 551.507812 368.800781 551.980469 372.601562 554.496094 375.117188 L 561.734375 382.355469 C 564.285156 384.90625 568.085938 385.335938 571.050781 383.78125 C 572.410156 386.308594 573.527344 388.984375 574.375 391.773438 C 571.136719 392.785156 568.78125 395.808594 568.78125 399.371094 L 568.78125 409.605469 C 568.78125 413.167969 571.136719 416.191406 574.375 417.203125 C 573.527344 419.996094 572.410156 422.671875 571.050781 425.199219 Z M 572.519531 409.605469 L 572.519531 399.371094 C 572.519531 397.546875 573.679688 395.988281 575.304688 395.402344 C 576.539062 401.242188 576.601562 407.449219 575.304688 413.574219 C 573.679688 412.988281 572.519531 411.429688 572.519531 409.605469 Z M 572.519531 409.605469 "/></g><g clip-rule="nonzero" clip-path="url(#e4701c692b)"><g clip-rule="nonzero" clip-path="url(#15aec9eca3)"><path style=" stroke:none;fill-rule:nonzero;fill:#ea580c;fill-opacity:1;" d="M 510.621094 382.746094 L 554.378906 382.746094 L 554.378906 426.503906 L 510.621094 426.503906 Z M 510.621094 382.746094 "/></g></g><g style="fill:#ffffff;fill-opacity:1;"><g transform="translate(516.701764, 421.595928)"><path style="stroke:none" d="M 36.75 -27.671875 C 36.75 -25.816406 36.171875 -24.164062 35.015625 -22.71875 C 33.867188 -21.28125 32.359375 -20.066406 30.484375 -19.078125 C 28.609375 -18.097656 26.609375 -17.328125 24.484375 -16.765625 C 26.003906 -16.117188 27.289062 -15.21875 28.34375 -14.0625 C 29.40625 -12.90625 29.9375 -11.492188 29.9375 -9.828125 C 29.9375 -8.503906 29.566406 -7.175781 28.828125 -5.84375 C 28.085938 -4.519531 27.054688 -3.316406 25.734375 -2.234375 C 24.410156 -1.160156 22.875 -0.296875 21.125 0.359375 C 19.382812 1.023438 17.492188 1.359375 15.453125 1.359375 C 13.628906 1.359375 12.1875 1.101562 11.125 0.59375 C 10.070312 0.0820312 9.296875 -0.566406 8.796875 -1.359375 C 8.304688 -2.160156 7.988281 -2.976562 7.84375 -3.8125 C 7.382812 -2.820312 6.992188 -1.910156 6.671875 -1.078125 C 6.347656 -0.242188 6.113281 0.492188 5.96875 1.140625 C 5.851562 1.515625 5.566406 1.703125 5.109375 1.703125 C 4.617188 1.703125 4.050781 1.507812 3.40625 1.125 C 2.757812 0.75 2.207031 0.195312 1.75 -0.53125 C 1.300781 -1.269531 1.097656 -2.132812 1.140625 -3.125 C 1.171875 -4 1.535156 -5.285156 2.234375 -6.984375 C 2.941406 -8.691406 3.863281 -10.59375 5 -12.6875 C 6.132812 -14.789062 7.382812 -16.929688 8.75 -19.109375 C 10.113281 -21.296875 11.484375 -23.332031 12.859375 -25.21875 C 14.242188 -27.113281 15.523438 -28.671875 16.703125 -29.890625 C 14.460938 -29.242188 12.300781 -28.503906 10.21875 -27.671875 C 8.144531 -26.835938 6.3125 -26.0625 4.71875 -25.34375 C 4.332031 -25.144531 4.046875 -25.046875 3.859375 -25.046875 C 3.296875 -25.046875 3.015625 -25.460938 3.015625 -26.296875 C 3.015625 -27.359375 3.503906 -28.375 4.484375 -29.34375 C 5.472656 -30.3125 6.769531 -31.203125 8.375 -32.015625 C 9.988281 -32.828125 11.78125 -33.535156 13.75 -34.140625 C 15.71875 -34.742188 17.695312 -35.21875 19.6875 -35.5625 C 21.675781 -35.90625 23.519531 -36.078125 25.21875 -36.078125 C 27.601562 -36.078125 29.65625 -35.707031 31.375 -34.96875 C 33.101562 -34.226562 34.429688 -33.222656 35.359375 -31.953125 C 36.285156 -30.679688 36.75 -29.253906 36.75 -27.671875 Z M 15.625 -18.34375 C 17.21875 -18.65625 18.929688 -19.113281 20.765625 -19.71875 C 22.597656 -20.320312 24.316406 -21.054688 25.921875 -21.921875 C 27.535156 -22.796875 28.863281 -23.765625 29.90625 -24.828125 C 30.945312 -25.890625 31.46875 -27.046875 31.46875 -28.296875 C 31.46875 -30.378906 29.632812 -31.421875 25.96875 -31.421875 C 24.675781 -31.421875 23.3125 -31.304688 21.875 -31.078125 C 22.175781 -30.804688 22.421875 -30.507812 22.609375 -30.1875 C 22.796875 -29.875 22.890625 -29.582031 22.890625 -29.3125 C 22.890625 -29.082031 22.816406 -28.894531 22.671875 -28.75 C 21.765625 -27.6875 20.691406 -26.234375 19.453125 -24.390625 C 18.222656 -22.554688 16.945312 -20.539062 15.625 -18.34375 Z M 13.6875 -3.984375 C 14.9375 -3.984375 16.195312 -4.21875 17.46875 -4.6875 C 18.738281 -5.15625 19.898438 -5.773438 20.953125 -6.546875 C 22.015625 -7.328125 22.867188 -8.171875 23.515625 -9.078125 C 24.160156 -9.992188 24.484375 -10.890625 24.484375 -11.765625 C 24.484375 -12.742188 24.054688 -13.507812 23.203125 -14.0625 C 22.347656 -14.613281 21.109375 -14.890625 19.484375 -14.890625 C 18.421875 -14.890625 17.359375 -14.785156 16.296875 -14.578125 C 15.242188 -14.367188 14.109375 -14.070312 12.890625 -13.6875 C 12.328125 -12.625 11.769531 -11.582031 11.21875 -10.5625 C 10.664062 -9.539062 10.144531 -8.539062 9.65625 -7.5625 C 9.613281 -7.445312 9.59375 -7.296875 9.59375 -7.109375 C 9.59375 -6.160156 9.929688 -5.398438 10.609375 -4.828125 C 11.296875 -4.265625 12.320312 -3.984375 13.6875 -3.984375 Z M 13.6875 -3.984375 "/></g></g><g style="fill:#ffffff;fill-opacity:1;"><g transform="translate(610.011062, 427.874998)"><path style="stroke:none" d="M 43 -6.0625 C 38.3125 -2.164062 32.957031 -0.21875 26.9375 -0.21875 C 20.125 -0.21875 14.300781 -2.632812 9.46875 -7.46875 C 4.632812 -12.300781 2.21875 -18.125 2.21875 -24.9375 C 2.21875 -31.789062 4.632812 -37.632812 9.46875 -42.46875 C 14.300781 -47.3125 20.125 -49.734375 26.9375 -49.734375 C 33 -49.734375 38.351562 -47.757812 43 -43.8125 L 35.59375 -36.484375 C 33.070312 -38.410156 30.1875 -39.375 26.9375 -39.375 C 22.988281 -39.375 19.609375 -37.96875 16.796875 -35.15625 C 13.984375 -32.34375 12.578125 -28.9375 12.578125 -24.9375 C 12.578125 -20.988281 13.984375 -17.609375 16.796875 -14.796875 C 19.609375 -11.984375 22.988281 -10.578125 26.9375 -10.578125 C 30.1875 -10.578125 33.070312 -11.539062 35.59375 -13.46875 Z M 43 -6.0625 "/></g></g><g style="fill:#ffffff;fill-opacity:1;"><g transform="translate(654.406228, 427.874998)"><path style="stroke:none" d="M 12.578125 -32.40625 C 13.421875 -34.78125 14.828125 -36.4375 16.796875 -37.375 C 18.722656 -38.3125 21.609375 -38.78125 25.453125 -38.78125 L 25.453125 -28.1875 C 21.703125 -28.1875 18.570312 -26.90625 16.0625 -24.34375 C 13.738281 -22.070312 12.578125 -19.582031 12.578125 -16.875 L 12.578125 0 L 2.21875 0 L 2.21875 -38.109375 L 12.578125 -38.109375 Z M 12.578125 -32.40625 "/></g></g><g style="fill:#ffffff;fill-opacity:1;"><g transform="translate(680.969406, 427.874998)"><path style="stroke:none" d="M 38.109375 -38.1875 L 23.09375 1.703125 C 21.457031 5.648438 18.863281 8.78125 15.3125 11.09375 C 11.757812 13.414062 7.890625 14.53125 3.703125 14.4375 L 3.703125 4.0625 C 5.234375 4.113281 6.757812 3.796875 8.28125 3.109375 C 10.457031 2.117188 12.085938 0.566406 13.171875 -1.546875 L 15.25 -7.25 L 2.21875 -38.1875 L 13.609375 -38.1875 L 20.5 -21.53125 L 26.640625 -38.1875 Z M 38.109375 -38.1875 "/></g></g><g style="fill:#ffffff;fill-opacity:1;"><g transform="translate(720.925134, 427.874998)"><path style="stroke:none" d="M 22.046875 -38.109375 C 27.273438 -38.160156 31.765625 -36.335938 35.515625 -32.640625 C 39.265625 -28.929688 41.164062 -24.441406 41.21875 -19.171875 C 41.269531 -13.941406 39.441406 -9.453125 35.734375 -5.703125 C 32.035156 -1.953125 27.550781 -0.0507812 22.28125 0 C 17.988281 0 14.753906 -1.351562 12.578125 -4.0625 L 12.578125 14.203125 L 2.21875 14.203125 L 2.21875 -38.03125 L 12.578125 -38.03125 L 12.578125 -34.046875 C 14.597656 -36.660156 17.753906 -38.015625 22.046875 -38.109375 Z M 28.859375 -12.4375 C 30.734375 -14.3125 31.625 -16.53125 31.53125 -19.09375 C 31.53125 -21.707031 30.613281 -23.925781 28.78125 -25.75 C 26.90625 -27.53125 24.6875 -28.421875 22.125 -28.421875 C 19.507812 -28.421875 17.289062 -27.503906 15.46875 -25.671875 C 13.644531 -23.753906 12.734375 -21.535156 12.734375 -19.015625 C 12.828125 -16.347656 13.765625 -14.128906 15.546875 -12.359375 C 17.367188 -10.535156 19.585938 -9.625 22.203125 -9.625 C 24.867188 -9.71875 27.085938 -10.65625 28.859375 -12.4375 Z M 28.859375 -12.4375 "/></g></g><g style="fill:#ffffff;fill-opacity:1;"><g transform="translate(760.732799, 427.874998)"><path style="stroke:none" d="M 29.671875 -38.109375 L 29.671875 -27.75 L 21.15625 -27.75 L 21.15625 0 L 10.796875 0 L 10.796875 -27.75 L 2.21875 -27.75 L 2.21875 -38.109375 L 10.796875 -38.109375 L 10.796875 -51.4375 L 21.15625 -51.4375 L 21.15625 -38.109375 Z M 29.671875 -38.109375 "/></g></g><g style="fill:#ffffff;fill-opacity:1;"><g transform="translate(790.403562, 427.874998)"><path style="stroke:none" d="M 19.765625 -38.109375 C 25.035156 -38.160156 29.519531 -36.335938 33.21875 -32.640625 C 36.96875 -28.890625 38.84375 -24.398438 38.84375 -19.171875 C 38.894531 -13.890625 37.070312 -9.398438 33.375 -5.703125 C 29.675781 -1.953125 25.210938 -0.0507812 19.984375 0 C 14.703125 0.0507812 10.1875 -1.769531 6.4375 -5.46875 C 2.6875 -9.175781 0.8125 -13.664062 0.8125 -18.9375 C 0.757812 -24.21875 2.585938 -28.707031 6.296875 -32.40625 C 9.992188 -36.15625 14.484375 -38.054688 19.765625 -38.109375 Z M 26.484375 -12.4375 C 28.316406 -14.257812 29.234375 -16.476562 29.234375 -19.09375 C 29.234375 -21.65625 28.296875 -23.875 26.421875 -25.75 C 24.546875 -27.53125 22.328125 -28.421875 19.765625 -28.421875 C 17.191406 -28.421875 14.992188 -27.503906 13.171875 -25.671875 C 11.347656 -23.753906 10.4375 -21.535156 10.4375 -19.015625 C 10.4375 -16.453125 11.375 -14.234375 13.25 -12.359375 C 15.070312 -10.535156 17.289062 -9.625 19.90625 -9.625 C 22.570312 -9.71875 24.765625 -10.65625 26.484375 -12.4375 Z M 26.484375 -12.4375 "/></g></g><g style="fill:#ea580c;fill-opacity:1;"><g transform="translate(827.475895, 427.874998)"><path style="stroke:none" d="M 38.484375 -26.9375 C 39.460938 -26.488281 40.445312 -25.597656 41.4375 -24.265625 C 43.414062 -21.648438 44.40625 -18.175781 44.40625 -13.84375 C 44.40625 -8.5625 42.109375 -4.660156 37.515625 -2.140625 C 35.203125 -0.910156 32.882812 -0.195312 30.5625 0 L 4.4375 0 L 4.4375 -48.09375 L 26.71875 -48.09375 C 28.539062 -48.09375 30.488281 -47.703125 32.5625 -46.921875 C 36.65625 -45.335938 39.269531 -42.597656 40.40625 -38.703125 C 41.238281 -35.890625 41.164062 -33.078125 40.1875 -30.265625 C 39.6875 -28.878906 39.117188 -27.769531 38.484375 -26.9375 Z M 15.984375 -39.140625 L 15.984375 -28.421875 L 26.265625 -28.421875 C 27.742188 -28.421875 29.03125 -28.9375 30.125 -29.96875 C 31.15625 -31.007812 31.671875 -32.269531 31.671875 -33.75 C 31.671875 -35.269531 31.15625 -36.550781 30.125 -37.59375 C 29.03125 -38.625 27.742188 -39.140625 26.265625 -39.140625 Z M 35.375 -14.203125 C 35.375 -15.679688 34.851562 -16.96875 33.8125 -18.0625 C 32.78125 -19.09375 31.523438 -19.609375 30.046875 -19.609375 L 15.984375 -19.609375 L 15.984375 -8.875 L 30.046875 -8.875 C 31.523438 -8.875 32.78125 -9.394531 33.8125 -10.4375 C 34.851562 -11.46875 35.375 -12.722656 35.375 -14.203125 Z M 35.375 -14.203125 "/></g></g><g style="fill:#ea580c;fill-opacity:1;"><g transform="translate(874.09094, 427.874998)"><path style="stroke:none" d="M 38.921875 -17.390625 C 38.972656 -16.359375 38.972656 -15.742188 38.921875 -15.546875 L 11.09375 -15.609375 C 11.488281 -14.472656 12.207031 -13.390625 13.25 -12.359375 C 15.164062 -10.535156 17.382812 -9.625 19.90625 -9.625 C 22.570312 -9.71875 24.789062 -10.65625 26.5625 -12.4375 L 26.859375 -12.734375 L 36.484375 -9.6875 C 34.359375 -6.382812 32.140625 -4.019531 29.828125 -2.59375 C 27.210938 -0.914062 23.929688 -0.0507812 19.984375 0 C 14.753906 0.0507812 10.265625 -1.769531 6.515625 -5.46875 C 2.765625 -9.175781 0.863281 -13.664062 0.8125 -18.9375 C 0.757812 -24.164062 2.585938 -28.65625 6.296875 -32.40625 C 9.992188 -36.15625 14.484375 -38.054688 19.765625 -38.109375 C 24.992188 -38.160156 29.476562 -36.335938 33.21875 -32.640625 C 36.96875 -28.929688 38.867188 -24.441406 38.921875 -19.171875 Z M 19.828125 -28.421875 C 17.210938 -28.421875 14.992188 -27.503906 13.171875 -25.671875 C 12.234375 -24.640625 11.566406 -23.601562 11.171875 -22.5625 L 28.5625 -22.5625 C 28.164062 -23.601562 27.472656 -24.664062 26.484375 -25.75 C 24.617188 -27.53125 22.398438 -28.421875 19.828125 -28.421875 Z M 19.828125 -28.421875 "/></g></g><g style="fill:#ea580c;fill-opacity:1;"><g transform="translate(911.23489, 427.874998)"><path style="stroke:none" d="M 29.671875 -38.109375 L 29.671875 -27.75 L 21.15625 -27.75 L 21.15625 0 L 10.796875 0 L 10.796875 -27.75 L 2.21875 -27.75 L 2.21875 -38.109375 L 10.796875 -38.109375 L 10.796875 -51.4375 L 21.15625 -51.4375 L 21.15625 -38.109375 Z M 29.671875 -38.109375 "/></g></g></g></svg>